M48
;DRILL file {KiCad 4.0.5} date 04/25/17 13:40:26
;FORMAT={-:-/ absolute / metric / decimal}
FMAT,2
METRIC,TZ
T1C0.500
T2C0.600
T3C0.800
T4C0.900
T5C1.000
%
G90
G05
M71
T1
X146.685Y-108.585
T2
X149.86Y-99.06
X151.86Y-99.06
T3
X125.73Y-93.98
X125.73Y-101.6
X128.27Y-93.98
X128.27Y-101.6
X130.81Y-93.98
X130.81Y-101.6
X132.08Y-106.68
X133.35Y-93.98
X133.35Y-101.6
X134.62Y-106.68
X135.89Y-93.98
X135.89Y-101.6
X138.43Y-93.98
X138.43Y-101.6
X140.97Y-93.98
X140.97Y-101.6
X141.478Y-140.462
X143.51Y-93.98
X143.51Y-101.6
X143.51Y-138.43
X148.59Y-106.68
X151.09Y-106.68
T4
X119.38Y-105.49
X119.38Y-110.49
X124.38Y-107.99
X147.32Y-93.98
X149.86Y-93.98
T5
X139.7Y-90.805
X142.24Y-90.805
X151.13Y-111.76
X151.13Y-114.3
X151.13Y-116.84
T0
M30
