G04 #@! TF.FileFunction,Copper,L1,Top,Signal*
%FSLAX46Y46*%
G04 Gerber Fmt 4.6, Leading zero omitted, Abs format (unit mm)*
G04 Created by KiCad (PCBNEW 4.0.5) date 04/25/17 13:40:11*
%MOMM*%
%LPD*%
G01*
G04 APERTURE LIST*
%ADD10C,0.100000*%
%ADD11C,0.300000*%
%ADD12R,1.600000X1.600000*%
%ADD13C,1.600000*%
%ADD14R,1.200000X1.200000*%
%ADD15C,1.200000*%
%ADD16R,1.800000X1.800000*%
%ADD17C,1.800000*%
%ADD18R,1.700000X1.700000*%
%ADD19O,1.700000X1.700000*%
%ADD20R,1.500000X1.300000*%
%ADD21C,1.620000*%
%ADD22O,1.600000X1.600000*%
%ADD23C,0.900000*%
%ADD24C,1.000000*%
%ADD25C,0.500000*%
G04 APERTURE END LIST*
D10*
D11*
X137025714Y-119987143D02*
X136882857Y-120058571D01*
X136597143Y-120058571D01*
X136454285Y-119987143D01*
X136382857Y-119915714D01*
X136311428Y-119772857D01*
X136311428Y-119344286D01*
X136382857Y-119201429D01*
X136454285Y-119130000D01*
X136597143Y-119058571D01*
X136882857Y-119058571D01*
X137025714Y-119130000D01*
X137882857Y-120058571D02*
X137739999Y-119987143D01*
X137668571Y-119915714D01*
X137597142Y-119772857D01*
X137597142Y-119344286D01*
X137668571Y-119201429D01*
X137739999Y-119130000D01*
X137882857Y-119058571D01*
X138097142Y-119058571D01*
X138239999Y-119130000D01*
X138311428Y-119201429D01*
X138382857Y-119344286D01*
X138382857Y-119772857D01*
X138311428Y-119915714D01*
X138239999Y-119987143D01*
X138097142Y-120058571D01*
X137882857Y-120058571D01*
X139025714Y-120058571D02*
X139025714Y-119058571D01*
X139025714Y-119201429D02*
X139097142Y-119130000D01*
X139240000Y-119058571D01*
X139454285Y-119058571D01*
X139597142Y-119130000D01*
X139668571Y-119272857D01*
X139668571Y-120058571D01*
X139668571Y-119272857D02*
X139740000Y-119130000D01*
X139882857Y-119058571D01*
X140097142Y-119058571D01*
X140240000Y-119130000D01*
X140311428Y-119272857D01*
X140311428Y-120058571D01*
X141025714Y-119058571D02*
X141025714Y-120558571D01*
X141025714Y-119130000D02*
X141168571Y-119058571D01*
X141454285Y-119058571D01*
X141597142Y-119130000D01*
X141668571Y-119201429D01*
X141740000Y-119344286D01*
X141740000Y-119772857D01*
X141668571Y-119915714D01*
X141597142Y-119987143D01*
X141454285Y-120058571D01*
X141168571Y-120058571D01*
X141025714Y-119987143D01*
X142382857Y-119915714D02*
X142454285Y-119987143D01*
X142382857Y-120058571D01*
X142311428Y-119987143D01*
X142382857Y-119915714D01*
X142382857Y-120058571D01*
X144168571Y-119987143D02*
X144311428Y-120058571D01*
X144597143Y-120058571D01*
X144740000Y-119987143D01*
X144811428Y-119844286D01*
X144811428Y-119772857D01*
X144740000Y-119630000D01*
X144597143Y-119558571D01*
X144382857Y-119558571D01*
X144240000Y-119487143D01*
X144168571Y-119344286D01*
X144168571Y-119272857D01*
X144240000Y-119130000D01*
X144382857Y-119058571D01*
X144597143Y-119058571D01*
X144740000Y-119130000D01*
X145454286Y-120058571D02*
X145454286Y-119058571D01*
X145454286Y-118558571D02*
X145382857Y-118630000D01*
X145454286Y-118701429D01*
X145525714Y-118630000D01*
X145454286Y-118558571D01*
X145454286Y-118701429D01*
X146811429Y-120058571D02*
X146811429Y-118558571D01*
X146811429Y-119987143D02*
X146668572Y-120058571D01*
X146382858Y-120058571D01*
X146240000Y-119987143D01*
X146168572Y-119915714D01*
X146097143Y-119772857D01*
X146097143Y-119344286D01*
X146168572Y-119201429D01*
X146240000Y-119130000D01*
X146382858Y-119058571D01*
X146668572Y-119058571D01*
X146811429Y-119130000D01*
X148097143Y-119987143D02*
X147954286Y-120058571D01*
X147668572Y-120058571D01*
X147525715Y-119987143D01*
X147454286Y-119844286D01*
X147454286Y-119272857D01*
X147525715Y-119130000D01*
X147668572Y-119058571D01*
X147954286Y-119058571D01*
X148097143Y-119130000D01*
X148168572Y-119272857D01*
X148168572Y-119415714D01*
X147454286Y-119558571D01*
D12*
X148590000Y-106680000D03*
D13*
X151090000Y-106680000D03*
D14*
X149860000Y-99060000D03*
D15*
X151860000Y-99060000D03*
D16*
X147320000Y-93980000D03*
D17*
X149860000Y-93980000D03*
D18*
X139700000Y-90805000D03*
D19*
X142240000Y-90805000D03*
D13*
X134620000Y-106680000D03*
D12*
X132080000Y-106680000D03*
D13*
X143510000Y-138430000D03*
D12*
X141478000Y-140462000D03*
D19*
X151130000Y-111760000D03*
D18*
X151130000Y-116840000D03*
D19*
X151130000Y-114300000D03*
D20*
X119300000Y-101600000D03*
X122000000Y-101600000D03*
X128190000Y-90805000D03*
X130890000Y-90805000D03*
D21*
X119380000Y-105490000D03*
X124380000Y-107990000D03*
X119380000Y-110490000D03*
D12*
X125730000Y-101600000D03*
D22*
X143510000Y-93980000D03*
X128270000Y-101600000D03*
X140970000Y-93980000D03*
X130810000Y-101600000D03*
X138430000Y-93980000D03*
X133350000Y-101600000D03*
X135890000Y-93980000D03*
X135890000Y-101600000D03*
X133350000Y-93980000D03*
X138430000Y-101600000D03*
X130810000Y-93980000D03*
X140970000Y-101600000D03*
X128270000Y-93980000D03*
X143510000Y-101600000D03*
X125730000Y-93980000D03*
D23*
X146685000Y-108585000D03*
D24*
X148590000Y-106680000D02*
X134620000Y-106680000D01*
X133350000Y-96520000D02*
X150168528Y-96520000D01*
X150168528Y-96520000D02*
X151860000Y-98211472D01*
X151860000Y-98211472D02*
X151860000Y-99060000D01*
X130810000Y-93980000D02*
X133350000Y-96520000D01*
X153035000Y-116785000D02*
X153035000Y-103835000D01*
X153035000Y-103835000D02*
X149860000Y-100660000D01*
X149860000Y-100660000D02*
X149860000Y-99060000D01*
X151130000Y-116840000D02*
X152980000Y-116840000D01*
X152980000Y-116840000D02*
X153035000Y-116785000D01*
D25*
X130890000Y-90805000D02*
X135890000Y-90805000D01*
X135890000Y-90805000D02*
X138430000Y-93345000D01*
X138430000Y-93345000D02*
X138430000Y-93980000D01*
X146685000Y-108585000D02*
X147955000Y-109855000D01*
X147955000Y-109855000D02*
X147955000Y-113030000D01*
X147955000Y-113030000D02*
X149225000Y-114300000D01*
X149225000Y-114300000D02*
X151130000Y-114300000D01*
X119300000Y-101600000D02*
X119300000Y-105410000D01*
X119300000Y-105410000D02*
X119380000Y-105490000D01*
X133350000Y-101600000D02*
X133350000Y-100468630D01*
X133350000Y-100468630D02*
X131941370Y-99060000D01*
X131941370Y-99060000D02*
X122555000Y-99060000D01*
X122555000Y-99060000D02*
X122000000Y-99615000D01*
X122000000Y-99615000D02*
X122000000Y-101600000D01*
X128270000Y-93980000D02*
X128270000Y-90885000D01*
X128270000Y-90885000D02*
X128190000Y-90805000D01*
M02*
