G04 #@! TF.FileFunction,Legend,Bot*
%FSLAX46Y46*%
G04 Gerber Fmt 4.6, Leading zero omitted, Abs format (unit mm)*
G04 Created by KiCad (PCBNEW 4.0.5) date 04/25/17 13:40:11*
%MOMM*%
%LPD*%
G01*
G04 APERTURE LIST*
%ADD10C,0.100000*%
%ADD11C,0.120000*%
%ADD12C,0.150000*%
G04 APERTURE END LIST*
D10*
D11*
X137670000Y-110800000D02*
X137670000Y-109870000D01*
X137670000Y-107640000D02*
X137670000Y-108570000D01*
X137670000Y-107640000D02*
X139830000Y-107640000D01*
X137670000Y-110800000D02*
X139130000Y-110800000D01*
X126500000Y-108370000D02*
X127500000Y-108370000D01*
X127500000Y-110070000D02*
X126500000Y-110070000D01*
X124880000Y-105910000D02*
X124880000Y-104910000D01*
X126580000Y-104910000D02*
X126580000Y-105910000D01*
X138010000Y-97290000D02*
X138010000Y-98290000D01*
X136310000Y-98290000D02*
X136310000Y-97290000D01*
X128870000Y-110880000D02*
X127670000Y-110880000D01*
X127670000Y-112640000D02*
X128870000Y-112640000D01*
X136770000Y-106010000D02*
X136770000Y-104810000D01*
X135010000Y-104810000D02*
X135010000Y-106010000D01*
X144110000Y-109610000D02*
X142910000Y-109610000D01*
X142910000Y-111370000D02*
X144110000Y-111370000D01*
X120050000Y-99940000D02*
X121250000Y-99940000D01*
X121250000Y-98180000D02*
X120050000Y-98180000D01*
X129150000Y-106010000D02*
X129150000Y-104810000D01*
X127390000Y-104810000D02*
X127390000Y-106010000D01*
X142485000Y-107280000D02*
X142485000Y-106080000D01*
X140725000Y-106080000D02*
X140725000Y-107280000D01*
X134020000Y-91685000D02*
X135220000Y-91685000D01*
X135220000Y-89925000D02*
X134020000Y-89925000D01*
X145450000Y-91685000D02*
X146650000Y-91685000D01*
X146650000Y-89925000D02*
X145450000Y-89925000D01*
X127390000Y-97190000D02*
X127390000Y-98390000D01*
X129150000Y-98390000D02*
X129150000Y-97190000D01*
X134375000Y-97190000D02*
X134375000Y-98390000D01*
X136135000Y-98390000D02*
X136135000Y-97190000D01*
D12*
X138525238Y-107267619D02*
X138620476Y-107220000D01*
X138715714Y-107124762D01*
X138858571Y-106981905D01*
X138953810Y-106934286D01*
X139049048Y-106934286D01*
X139001429Y-107172381D02*
X139096667Y-107124762D01*
X139191905Y-107029524D01*
X139239524Y-106839048D01*
X139239524Y-106505714D01*
X139191905Y-106315238D01*
X139096667Y-106220000D01*
X139001429Y-106172381D01*
X138810952Y-106172381D01*
X138715714Y-106220000D01*
X138620476Y-106315238D01*
X138572857Y-106505714D01*
X138572857Y-106839048D01*
X138620476Y-107029524D01*
X138715714Y-107124762D01*
X138810952Y-107172381D01*
X139001429Y-107172381D01*
X137620476Y-107172381D02*
X138191905Y-107172381D01*
X137906191Y-107172381D02*
X137906191Y-106172381D01*
X138001429Y-106315238D01*
X138096667Y-106410476D01*
X138191905Y-106458095D01*
X127166666Y-107827143D02*
X127214285Y-107874762D01*
X127357142Y-107922381D01*
X127452380Y-107922381D01*
X127595238Y-107874762D01*
X127690476Y-107779524D01*
X127738095Y-107684286D01*
X127785714Y-107493810D01*
X127785714Y-107350952D01*
X127738095Y-107160476D01*
X127690476Y-107065238D01*
X127595238Y-106970000D01*
X127452380Y-106922381D01*
X127357142Y-106922381D01*
X127214285Y-106970000D01*
X127166666Y-107017619D01*
X126833333Y-106922381D02*
X126214285Y-106922381D01*
X126547619Y-107303333D01*
X126404761Y-107303333D01*
X126309523Y-107350952D01*
X126261904Y-107398571D01*
X126214285Y-107493810D01*
X126214285Y-107731905D01*
X126261904Y-107827143D01*
X126309523Y-107874762D01*
X126404761Y-107922381D01*
X126690476Y-107922381D01*
X126785714Y-107874762D01*
X126833333Y-107827143D01*
X124337143Y-105243334D02*
X124384762Y-105195715D01*
X124432381Y-105052858D01*
X124432381Y-104957620D01*
X124384762Y-104814762D01*
X124289524Y-104719524D01*
X124194286Y-104671905D01*
X124003810Y-104624286D01*
X123860952Y-104624286D01*
X123670476Y-104671905D01*
X123575238Y-104719524D01*
X123480000Y-104814762D01*
X123432381Y-104957620D01*
X123432381Y-105052858D01*
X123480000Y-105195715D01*
X123527619Y-105243334D01*
X123765714Y-106100477D02*
X124432381Y-106100477D01*
X123384762Y-105862381D02*
X124099048Y-105624286D01*
X124099048Y-106243334D01*
X139267143Y-97623334D02*
X139314762Y-97575715D01*
X139362381Y-97432858D01*
X139362381Y-97337620D01*
X139314762Y-97194762D01*
X139219524Y-97099524D01*
X139124286Y-97051905D01*
X138933810Y-97004286D01*
X138790952Y-97004286D01*
X138600476Y-97051905D01*
X138505238Y-97099524D01*
X138410000Y-97194762D01*
X138362381Y-97337620D01*
X138362381Y-97432858D01*
X138410000Y-97575715D01*
X138457619Y-97623334D01*
X138362381Y-98528096D02*
X138362381Y-98051905D01*
X138838571Y-98004286D01*
X138790952Y-98051905D01*
X138743333Y-98147143D01*
X138743333Y-98385239D01*
X138790952Y-98480477D01*
X138838571Y-98528096D01*
X138933810Y-98575715D01*
X139171905Y-98575715D01*
X139267143Y-98528096D01*
X139314762Y-98480477D01*
X139362381Y-98385239D01*
X139362381Y-98147143D01*
X139314762Y-98051905D01*
X139267143Y-98004286D01*
X128436666Y-113912381D02*
X128770000Y-113436190D01*
X129008095Y-113912381D02*
X129008095Y-112912381D01*
X128627142Y-112912381D01*
X128531904Y-112960000D01*
X128484285Y-113007619D01*
X128436666Y-113102857D01*
X128436666Y-113245714D01*
X128484285Y-113340952D01*
X128531904Y-113388571D01*
X128627142Y-113436190D01*
X129008095Y-113436190D01*
X128055714Y-113007619D02*
X128008095Y-112960000D01*
X127912857Y-112912381D01*
X127674761Y-112912381D01*
X127579523Y-112960000D01*
X127531904Y-113007619D01*
X127484285Y-113102857D01*
X127484285Y-113198095D01*
X127531904Y-113340952D01*
X128103333Y-113912381D01*
X127484285Y-113912381D01*
X134642381Y-105243334D02*
X134166190Y-104910000D01*
X134642381Y-104671905D02*
X133642381Y-104671905D01*
X133642381Y-105052858D01*
X133690000Y-105148096D01*
X133737619Y-105195715D01*
X133832857Y-105243334D01*
X133975714Y-105243334D01*
X134070952Y-105195715D01*
X134118571Y-105148096D01*
X134166190Y-105052858D01*
X134166190Y-104671905D01*
X133642381Y-105576667D02*
X133642381Y-106195715D01*
X134023333Y-105862381D01*
X134023333Y-106005239D01*
X134070952Y-106100477D01*
X134118571Y-106148096D01*
X134213810Y-106195715D01*
X134451905Y-106195715D01*
X134547143Y-106148096D01*
X134594762Y-106100477D01*
X134642381Y-106005239D01*
X134642381Y-105719524D01*
X134594762Y-105624286D01*
X134547143Y-105576667D01*
X143676666Y-112642381D02*
X144010000Y-112166190D01*
X144248095Y-112642381D02*
X144248095Y-111642381D01*
X143867142Y-111642381D01*
X143771904Y-111690000D01*
X143724285Y-111737619D01*
X143676666Y-111832857D01*
X143676666Y-111975714D01*
X143724285Y-112070952D01*
X143771904Y-112118571D01*
X143867142Y-112166190D01*
X144248095Y-112166190D01*
X142819523Y-111975714D02*
X142819523Y-112642381D01*
X143057619Y-111594762D02*
X143295714Y-112309048D01*
X142676666Y-112309048D01*
X120816666Y-97812381D02*
X121150000Y-97336190D01*
X121388095Y-97812381D02*
X121388095Y-96812381D01*
X121007142Y-96812381D01*
X120911904Y-96860000D01*
X120864285Y-96907619D01*
X120816666Y-97002857D01*
X120816666Y-97145714D01*
X120864285Y-97240952D01*
X120911904Y-97288571D01*
X121007142Y-97336190D01*
X121388095Y-97336190D01*
X119911904Y-96812381D02*
X120388095Y-96812381D01*
X120435714Y-97288571D01*
X120388095Y-97240952D01*
X120292857Y-97193333D01*
X120054761Y-97193333D01*
X119959523Y-97240952D01*
X119911904Y-97288571D01*
X119864285Y-97383810D01*
X119864285Y-97621905D01*
X119911904Y-97717143D01*
X119959523Y-97764762D01*
X120054761Y-97812381D01*
X120292857Y-97812381D01*
X120388095Y-97764762D01*
X120435714Y-97717143D01*
X127022381Y-105243334D02*
X126546190Y-104910000D01*
X127022381Y-104671905D02*
X126022381Y-104671905D01*
X126022381Y-105052858D01*
X126070000Y-105148096D01*
X126117619Y-105195715D01*
X126212857Y-105243334D01*
X126355714Y-105243334D01*
X126450952Y-105195715D01*
X126498571Y-105148096D01*
X126546190Y-105052858D01*
X126546190Y-104671905D01*
X126022381Y-106100477D02*
X126022381Y-105910000D01*
X126070000Y-105814762D01*
X126117619Y-105767143D01*
X126260476Y-105671905D01*
X126450952Y-105624286D01*
X126831905Y-105624286D01*
X126927143Y-105671905D01*
X126974762Y-105719524D01*
X127022381Y-105814762D01*
X127022381Y-106005239D01*
X126974762Y-106100477D01*
X126927143Y-106148096D01*
X126831905Y-106195715D01*
X126593810Y-106195715D01*
X126498571Y-106148096D01*
X126450952Y-106100477D01*
X126403333Y-106005239D01*
X126403333Y-105814762D01*
X126450952Y-105719524D01*
X126498571Y-105671905D01*
X126593810Y-105624286D01*
X140357381Y-106513334D02*
X139881190Y-106180000D01*
X140357381Y-105941905D02*
X139357381Y-105941905D01*
X139357381Y-106322858D01*
X139405000Y-106418096D01*
X139452619Y-106465715D01*
X139547857Y-106513334D01*
X139690714Y-106513334D01*
X139785952Y-106465715D01*
X139833571Y-106418096D01*
X139881190Y-106322858D01*
X139881190Y-105941905D01*
X139357381Y-106846667D02*
X139357381Y-107513334D01*
X140357381Y-107084762D01*
X134786666Y-89557381D02*
X135120000Y-89081190D01*
X135358095Y-89557381D02*
X135358095Y-88557381D01*
X134977142Y-88557381D01*
X134881904Y-88605000D01*
X134834285Y-88652619D01*
X134786666Y-88747857D01*
X134786666Y-88890714D01*
X134834285Y-88985952D01*
X134881904Y-89033571D01*
X134977142Y-89081190D01*
X135358095Y-89081190D01*
X134215238Y-88985952D02*
X134310476Y-88938333D01*
X134358095Y-88890714D01*
X134405714Y-88795476D01*
X134405714Y-88747857D01*
X134358095Y-88652619D01*
X134310476Y-88605000D01*
X134215238Y-88557381D01*
X134024761Y-88557381D01*
X133929523Y-88605000D01*
X133881904Y-88652619D01*
X133834285Y-88747857D01*
X133834285Y-88795476D01*
X133881904Y-88890714D01*
X133929523Y-88938333D01*
X134024761Y-88985952D01*
X134215238Y-88985952D01*
X134310476Y-89033571D01*
X134358095Y-89081190D01*
X134405714Y-89176429D01*
X134405714Y-89366905D01*
X134358095Y-89462143D01*
X134310476Y-89509762D01*
X134215238Y-89557381D01*
X134024761Y-89557381D01*
X133929523Y-89509762D01*
X133881904Y-89462143D01*
X133834285Y-89366905D01*
X133834285Y-89176429D01*
X133881904Y-89081190D01*
X133929523Y-89033571D01*
X134024761Y-88985952D01*
X146692857Y-89557381D02*
X147026191Y-89081190D01*
X147264286Y-89557381D02*
X147264286Y-88557381D01*
X146883333Y-88557381D01*
X146788095Y-88605000D01*
X146740476Y-88652619D01*
X146692857Y-88747857D01*
X146692857Y-88890714D01*
X146740476Y-88985952D01*
X146788095Y-89033571D01*
X146883333Y-89081190D01*
X147264286Y-89081190D01*
X145740476Y-89557381D02*
X146311905Y-89557381D01*
X146026191Y-89557381D02*
X146026191Y-88557381D01*
X146121429Y-88700238D01*
X146216667Y-88795476D01*
X146311905Y-88843095D01*
X145121429Y-88557381D02*
X145026190Y-88557381D01*
X144930952Y-88605000D01*
X144883333Y-88652619D01*
X144835714Y-88747857D01*
X144788095Y-88938333D01*
X144788095Y-89176429D01*
X144835714Y-89366905D01*
X144883333Y-89462143D01*
X144930952Y-89509762D01*
X145026190Y-89557381D01*
X145121429Y-89557381D01*
X145216667Y-89509762D01*
X145264286Y-89462143D01*
X145311905Y-89366905D01*
X145359524Y-89176429D01*
X145359524Y-88938333D01*
X145311905Y-88747857D01*
X145264286Y-88652619D01*
X145216667Y-88605000D01*
X145121429Y-88557381D01*
X130422381Y-97147143D02*
X129946190Y-96813809D01*
X130422381Y-96575714D02*
X129422381Y-96575714D01*
X129422381Y-96956667D01*
X129470000Y-97051905D01*
X129517619Y-97099524D01*
X129612857Y-97147143D01*
X129755714Y-97147143D01*
X129850952Y-97099524D01*
X129898571Y-97051905D01*
X129946190Y-96956667D01*
X129946190Y-96575714D01*
X130422381Y-98099524D02*
X130422381Y-97528095D01*
X130422381Y-97813809D02*
X129422381Y-97813809D01*
X129565238Y-97718571D01*
X129660476Y-97623333D01*
X129708095Y-97528095D01*
X130422381Y-99051905D02*
X130422381Y-98480476D01*
X130422381Y-98766190D02*
X129422381Y-98766190D01*
X129565238Y-98670952D01*
X129660476Y-98575714D01*
X129708095Y-98480476D01*
X137407381Y-97147143D02*
X136931190Y-96813809D01*
X137407381Y-96575714D02*
X136407381Y-96575714D01*
X136407381Y-96956667D01*
X136455000Y-97051905D01*
X136502619Y-97099524D01*
X136597857Y-97147143D01*
X136740714Y-97147143D01*
X136835952Y-97099524D01*
X136883571Y-97051905D01*
X136931190Y-96956667D01*
X136931190Y-96575714D01*
X137407381Y-98099524D02*
X137407381Y-97528095D01*
X137407381Y-97813809D02*
X136407381Y-97813809D01*
X136550238Y-97718571D01*
X136645476Y-97623333D01*
X136693095Y-97528095D01*
X136502619Y-98480476D02*
X136455000Y-98528095D01*
X136407381Y-98623333D01*
X136407381Y-98861429D01*
X136455000Y-98956667D01*
X136502619Y-99004286D01*
X136597857Y-99051905D01*
X136693095Y-99051905D01*
X136835952Y-99004286D01*
X137407381Y-98432857D01*
X137407381Y-99051905D01*
M02*
