G04 #@! TF.FileFunction,Copper,L2,Bot,Signal*
%FSLAX46Y46*%
G04 Gerber Fmt 4.6, Leading zero omitted, Abs format (unit mm)*
G04 Created by KiCad (PCBNEW 4.0.5) date 03/22/17 00:40:04*
%MOMM*%
%LPD*%
G01*
G04 APERTURE LIST*
%ADD10C,0.100000*%
%ADD11C,0.300000*%
%ADD12R,0.900000X0.800000*%
%ADD13R,1.600000X1.600000*%
%ADD14C,1.600000*%
%ADD15R,1.200000X1.200000*%
%ADD16C,1.200000*%
%ADD17R,1.500000X1.250000*%
%ADD18R,1.250000X1.500000*%
%ADD19R,1.800000X1.800000*%
%ADD20C,1.800000*%
%ADD21R,1.700000X1.700000*%
%ADD22O,1.700000X1.700000*%
%ADD23R,1.500000X1.300000*%
%ADD24R,1.300000X1.500000*%
%ADD25C,1.620000*%
%ADD26O,1.600000X1.600000*%
%ADD27C,0.900000*%
%ADD28C,0.500000*%
%ADD29C,1.000000*%
%ADD30C,0.254000*%
G04 APERTURE END LIST*
D10*
D11*
X136897142Y-143410714D02*
X136968571Y-143482143D01*
X137182857Y-143553571D01*
X137325714Y-143553571D01*
X137539999Y-143482143D01*
X137682857Y-143339286D01*
X137754285Y-143196429D01*
X137825714Y-142910714D01*
X137825714Y-142696429D01*
X137754285Y-142410714D01*
X137682857Y-142267857D01*
X137539999Y-142125000D01*
X137325714Y-142053571D01*
X137182857Y-142053571D01*
X136968571Y-142125000D01*
X136897142Y-142196429D01*
X135397142Y-143410714D02*
X135468571Y-143482143D01*
X135682857Y-143553571D01*
X135825714Y-143553571D01*
X136039999Y-143482143D01*
X136182857Y-143339286D01*
X136254285Y-143196429D01*
X136325714Y-142910714D01*
X136325714Y-142696429D01*
X136254285Y-142410714D01*
X136182857Y-142267857D01*
X136039999Y-142125000D01*
X135825714Y-142053571D01*
X135682857Y-142053571D01*
X135468571Y-142125000D01*
X135397142Y-142196429D01*
X135111428Y-143696429D02*
X133968571Y-143696429D01*
X133682857Y-143482143D02*
X133468571Y-143553571D01*
X133111428Y-143553571D01*
X132968571Y-143482143D01*
X132897142Y-143410714D01*
X132825714Y-143267857D01*
X132825714Y-143125000D01*
X132897142Y-142982143D01*
X132968571Y-142910714D01*
X133111428Y-142839286D01*
X133397142Y-142767857D01*
X133540000Y-142696429D01*
X133611428Y-142625000D01*
X133682857Y-142482143D01*
X133682857Y-142339286D01*
X133611428Y-142196429D01*
X133540000Y-142125000D01*
X133397142Y-142053571D01*
X133040000Y-142053571D01*
X132825714Y-142125000D01*
X132182857Y-143553571D02*
X132182857Y-142053571D01*
X131682857Y-143125000D01*
X131182857Y-142053571D01*
X131182857Y-143553571D01*
X130825714Y-143696429D02*
X129682857Y-143696429D01*
X129325714Y-143553571D02*
X129325714Y-142553571D01*
X129325714Y-142696429D02*
X129254286Y-142625000D01*
X129111428Y-142553571D01*
X128897143Y-142553571D01*
X128754286Y-142625000D01*
X128682857Y-142767857D01*
X128682857Y-143553571D01*
X128682857Y-142767857D02*
X128611428Y-142625000D01*
X128468571Y-142553571D01*
X128254286Y-142553571D01*
X128111428Y-142625000D01*
X128040000Y-142767857D01*
X128040000Y-143553571D01*
X127111428Y-143553571D02*
X127254286Y-143482143D01*
X127325714Y-143410714D01*
X127397143Y-143267857D01*
X127397143Y-142839286D01*
X127325714Y-142696429D01*
X127254286Y-142625000D01*
X127111428Y-142553571D01*
X126897143Y-142553571D01*
X126754286Y-142625000D01*
X126682857Y-142696429D01*
X126611428Y-142839286D01*
X126611428Y-143267857D01*
X126682857Y-143410714D01*
X126754286Y-143482143D01*
X126897143Y-143553571D01*
X127111428Y-143553571D01*
X125325714Y-143553571D02*
X125325714Y-142053571D01*
X125325714Y-143482143D02*
X125468571Y-143553571D01*
X125754285Y-143553571D01*
X125897143Y-143482143D01*
X125968571Y-143410714D01*
X126040000Y-143267857D01*
X126040000Y-142839286D01*
X125968571Y-142696429D01*
X125897143Y-142625000D01*
X125754285Y-142553571D01*
X125468571Y-142553571D01*
X125325714Y-142625000D01*
X124968571Y-143696429D02*
X123825714Y-143696429D01*
X123182857Y-142053571D02*
X123040000Y-142053571D01*
X122897143Y-142125000D01*
X122825714Y-142196429D01*
X122754285Y-142339286D01*
X122682857Y-142625000D01*
X122682857Y-142982143D01*
X122754285Y-143267857D01*
X122825714Y-143410714D01*
X122897143Y-143482143D01*
X123040000Y-143553571D01*
X123182857Y-143553571D01*
X123325714Y-143482143D01*
X123397143Y-143410714D01*
X123468571Y-143267857D01*
X123540000Y-142982143D01*
X123540000Y-142625000D01*
X123468571Y-142339286D01*
X123397143Y-142196429D01*
X123325714Y-142125000D01*
X123182857Y-142053571D01*
X121254286Y-143553571D02*
X122111429Y-143553571D01*
X121682857Y-143553571D02*
X121682857Y-142053571D01*
X121825714Y-142267857D01*
X121968572Y-142410714D01*
X122111429Y-142482143D01*
X150522857Y-138750714D02*
X150451429Y-138607857D01*
X150451429Y-138322142D01*
X150522857Y-138179285D01*
X150665714Y-138107857D01*
X150737143Y-138107857D01*
X150880000Y-138179285D01*
X150951429Y-138322142D01*
X150951429Y-138536428D01*
X151022857Y-138679285D01*
X151165714Y-138750714D01*
X151237143Y-138750714D01*
X151380000Y-138679285D01*
X151451429Y-138536428D01*
X151451429Y-138322142D01*
X151380000Y-138179285D01*
X150451429Y-137250713D02*
X150522857Y-137393571D01*
X150594286Y-137464999D01*
X150737143Y-137536428D01*
X151165714Y-137536428D01*
X151308571Y-137464999D01*
X151380000Y-137393571D01*
X151451429Y-137250713D01*
X151451429Y-137036428D01*
X151380000Y-136893571D01*
X151308571Y-136822142D01*
X151165714Y-136750713D01*
X150737143Y-136750713D01*
X150594286Y-136822142D01*
X150522857Y-136893571D01*
X150451429Y-137036428D01*
X150451429Y-137250713D01*
X150451429Y-135893570D02*
X150522857Y-136036428D01*
X150665714Y-136107856D01*
X151951429Y-136107856D01*
X150451429Y-134679285D02*
X151951429Y-134679285D01*
X150522857Y-134679285D02*
X150451429Y-134822142D01*
X150451429Y-135107856D01*
X150522857Y-135250714D01*
X150594286Y-135322142D01*
X150737143Y-135393571D01*
X151165714Y-135393571D01*
X151308571Y-135322142D01*
X151380000Y-135250714D01*
X151451429Y-135107856D01*
X151451429Y-134822142D01*
X151380000Y-134679285D01*
X150522857Y-133393571D02*
X150451429Y-133536428D01*
X150451429Y-133822142D01*
X150522857Y-133964999D01*
X150665714Y-134036428D01*
X151237143Y-134036428D01*
X151380000Y-133964999D01*
X151451429Y-133822142D01*
X151451429Y-133536428D01*
X151380000Y-133393571D01*
X151237143Y-133322142D01*
X151094286Y-133322142D01*
X150951429Y-134036428D01*
X150451429Y-132679285D02*
X151451429Y-132679285D01*
X151165714Y-132679285D02*
X151308571Y-132607857D01*
X151380000Y-132536428D01*
X151451429Y-132393571D01*
X151451429Y-132250714D01*
X150522857Y-130679286D02*
X150451429Y-130536429D01*
X150451429Y-130250714D01*
X150522857Y-130107857D01*
X150665714Y-130036429D01*
X150737143Y-130036429D01*
X150880000Y-130107857D01*
X150951429Y-130250714D01*
X150951429Y-130465000D01*
X151022857Y-130607857D01*
X151165714Y-130679286D01*
X151237143Y-130679286D01*
X151380000Y-130607857D01*
X151451429Y-130465000D01*
X151451429Y-130250714D01*
X151380000Y-130107857D01*
X150451429Y-129393571D02*
X151451429Y-129393571D01*
X151951429Y-129393571D02*
X151880000Y-129465000D01*
X151808571Y-129393571D01*
X151880000Y-129322143D01*
X151951429Y-129393571D01*
X151808571Y-129393571D01*
X150451429Y-128036428D02*
X151951429Y-128036428D01*
X150522857Y-128036428D02*
X150451429Y-128179285D01*
X150451429Y-128464999D01*
X150522857Y-128607857D01*
X150594286Y-128679285D01*
X150737143Y-128750714D01*
X151165714Y-128750714D01*
X151308571Y-128679285D01*
X151380000Y-128607857D01*
X151451429Y-128464999D01*
X151451429Y-128179285D01*
X151380000Y-128036428D01*
X150522857Y-126750714D02*
X150451429Y-126893571D01*
X150451429Y-127179285D01*
X150522857Y-127322142D01*
X150665714Y-127393571D01*
X151237143Y-127393571D01*
X151380000Y-127322142D01*
X151451429Y-127179285D01*
X151451429Y-126893571D01*
X151380000Y-126750714D01*
X151237143Y-126679285D01*
X151094286Y-126679285D01*
X150951429Y-127393571D01*
X118066429Y-146191430D02*
X119566429Y-146191430D01*
X118066429Y-145548573D02*
X118852143Y-145548573D01*
X118995000Y-145620002D01*
X119066429Y-145762859D01*
X119066429Y-145977144D01*
X118995000Y-146120002D01*
X118923571Y-146191430D01*
X119066429Y-145048573D02*
X119066429Y-144477144D01*
X119566429Y-144834287D02*
X118280714Y-144834287D01*
X118137857Y-144762859D01*
X118066429Y-144620001D01*
X118066429Y-144477144D01*
X119066429Y-144191430D02*
X119066429Y-143620001D01*
X119566429Y-143977144D02*
X118280714Y-143977144D01*
X118137857Y-143905716D01*
X118066429Y-143762858D01*
X118066429Y-143620001D01*
X119066429Y-143120001D02*
X117566429Y-143120001D01*
X118995000Y-143120001D02*
X119066429Y-142977144D01*
X119066429Y-142691430D01*
X118995000Y-142548573D01*
X118923571Y-142477144D01*
X118780714Y-142405715D01*
X118352143Y-142405715D01*
X118209286Y-142477144D01*
X118137857Y-142548573D01*
X118066429Y-142691430D01*
X118066429Y-142977144D01*
X118137857Y-143120001D01*
X118137857Y-141834287D02*
X118066429Y-141691430D01*
X118066429Y-141405715D01*
X118137857Y-141262858D01*
X118280714Y-141191430D01*
X118352143Y-141191430D01*
X118495000Y-141262858D01*
X118566429Y-141405715D01*
X118566429Y-141620001D01*
X118637857Y-141762858D01*
X118780714Y-141834287D01*
X118852143Y-141834287D01*
X118995000Y-141762858D01*
X119066429Y-141620001D01*
X119066429Y-141405715D01*
X118995000Y-141262858D01*
X118209286Y-140548572D02*
X118137857Y-140477144D01*
X118066429Y-140548572D01*
X118137857Y-140620001D01*
X118209286Y-140548572D01*
X118066429Y-140548572D01*
X118995000Y-140548572D02*
X118923571Y-140477144D01*
X118852143Y-140548572D01*
X118923571Y-140620001D01*
X118995000Y-140548572D01*
X118852143Y-140548572D01*
X119637857Y-138762858D02*
X117709286Y-140048572D01*
X119637857Y-137191429D02*
X117709286Y-138477143D01*
X118066429Y-136048571D02*
X118852143Y-136048571D01*
X118995000Y-136120000D01*
X119066429Y-136262857D01*
X119066429Y-136548571D01*
X118995000Y-136691428D01*
X118137857Y-136048571D02*
X118066429Y-136191428D01*
X118066429Y-136548571D01*
X118137857Y-136691428D01*
X118280714Y-136762857D01*
X118423571Y-136762857D01*
X118566429Y-136691428D01*
X118637857Y-136548571D01*
X118637857Y-136191428D01*
X118709286Y-136048571D01*
X119066429Y-135548571D02*
X119066429Y-134977142D01*
X119566429Y-135334285D02*
X118280714Y-135334285D01*
X118137857Y-135262857D01*
X118066429Y-135119999D01*
X118066429Y-134977142D01*
X119066429Y-134691428D02*
X119066429Y-134119999D01*
X119566429Y-134477142D02*
X118280714Y-134477142D01*
X118137857Y-134405714D01*
X118066429Y-134262856D01*
X118066429Y-134119999D01*
X118066429Y-132977142D02*
X118852143Y-132977142D01*
X118995000Y-133048571D01*
X119066429Y-133191428D01*
X119066429Y-133477142D01*
X118995000Y-133619999D01*
X118137857Y-132977142D02*
X118066429Y-133119999D01*
X118066429Y-133477142D01*
X118137857Y-133619999D01*
X118280714Y-133691428D01*
X118423571Y-133691428D01*
X118566429Y-133619999D01*
X118637857Y-133477142D01*
X118637857Y-133119999D01*
X118709286Y-132977142D01*
X118137857Y-131619999D02*
X118066429Y-131762856D01*
X118066429Y-132048570D01*
X118137857Y-132191428D01*
X118209286Y-132262856D01*
X118352143Y-132334285D01*
X118780714Y-132334285D01*
X118923571Y-132262856D01*
X118995000Y-132191428D01*
X119066429Y-132048570D01*
X119066429Y-131762856D01*
X118995000Y-131619999D01*
X118066429Y-130977142D02*
X119566429Y-130977142D01*
X118066429Y-130334285D02*
X118852143Y-130334285D01*
X118995000Y-130405714D01*
X119066429Y-130548571D01*
X119066429Y-130762856D01*
X118995000Y-130905714D01*
X118923571Y-130977142D01*
X118066429Y-129619999D02*
X119066429Y-129619999D01*
X119566429Y-129619999D02*
X119495000Y-129691428D01*
X119423571Y-129619999D01*
X119495000Y-129548571D01*
X119566429Y-129619999D01*
X119423571Y-129619999D01*
X118066429Y-129048570D02*
X119066429Y-128262856D01*
X119066429Y-129048570D02*
X118066429Y-128262856D01*
X118209286Y-127691427D02*
X118137857Y-127619999D01*
X118066429Y-127691427D01*
X118137857Y-127762856D01*
X118209286Y-127691427D01*
X118066429Y-127691427D01*
X118137857Y-126334284D02*
X118066429Y-126477141D01*
X118066429Y-126762855D01*
X118137857Y-126905713D01*
X118209286Y-126977141D01*
X118352143Y-127048570D01*
X118780714Y-127048570D01*
X118923571Y-126977141D01*
X118995000Y-126905713D01*
X119066429Y-126762855D01*
X119066429Y-126477141D01*
X118995000Y-126334284D01*
X118066429Y-125477141D02*
X118137857Y-125619999D01*
X118209286Y-125691427D01*
X118352143Y-125762856D01*
X118780714Y-125762856D01*
X118923571Y-125691427D01*
X118995000Y-125619999D01*
X119066429Y-125477141D01*
X119066429Y-125262856D01*
X118995000Y-125119999D01*
X118923571Y-125048570D01*
X118780714Y-124977141D01*
X118352143Y-124977141D01*
X118209286Y-125048570D01*
X118137857Y-125119999D01*
X118066429Y-125262856D01*
X118066429Y-125477141D01*
X118066429Y-124334284D02*
X119066429Y-124334284D01*
X118923571Y-124334284D02*
X118995000Y-124262856D01*
X119066429Y-124119998D01*
X119066429Y-123905713D01*
X118995000Y-123762856D01*
X118852143Y-123691427D01*
X118066429Y-123691427D01*
X118852143Y-123691427D02*
X118995000Y-123619998D01*
X119066429Y-123477141D01*
X119066429Y-123262856D01*
X118995000Y-123119998D01*
X118852143Y-123048570D01*
X118066429Y-123048570D01*
X146183571Y-145950714D02*
X146255000Y-146022143D01*
X146469286Y-146093571D01*
X146612143Y-146093571D01*
X146826428Y-146022143D01*
X146969286Y-145879286D01*
X147040714Y-145736429D01*
X147112143Y-145450714D01*
X147112143Y-145236429D01*
X147040714Y-144950714D01*
X146969286Y-144807857D01*
X146826428Y-144665000D01*
X146612143Y-144593571D01*
X146469286Y-144593571D01*
X146255000Y-144665000D01*
X146183571Y-144736429D01*
X145326428Y-146093571D02*
X145469286Y-146022143D01*
X145540714Y-145950714D01*
X145612143Y-145807857D01*
X145612143Y-145379286D01*
X145540714Y-145236429D01*
X145469286Y-145165000D01*
X145326428Y-145093571D01*
X145112143Y-145093571D01*
X144969286Y-145165000D01*
X144897857Y-145236429D01*
X144826428Y-145379286D01*
X144826428Y-145807857D01*
X144897857Y-145950714D01*
X144969286Y-146022143D01*
X145112143Y-146093571D01*
X145326428Y-146093571D01*
X144183571Y-146093571D02*
X144183571Y-145093571D01*
X144183571Y-145236429D02*
X144112143Y-145165000D01*
X143969285Y-145093571D01*
X143755000Y-145093571D01*
X143612143Y-145165000D01*
X143540714Y-145307857D01*
X143540714Y-146093571D01*
X143540714Y-145307857D02*
X143469285Y-145165000D01*
X143326428Y-145093571D01*
X143112143Y-145093571D01*
X142969285Y-145165000D01*
X142897857Y-145307857D01*
X142897857Y-146093571D01*
X142183571Y-145093571D02*
X142183571Y-146593571D01*
X142183571Y-145165000D02*
X142040714Y-145093571D01*
X141755000Y-145093571D01*
X141612143Y-145165000D01*
X141540714Y-145236429D01*
X141469285Y-145379286D01*
X141469285Y-145807857D01*
X141540714Y-145950714D01*
X141612143Y-146022143D01*
X141755000Y-146093571D01*
X142040714Y-146093571D01*
X142183571Y-146022143D01*
X140183571Y-145093571D02*
X140183571Y-146093571D01*
X140826428Y-145093571D02*
X140826428Y-145879286D01*
X140755000Y-146022143D01*
X140612142Y-146093571D01*
X140397857Y-146093571D01*
X140255000Y-146022143D01*
X140183571Y-145950714D01*
X139683571Y-145093571D02*
X139112142Y-145093571D01*
X139469285Y-144593571D02*
X139469285Y-145879286D01*
X139397857Y-146022143D01*
X139254999Y-146093571D01*
X139112142Y-146093571D01*
X138040714Y-146022143D02*
X138183571Y-146093571D01*
X138469285Y-146093571D01*
X138612142Y-146022143D01*
X138683571Y-145879286D01*
X138683571Y-145307857D01*
X138612142Y-145165000D01*
X138469285Y-145093571D01*
X138183571Y-145093571D01*
X138040714Y-145165000D01*
X137969285Y-145307857D01*
X137969285Y-145450714D01*
X138683571Y-145593571D01*
X137326428Y-146093571D02*
X137326428Y-145093571D01*
X137326428Y-145379286D02*
X137255000Y-145236429D01*
X137183571Y-145165000D01*
X137040714Y-145093571D01*
X136897857Y-145093571D01*
X134397857Y-145950714D02*
X134469286Y-146022143D01*
X134683572Y-146093571D01*
X134826429Y-146093571D01*
X135040714Y-146022143D01*
X135183572Y-145879286D01*
X135255000Y-145736429D01*
X135326429Y-145450714D01*
X135326429Y-145236429D01*
X135255000Y-144950714D01*
X135183572Y-144807857D01*
X135040714Y-144665000D01*
X134826429Y-144593571D01*
X134683572Y-144593571D01*
X134469286Y-144665000D01*
X134397857Y-144736429D01*
X133183572Y-146022143D02*
X133326429Y-146093571D01*
X133612143Y-146093571D01*
X133755000Y-146022143D01*
X133826429Y-145879286D01*
X133826429Y-145307857D01*
X133755000Y-145165000D01*
X133612143Y-145093571D01*
X133326429Y-145093571D01*
X133183572Y-145165000D01*
X133112143Y-145307857D01*
X133112143Y-145450714D01*
X133826429Y-145593571D01*
X132469286Y-145093571D02*
X132469286Y-146093571D01*
X132469286Y-145236429D02*
X132397858Y-145165000D01*
X132255000Y-145093571D01*
X132040715Y-145093571D01*
X131897858Y-145165000D01*
X131826429Y-145307857D01*
X131826429Y-146093571D01*
X131326429Y-145093571D02*
X130755000Y-145093571D01*
X131112143Y-144593571D02*
X131112143Y-145879286D01*
X131040715Y-146022143D01*
X130897857Y-146093571D01*
X130755000Y-146093571D01*
X129683572Y-146022143D02*
X129826429Y-146093571D01*
X130112143Y-146093571D01*
X130255000Y-146022143D01*
X130326429Y-145879286D01*
X130326429Y-145307857D01*
X130255000Y-145165000D01*
X130112143Y-145093571D01*
X129826429Y-145093571D01*
X129683572Y-145165000D01*
X129612143Y-145307857D01*
X129612143Y-145450714D01*
X130326429Y-145593571D01*
X128969286Y-146093571D02*
X128969286Y-145093571D01*
X128969286Y-145379286D02*
X128897858Y-145236429D01*
X128826429Y-145165000D01*
X128683572Y-145093571D01*
X128540715Y-145093571D01*
X126183572Y-146093571D02*
X126897858Y-146093571D01*
X126897858Y-144593571D01*
X125897858Y-145093571D02*
X125326429Y-145093571D01*
X125683572Y-144593571D02*
X125683572Y-145879286D01*
X125612144Y-146022143D01*
X125469286Y-146093571D01*
X125326429Y-146093571D01*
X124183572Y-146093571D02*
X124183572Y-144593571D01*
X124183572Y-146022143D02*
X124326429Y-146093571D01*
X124612143Y-146093571D01*
X124755001Y-146022143D01*
X124826429Y-145950714D01*
X124897858Y-145807857D01*
X124897858Y-145379286D01*
X124826429Y-145236429D01*
X124755001Y-145165000D01*
X124612143Y-145093571D01*
X124326429Y-145093571D01*
X124183572Y-145165000D01*
X123469286Y-145950714D02*
X123397858Y-146022143D01*
X123469286Y-146093571D01*
X123540715Y-146022143D01*
X123469286Y-145950714D01*
X123469286Y-146093571D01*
D12*
X139430000Y-108270000D03*
X139430000Y-110170000D03*
X137430000Y-109220000D03*
D13*
X148590000Y-106680000D03*
D14*
X151090000Y-106680000D03*
D15*
X149860000Y-99060000D03*
D16*
X151860000Y-99060000D03*
D17*
X128250000Y-109220000D03*
X125750000Y-109220000D03*
D18*
X125730000Y-104160000D03*
X125730000Y-106660000D03*
X137160000Y-99040000D03*
X137160000Y-96540000D03*
D19*
X147320000Y-93980000D03*
D20*
X149860000Y-93980000D03*
D21*
X139700000Y-90805000D03*
D22*
X142240000Y-90805000D03*
D14*
X134620000Y-106680000D03*
D13*
X132080000Y-106680000D03*
D14*
X143510000Y-138430000D03*
D13*
X141478000Y-140462000D03*
D22*
X151130000Y-111760000D03*
D21*
X151130000Y-116840000D03*
D22*
X151130000Y-114300000D03*
D23*
X126920000Y-111760000D03*
X129620000Y-111760000D03*
D24*
X135890000Y-104060000D03*
X135890000Y-106760000D03*
D23*
X142160000Y-110490000D03*
X144860000Y-110490000D03*
X122000000Y-99060000D03*
X119300000Y-99060000D03*
D24*
X128270000Y-104060000D03*
X128270000Y-106760000D03*
X141605000Y-105330000D03*
X141605000Y-108030000D03*
D23*
X135970000Y-90805000D03*
X133270000Y-90805000D03*
X147400000Y-90805000D03*
X144700000Y-90805000D03*
D24*
X128270000Y-99140000D03*
X128270000Y-96440000D03*
X135255000Y-99140000D03*
X135255000Y-96440000D03*
D25*
X119380000Y-105490000D03*
X124380000Y-107990000D03*
X119380000Y-110490000D03*
D13*
X125730000Y-101600000D03*
D26*
X143510000Y-93980000D03*
X128270000Y-101600000D03*
X140970000Y-93980000D03*
X130810000Y-101600000D03*
X138430000Y-93980000D03*
X133350000Y-101600000D03*
X135890000Y-93980000D03*
X135890000Y-101600000D03*
X133350000Y-93980000D03*
X138430000Y-101600000D03*
X130810000Y-93980000D03*
X140970000Y-101600000D03*
X128270000Y-93980000D03*
X143510000Y-101600000D03*
X125730000Y-93980000D03*
D27*
X146685000Y-108585000D03*
D28*
X138430000Y-101600000D02*
X138430000Y-107320000D01*
X138430000Y-107320000D02*
X139380000Y-108270000D01*
X139380000Y-108270000D02*
X139430000Y-108270000D01*
X139430000Y-110170000D02*
X141840000Y-110170000D01*
X141840000Y-110170000D02*
X142160000Y-110490000D01*
X132080000Y-106680000D02*
X132080000Y-107980000D01*
X132080000Y-107980000D02*
X133320000Y-109220000D01*
X133320000Y-109220000D02*
X136480000Y-109220000D01*
X136480000Y-109220000D02*
X137430000Y-109220000D01*
D29*
X134620000Y-106680000D02*
X135810000Y-106680000D01*
X135810000Y-106680000D02*
X135890000Y-106760000D01*
X151130000Y-111760000D02*
X151130000Y-110490000D01*
X151130000Y-110490000D02*
X151130000Y-106720000D01*
X144860000Y-110490000D02*
X151130000Y-110490000D01*
X151090000Y-106680000D02*
X151860000Y-105910000D01*
X151860000Y-105910000D02*
X151860000Y-99060000D01*
X151130000Y-106720000D02*
X151090000Y-106680000D01*
D28*
X149860000Y-93980000D02*
X149860000Y-99060000D01*
D29*
X135890000Y-104060000D02*
X135890000Y-101600000D01*
X122000000Y-99060000D02*
X128190000Y-99060000D01*
X128190000Y-99060000D02*
X128270000Y-99140000D01*
X128270000Y-99140000D02*
X135255000Y-99140000D01*
X137160000Y-99040000D02*
X135890000Y-99040000D01*
X135890000Y-99040000D02*
X135355000Y-99040000D01*
X135890000Y-101600000D02*
X135890000Y-99040000D01*
X135355000Y-99040000D02*
X135255000Y-99140000D01*
X149860000Y-99060000D02*
X137180000Y-99060000D01*
X137180000Y-99060000D02*
X137160000Y-99040000D01*
D28*
X128270000Y-106760000D02*
X128270000Y-109200000D01*
X128270000Y-109200000D02*
X128250000Y-109220000D01*
X129540000Y-120650000D02*
X129540000Y-115530000D01*
X129540000Y-115530000D02*
X126920000Y-112910000D01*
X126920000Y-112910000D02*
X126920000Y-111760000D01*
X142619999Y-133729999D02*
X129540000Y-120650000D01*
X143510000Y-138430000D02*
X142619999Y-137539999D01*
X142619999Y-137539999D02*
X142619999Y-133729999D01*
X126365000Y-111760000D02*
X125750000Y-111145000D01*
X125750000Y-111145000D02*
X125750000Y-109220000D01*
X126920000Y-111760000D02*
X126365000Y-111760000D01*
X125730000Y-106660000D02*
X125730000Y-107950000D01*
X125730000Y-107950000D02*
X125730000Y-109200000D01*
X124380000Y-107990000D02*
X125690000Y-107990000D01*
X125690000Y-107990000D02*
X125730000Y-107950000D01*
X125730000Y-109200000D02*
X125750000Y-109220000D01*
X125730000Y-104160000D02*
X125730000Y-101600000D01*
X137160000Y-96540000D02*
X135890000Y-96540000D01*
X135890000Y-96540000D02*
X135355000Y-96540000D01*
X135890000Y-93980000D02*
X135890000Y-96540000D01*
X135355000Y-96540000D02*
X135255000Y-96440000D01*
X135970000Y-90805000D02*
X135970000Y-93900000D01*
X135970000Y-93900000D02*
X135890000Y-93980000D01*
X147400000Y-90805000D02*
X147400000Y-93900000D01*
X147400000Y-93900000D02*
X147320000Y-93980000D01*
X138430000Y-92075000D02*
X138430000Y-93980000D01*
X139700000Y-90805000D02*
X138430000Y-92075000D01*
X142240000Y-90805000D02*
X144700000Y-90805000D01*
X141478000Y-140462000D02*
X144653000Y-140462000D01*
X144653000Y-140462000D02*
X145415000Y-139700000D01*
X145415000Y-139700000D02*
X145415000Y-133985000D01*
X145415000Y-133985000D02*
X131445000Y-120015000D01*
X131445000Y-120015000D02*
X131445000Y-114735000D01*
X131445000Y-114735000D02*
X129620000Y-112910000D01*
X129620000Y-112910000D02*
X129620000Y-111760000D01*
X141605000Y-108030000D02*
X146130000Y-108030000D01*
X146130000Y-108030000D02*
X146685000Y-108585000D01*
X121285000Y-102195000D02*
X121285000Y-108585000D01*
X121285000Y-108585000D02*
X119380000Y-110490000D01*
X119300000Y-99060000D02*
X119300000Y-100210000D01*
X119300000Y-100210000D02*
X121285000Y-102195000D01*
X128270000Y-104060000D02*
X128270000Y-101600000D01*
X140970000Y-101600000D02*
X140970000Y-104695000D01*
X140970000Y-104695000D02*
X141605000Y-105330000D01*
X133270000Y-90805000D02*
X133270000Y-93900000D01*
X133270000Y-93900000D02*
X133350000Y-93980000D01*
X128270000Y-96440000D02*
X128270000Y-93980000D01*
D30*
G36*
X131872560Y-91455000D02*
X131916838Y-91690317D01*
X132055910Y-91906441D01*
X132268110Y-92051431D01*
X132385000Y-92075102D01*
X132385000Y-92903982D01*
X132335302Y-92937189D01*
X132065014Y-93341703D01*
X131962389Y-93124866D01*
X131547423Y-92748959D01*
X131159039Y-92588096D01*
X130937000Y-92710085D01*
X130937000Y-93853000D01*
X130957000Y-93853000D01*
X130957000Y-94107000D01*
X130937000Y-94107000D01*
X130937000Y-95249915D01*
X131159039Y-95371904D01*
X131547423Y-95211041D01*
X131962389Y-94835134D01*
X132065014Y-94618297D01*
X132335302Y-95022811D01*
X132800849Y-95333880D01*
X133350000Y-95443113D01*
X133899151Y-95333880D01*
X134364698Y-95022811D01*
X134620000Y-94640725D01*
X134875302Y-95022811D01*
X134904858Y-95042560D01*
X134605000Y-95042560D01*
X134369683Y-95086838D01*
X134153559Y-95225910D01*
X134008569Y-95438110D01*
X133957560Y-95690000D01*
X133957560Y-97190000D01*
X134001838Y-97425317D01*
X134140910Y-97641441D01*
X134353110Y-97786431D01*
X134366197Y-97789081D01*
X134153559Y-97925910D01*
X134099519Y-98005000D01*
X129426844Y-98005000D01*
X129384090Y-97938559D01*
X129171890Y-97793569D01*
X129158803Y-97790919D01*
X129371441Y-97654090D01*
X129516431Y-97441890D01*
X129567440Y-97190000D01*
X129567440Y-95690000D01*
X129523162Y-95454683D01*
X129384090Y-95238559D01*
X129175307Y-95095904D01*
X129284698Y-95022811D01*
X129554986Y-94618297D01*
X129657611Y-94835134D01*
X130072577Y-95211041D01*
X130460961Y-95371904D01*
X130683000Y-95249915D01*
X130683000Y-94107000D01*
X130663000Y-94107000D01*
X130663000Y-93853000D01*
X130683000Y-93853000D01*
X130683000Y-92710085D01*
X130460961Y-92588096D01*
X130072577Y-92748959D01*
X129657611Y-93124866D01*
X129554986Y-93341703D01*
X129284698Y-92937189D01*
X128819151Y-92626120D01*
X128270000Y-92516887D01*
X127720849Y-92626120D01*
X127255302Y-92937189D01*
X127000000Y-93319275D01*
X126744698Y-92937189D01*
X126279151Y-92626120D01*
X125730000Y-92516887D01*
X125180849Y-92626120D01*
X124715302Y-92937189D01*
X124404233Y-93402736D01*
X124295000Y-93951887D01*
X124295000Y-94008113D01*
X124404233Y-94557264D01*
X124715302Y-95022811D01*
X125180849Y-95333880D01*
X125730000Y-95443113D01*
X126279151Y-95333880D01*
X126744698Y-95022811D01*
X127000000Y-94640725D01*
X127255302Y-95022811D01*
X127367588Y-95097838D01*
X127168559Y-95225910D01*
X127023569Y-95438110D01*
X126972560Y-95690000D01*
X126972560Y-97190000D01*
X127016838Y-97425317D01*
X127155910Y-97641441D01*
X127368110Y-97786431D01*
X127381197Y-97789081D01*
X127169973Y-97925000D01*
X123164975Y-97925000D01*
X123001890Y-97813569D01*
X122750000Y-97762560D01*
X121250000Y-97762560D01*
X121014683Y-97806838D01*
X120798559Y-97945910D01*
X120653569Y-98158110D01*
X120650919Y-98171197D01*
X120514090Y-97958559D01*
X120301890Y-97813569D01*
X120050000Y-97762560D01*
X118550000Y-97762560D01*
X118314683Y-97806838D01*
X118098559Y-97945910D01*
X117953569Y-98158110D01*
X117902560Y-98410000D01*
X117902560Y-99710000D01*
X117946838Y-99945317D01*
X118085910Y-100161441D01*
X118298110Y-100306431D01*
X118439892Y-100335143D01*
X118450094Y-100386431D01*
X118482367Y-100548675D01*
X118650296Y-100800000D01*
X118674210Y-100835790D01*
X120400000Y-102561579D01*
X120400000Y-104466458D01*
X120199595Y-104265703D01*
X119668689Y-104045252D01*
X119093833Y-104044750D01*
X118562543Y-104264275D01*
X118155703Y-104670405D01*
X117935252Y-105201311D01*
X117934750Y-105776167D01*
X118154275Y-106307457D01*
X118560405Y-106714297D01*
X119091311Y-106934748D01*
X119666167Y-106935250D01*
X120197457Y-106715725D01*
X120400000Y-106513535D01*
X120400000Y-108218421D01*
X119573252Y-109045169D01*
X119093833Y-109044750D01*
X118562543Y-109264275D01*
X118155703Y-109670405D01*
X117935252Y-110201311D01*
X117934750Y-110776167D01*
X118154275Y-111307457D01*
X118560405Y-111714297D01*
X119091311Y-111934748D01*
X119666167Y-111935250D01*
X120197457Y-111715725D01*
X120604297Y-111309595D01*
X120824748Y-110778689D01*
X120825169Y-110296410D01*
X121910787Y-109210792D01*
X121910790Y-109210790D01*
X122102633Y-108923675D01*
X122120272Y-108835000D01*
X122170001Y-108585000D01*
X122170000Y-108584995D01*
X122170000Y-102195005D01*
X122170001Y-102195000D01*
X122102633Y-101856326D01*
X122102633Y-101856325D01*
X121910790Y-101569210D01*
X121910787Y-101569208D01*
X120507217Y-100165637D01*
X120646431Y-99961890D01*
X120649081Y-99948803D01*
X120785910Y-100161441D01*
X120998110Y-100306431D01*
X121250000Y-100357440D01*
X122750000Y-100357440D01*
X122985317Y-100313162D01*
X123168946Y-100195000D01*
X124704451Y-100195000D01*
X124694683Y-100196838D01*
X124478559Y-100335910D01*
X124333569Y-100548110D01*
X124282560Y-100800000D01*
X124282560Y-102400000D01*
X124326838Y-102635317D01*
X124465910Y-102851441D01*
X124637840Y-102968916D01*
X124508569Y-103158110D01*
X124457560Y-103410000D01*
X124457560Y-104910000D01*
X124501838Y-105145317D01*
X124640910Y-105361441D01*
X124710711Y-105409134D01*
X124653559Y-105445910D01*
X124508569Y-105658110D01*
X124457560Y-105910000D01*
X124457560Y-106545068D01*
X124093833Y-106544750D01*
X123562543Y-106764275D01*
X123155703Y-107170405D01*
X122935252Y-107701311D01*
X122934750Y-108276167D01*
X123154275Y-108807457D01*
X123560405Y-109214297D01*
X124091311Y-109434748D01*
X124352560Y-109434976D01*
X124352560Y-109845000D01*
X124396838Y-110080317D01*
X124535910Y-110296441D01*
X124748110Y-110441431D01*
X124865000Y-110465102D01*
X124865000Y-111144995D01*
X124864999Y-111145000D01*
X124919965Y-111421325D01*
X124932367Y-111483675D01*
X125062429Y-111678327D01*
X125124210Y-111770790D01*
X125522560Y-112169139D01*
X125522560Y-112410000D01*
X125566838Y-112645317D01*
X125705910Y-112861441D01*
X125918110Y-113006431D01*
X126059892Y-113035143D01*
X126068978Y-113080819D01*
X126102367Y-113248675D01*
X126294210Y-113535790D01*
X128655000Y-115896579D01*
X128655000Y-120649995D01*
X128654999Y-120650000D01*
X128691328Y-120832633D01*
X128722367Y-120988675D01*
X128914210Y-121275790D01*
X141734999Y-134096578D01*
X141734999Y-137539994D01*
X141734998Y-137539999D01*
X141750554Y-137618200D01*
X141802366Y-137878674D01*
X141925626Y-138063146D01*
X141994209Y-138165789D01*
X142075160Y-138246740D01*
X142074752Y-138714187D01*
X142198863Y-139014560D01*
X140678000Y-139014560D01*
X140442683Y-139058838D01*
X140226559Y-139197910D01*
X140081569Y-139410110D01*
X140030560Y-139662000D01*
X140030560Y-141262000D01*
X140074838Y-141497317D01*
X140213910Y-141713441D01*
X140426110Y-141858431D01*
X140678000Y-141909440D01*
X142278000Y-141909440D01*
X142513317Y-141865162D01*
X142729441Y-141726090D01*
X142874431Y-141513890D01*
X142908227Y-141347000D01*
X144652995Y-141347000D01*
X144653000Y-141347001D01*
X144935484Y-141290810D01*
X144991675Y-141279633D01*
X145278790Y-141087790D01*
X146040787Y-140325792D01*
X146040790Y-140325790D01*
X146232633Y-140038675D01*
X146267229Y-139864750D01*
X146300001Y-139700000D01*
X146300000Y-139699995D01*
X146300000Y-133985000D01*
X146232633Y-133646325D01*
X146040790Y-133359210D01*
X146040787Y-133359208D01*
X132330000Y-119648420D01*
X132330000Y-114735005D01*
X132330001Y-114735000D01*
X132262633Y-114396326D01*
X132262633Y-114396325D01*
X132198272Y-114300000D01*
X149615907Y-114300000D01*
X149728946Y-114868285D01*
X150050853Y-115350054D01*
X150092452Y-115377850D01*
X150044683Y-115386838D01*
X149828559Y-115525910D01*
X149683569Y-115738110D01*
X149632560Y-115990000D01*
X149632560Y-117690000D01*
X149676838Y-117925317D01*
X149815910Y-118141441D01*
X150028110Y-118286431D01*
X150280000Y-118337440D01*
X151980000Y-118337440D01*
X152215317Y-118293162D01*
X152431441Y-118154090D01*
X152576431Y-117941890D01*
X152627440Y-117690000D01*
X152627440Y-115990000D01*
X152583162Y-115754683D01*
X152444090Y-115538559D01*
X152231890Y-115393569D01*
X152164459Y-115379914D01*
X152209147Y-115350054D01*
X152531054Y-114868285D01*
X152644093Y-114300000D01*
X152531054Y-113731715D01*
X152209147Y-113249946D01*
X151868447Y-113022298D01*
X152011358Y-112955183D01*
X152401645Y-112526924D01*
X152571476Y-112116890D01*
X152450155Y-111887000D01*
X151257000Y-111887000D01*
X151257000Y-111907000D01*
X151003000Y-111907000D01*
X151003000Y-111887000D01*
X149809845Y-111887000D01*
X149688524Y-112116890D01*
X149858355Y-112526924D01*
X150248642Y-112955183D01*
X150391553Y-113022298D01*
X150050853Y-113249946D01*
X149728946Y-113731715D01*
X149615907Y-114300000D01*
X132198272Y-114300000D01*
X132070790Y-114109210D01*
X132070787Y-114109208D01*
X130827217Y-112865637D01*
X130966431Y-112661890D01*
X131017440Y-112410000D01*
X131017440Y-111110000D01*
X130973162Y-110874683D01*
X130834090Y-110658559D01*
X130621890Y-110513569D01*
X130370000Y-110462560D01*
X129158798Y-110462560D01*
X129235317Y-110448162D01*
X129451441Y-110309090D01*
X129596431Y-110096890D01*
X129647440Y-109845000D01*
X129647440Y-108595000D01*
X129603162Y-108359683D01*
X129464090Y-108143559D01*
X129291423Y-108025580D01*
X129371441Y-107974090D01*
X129516431Y-107761890D01*
X129567440Y-107510000D01*
X129567440Y-106010000D01*
X129523162Y-105774683D01*
X129384090Y-105558559D01*
X129171890Y-105413569D01*
X129158803Y-105410919D01*
X129371441Y-105274090D01*
X129516431Y-105061890D01*
X129567440Y-104810000D01*
X129567440Y-103310000D01*
X129523162Y-103074683D01*
X129384090Y-102858559D01*
X129175307Y-102715904D01*
X129284698Y-102642811D01*
X129540000Y-102260725D01*
X129795302Y-102642811D01*
X130260849Y-102953880D01*
X130810000Y-103063113D01*
X131359151Y-102953880D01*
X131824698Y-102642811D01*
X132080000Y-102260725D01*
X132335302Y-102642811D01*
X132800849Y-102953880D01*
X133350000Y-103063113D01*
X133899151Y-102953880D01*
X134364698Y-102642811D01*
X134620000Y-102260725D01*
X134755000Y-102462767D01*
X134755000Y-102895025D01*
X134643569Y-103058110D01*
X134592560Y-103310000D01*
X134592560Y-104810000D01*
X134636838Y-105045317D01*
X134765412Y-105245127D01*
X134335813Y-105244752D01*
X133808200Y-105462757D01*
X133505742Y-105764688D01*
X133483162Y-105644683D01*
X133344090Y-105428559D01*
X133131890Y-105283569D01*
X132880000Y-105232560D01*
X131280000Y-105232560D01*
X131044683Y-105276838D01*
X130828559Y-105415910D01*
X130683569Y-105628110D01*
X130632560Y-105880000D01*
X130632560Y-107480000D01*
X130676838Y-107715317D01*
X130815910Y-107931441D01*
X131028110Y-108076431D01*
X131221991Y-108115693D01*
X131242110Y-108216838D01*
X131262367Y-108318675D01*
X131318288Y-108402367D01*
X131454210Y-108605790D01*
X132694208Y-109845787D01*
X132694210Y-109845790D01*
X132981325Y-110037633D01*
X133037516Y-110048810D01*
X133320000Y-110105001D01*
X133320005Y-110105000D01*
X136565025Y-110105000D01*
X136728110Y-110216431D01*
X136980000Y-110267440D01*
X137880000Y-110267440D01*
X138115317Y-110223162D01*
X138331441Y-110084090D01*
X138332560Y-110082452D01*
X138332560Y-110570000D01*
X138376838Y-110805317D01*
X138515910Y-111021441D01*
X138728110Y-111166431D01*
X138980000Y-111217440D01*
X139880000Y-111217440D01*
X140115317Y-111173162D01*
X140298946Y-111055000D01*
X140762560Y-111055000D01*
X140762560Y-111140000D01*
X140806838Y-111375317D01*
X140945910Y-111591441D01*
X141158110Y-111736431D01*
X141410000Y-111787440D01*
X142910000Y-111787440D01*
X143145317Y-111743162D01*
X143361441Y-111604090D01*
X143506431Y-111391890D01*
X143513191Y-111358510D01*
X143571673Y-111499699D01*
X143750302Y-111678327D01*
X143983691Y-111775000D01*
X144574250Y-111775000D01*
X144733000Y-111616250D01*
X144733000Y-110617000D01*
X144987000Y-110617000D01*
X144987000Y-111616250D01*
X145145750Y-111775000D01*
X145736309Y-111775000D01*
X145969698Y-111678327D01*
X146148327Y-111499699D01*
X146188335Y-111403110D01*
X149688524Y-111403110D01*
X149809845Y-111633000D01*
X151003000Y-111633000D01*
X151003000Y-110439181D01*
X151257000Y-110439181D01*
X151257000Y-111633000D01*
X152450155Y-111633000D01*
X152571476Y-111403110D01*
X152401645Y-110993076D01*
X152011358Y-110564817D01*
X151486892Y-110318514D01*
X151257000Y-110439181D01*
X151003000Y-110439181D01*
X150773108Y-110318514D01*
X150248642Y-110564817D01*
X149858355Y-110993076D01*
X149688524Y-111403110D01*
X146188335Y-111403110D01*
X146245000Y-111266310D01*
X146245000Y-110775750D01*
X146086250Y-110617000D01*
X144987000Y-110617000D01*
X144733000Y-110617000D01*
X144713000Y-110617000D01*
X144713000Y-110363000D01*
X144733000Y-110363000D01*
X144733000Y-109363750D01*
X144574250Y-109205000D01*
X143983691Y-109205000D01*
X143750302Y-109301673D01*
X143571673Y-109480301D01*
X143515346Y-109616287D01*
X143513162Y-109604683D01*
X143374090Y-109388559D01*
X143161890Y-109243569D01*
X142910000Y-109192560D01*
X142741650Y-109192560D01*
X142851431Y-109031890D01*
X142875102Y-108915000D01*
X145647382Y-108915000D01*
X145764646Y-109198800D01*
X145795176Y-109229384D01*
X145736309Y-109205000D01*
X145145750Y-109205000D01*
X144987000Y-109363750D01*
X144987000Y-110363000D01*
X146086250Y-110363000D01*
X146245000Y-110204250D01*
X146245000Y-109713690D01*
X146176678Y-109548747D01*
X146468233Y-109669811D01*
X146899873Y-109670188D01*
X147298800Y-109505354D01*
X147604282Y-109200405D01*
X147769811Y-108801767D01*
X147770188Y-108370127D01*
X147658946Y-108100901D01*
X147790000Y-108127440D01*
X149390000Y-108127440D01*
X149625317Y-108083162D01*
X149841441Y-107944090D01*
X149986431Y-107731890D01*
X149995370Y-107687745D01*
X150261861Y-107687745D01*
X150335995Y-107933864D01*
X150873223Y-108126965D01*
X151443454Y-108099778D01*
X151844005Y-107933864D01*
X151918139Y-107687745D01*
X151090000Y-106859605D01*
X150261861Y-107687745D01*
X149995370Y-107687745D01*
X150034646Y-107493799D01*
X150082255Y-107508139D01*
X150910395Y-106680000D01*
X151269605Y-106680000D01*
X152097745Y-107508139D01*
X152343864Y-107434005D01*
X152536965Y-106896777D01*
X152509778Y-106326546D01*
X152343864Y-105925995D01*
X152097745Y-105851861D01*
X151269605Y-106680000D01*
X150910395Y-106680000D01*
X150082255Y-105851861D01*
X150034833Y-105866145D01*
X149998351Y-105672255D01*
X150261861Y-105672255D01*
X151090000Y-106500395D01*
X151918139Y-105672255D01*
X151844005Y-105426136D01*
X151306777Y-105233035D01*
X150736546Y-105260222D01*
X150335995Y-105426136D01*
X150261861Y-105672255D01*
X149998351Y-105672255D01*
X149993162Y-105644683D01*
X149854090Y-105428559D01*
X149641890Y-105283569D01*
X149390000Y-105232560D01*
X147790000Y-105232560D01*
X147554683Y-105276838D01*
X147338559Y-105415910D01*
X147193569Y-105628110D01*
X147142560Y-105880000D01*
X147142560Y-107480000D01*
X147167089Y-107610360D01*
X146901767Y-107500189D01*
X146851725Y-107500145D01*
X146755790Y-107404210D01*
X146680959Y-107354210D01*
X146468675Y-107212367D01*
X146378073Y-107194345D01*
X146130000Y-107144999D01*
X146129995Y-107145000D01*
X142877038Y-107145000D01*
X142858162Y-107044683D01*
X142719090Y-106828559D01*
X142506890Y-106683569D01*
X142493803Y-106680919D01*
X142706441Y-106544090D01*
X142851431Y-106331890D01*
X142902440Y-106080000D01*
X142902440Y-104580000D01*
X142858162Y-104344683D01*
X142719090Y-104128559D01*
X142506890Y-103983569D01*
X142255000Y-103932560D01*
X141855000Y-103932560D01*
X141855000Y-102729473D01*
X141984698Y-102642811D01*
X142240000Y-102260725D01*
X142495302Y-102642811D01*
X142960849Y-102953880D01*
X143510000Y-103063113D01*
X144059151Y-102953880D01*
X144524698Y-102642811D01*
X144835767Y-102177264D01*
X144945000Y-101628113D01*
X144945000Y-101571887D01*
X144835767Y-101022736D01*
X144524698Y-100557189D01*
X144059151Y-100246120D01*
X143802154Y-100195000D01*
X148918203Y-100195000D01*
X149008110Y-100256431D01*
X149260000Y-100307440D01*
X150460000Y-100307440D01*
X150695317Y-100263162D01*
X150911441Y-100124090D01*
X151006993Y-99984245D01*
X151061178Y-100038430D01*
X151176871Y-99922737D01*
X151226383Y-100148164D01*
X151691036Y-100307807D01*
X152181413Y-100277482D01*
X152493617Y-100148164D01*
X152543130Y-99922735D01*
X151860000Y-99239605D01*
X151845858Y-99253748D01*
X151666253Y-99074143D01*
X151680395Y-99060000D01*
X151666253Y-99045858D01*
X151845858Y-98866253D01*
X151860000Y-98880395D01*
X152543130Y-98197265D01*
X152493617Y-97971836D01*
X152028964Y-97812193D01*
X151538587Y-97842518D01*
X151226383Y-97971836D01*
X151176871Y-98197263D01*
X151061178Y-98081570D01*
X151006351Y-98136397D01*
X150924090Y-98008559D01*
X150745000Y-97886192D01*
X150745000Y-95265468D01*
X151160551Y-94850643D01*
X151394733Y-94286670D01*
X151395265Y-93676009D01*
X151162068Y-93111629D01*
X150730643Y-92679449D01*
X150166670Y-92445267D01*
X149556009Y-92444735D01*
X148991629Y-92677932D01*
X148823387Y-92845880D01*
X148823162Y-92844683D01*
X148684090Y-92628559D01*
X148471890Y-92483569D01*
X148285000Y-92445723D01*
X148285000Y-92077038D01*
X148385317Y-92058162D01*
X148601441Y-91919090D01*
X148746431Y-91706890D01*
X148797440Y-91455000D01*
X148797440Y-90297000D01*
X152908000Y-90297000D01*
X152908000Y-98417561D01*
X152722735Y-98376870D01*
X152039605Y-99060000D01*
X152722735Y-99743130D01*
X152908000Y-99702439D01*
X152908000Y-121158000D01*
X147320000Y-121158000D01*
X147270590Y-121168006D01*
X147228965Y-121196447D01*
X147201685Y-121238841D01*
X147193000Y-121285000D01*
X147193000Y-125438639D01*
X146246326Y-125045546D01*
X144999146Y-125044457D01*
X143846485Y-125520727D01*
X142963826Y-126401847D01*
X142485546Y-127553674D01*
X142484457Y-128800854D01*
X142960727Y-129953515D01*
X143841847Y-130836174D01*
X144993674Y-131314454D01*
X146240854Y-131315543D01*
X147193000Y-130922124D01*
X147193000Y-143580000D01*
X139949606Y-143580000D01*
X138746428Y-142376822D01*
X138746428Y-141040000D01*
X137409606Y-141040000D01*
X120580000Y-124210394D01*
X120580000Y-122056427D01*
X118426033Y-122056427D01*
X117602000Y-121232394D01*
X117602000Y-118300854D01*
X121484457Y-118300854D01*
X121960727Y-119453515D01*
X122841847Y-120336174D01*
X123993674Y-120814454D01*
X125240854Y-120815543D01*
X126393515Y-120339273D01*
X127276174Y-119458153D01*
X127754454Y-118306326D01*
X127755543Y-117059146D01*
X127279273Y-115906485D01*
X126398153Y-115023826D01*
X125246326Y-114545546D01*
X123999146Y-114544457D01*
X122846485Y-115020727D01*
X121963826Y-115901847D01*
X121485546Y-117053674D01*
X121484457Y-118300854D01*
X117602000Y-118300854D01*
X117602000Y-92545599D01*
X118406699Y-92545599D01*
X118670281Y-93183515D01*
X119157918Y-93672004D01*
X119795373Y-93936699D01*
X120485599Y-93937301D01*
X121123515Y-93673719D01*
X121612004Y-93186082D01*
X121876699Y-92548627D01*
X121877301Y-91858401D01*
X121613719Y-91220485D01*
X121126082Y-90731996D01*
X120488627Y-90467301D01*
X119798401Y-90466699D01*
X119160485Y-90730281D01*
X118671996Y-91217918D01*
X118407301Y-91855373D01*
X118406699Y-92545599D01*
X117602000Y-92545599D01*
X117602000Y-90297000D01*
X131872560Y-90297000D01*
X131872560Y-91455000D01*
X131872560Y-91455000D01*
G37*
X131872560Y-91455000D02*
X131916838Y-91690317D01*
X132055910Y-91906441D01*
X132268110Y-92051431D01*
X132385000Y-92075102D01*
X132385000Y-92903982D01*
X132335302Y-92937189D01*
X132065014Y-93341703D01*
X131962389Y-93124866D01*
X131547423Y-92748959D01*
X131159039Y-92588096D01*
X130937000Y-92710085D01*
X130937000Y-93853000D01*
X130957000Y-93853000D01*
X130957000Y-94107000D01*
X130937000Y-94107000D01*
X130937000Y-95249915D01*
X131159039Y-95371904D01*
X131547423Y-95211041D01*
X131962389Y-94835134D01*
X132065014Y-94618297D01*
X132335302Y-95022811D01*
X132800849Y-95333880D01*
X133350000Y-95443113D01*
X133899151Y-95333880D01*
X134364698Y-95022811D01*
X134620000Y-94640725D01*
X134875302Y-95022811D01*
X134904858Y-95042560D01*
X134605000Y-95042560D01*
X134369683Y-95086838D01*
X134153559Y-95225910D01*
X134008569Y-95438110D01*
X133957560Y-95690000D01*
X133957560Y-97190000D01*
X134001838Y-97425317D01*
X134140910Y-97641441D01*
X134353110Y-97786431D01*
X134366197Y-97789081D01*
X134153559Y-97925910D01*
X134099519Y-98005000D01*
X129426844Y-98005000D01*
X129384090Y-97938559D01*
X129171890Y-97793569D01*
X129158803Y-97790919D01*
X129371441Y-97654090D01*
X129516431Y-97441890D01*
X129567440Y-97190000D01*
X129567440Y-95690000D01*
X129523162Y-95454683D01*
X129384090Y-95238559D01*
X129175307Y-95095904D01*
X129284698Y-95022811D01*
X129554986Y-94618297D01*
X129657611Y-94835134D01*
X130072577Y-95211041D01*
X130460961Y-95371904D01*
X130683000Y-95249915D01*
X130683000Y-94107000D01*
X130663000Y-94107000D01*
X130663000Y-93853000D01*
X130683000Y-93853000D01*
X130683000Y-92710085D01*
X130460961Y-92588096D01*
X130072577Y-92748959D01*
X129657611Y-93124866D01*
X129554986Y-93341703D01*
X129284698Y-92937189D01*
X128819151Y-92626120D01*
X128270000Y-92516887D01*
X127720849Y-92626120D01*
X127255302Y-92937189D01*
X127000000Y-93319275D01*
X126744698Y-92937189D01*
X126279151Y-92626120D01*
X125730000Y-92516887D01*
X125180849Y-92626120D01*
X124715302Y-92937189D01*
X124404233Y-93402736D01*
X124295000Y-93951887D01*
X124295000Y-94008113D01*
X124404233Y-94557264D01*
X124715302Y-95022811D01*
X125180849Y-95333880D01*
X125730000Y-95443113D01*
X126279151Y-95333880D01*
X126744698Y-95022811D01*
X127000000Y-94640725D01*
X127255302Y-95022811D01*
X127367588Y-95097838D01*
X127168559Y-95225910D01*
X127023569Y-95438110D01*
X126972560Y-95690000D01*
X126972560Y-97190000D01*
X127016838Y-97425317D01*
X127155910Y-97641441D01*
X127368110Y-97786431D01*
X127381197Y-97789081D01*
X127169973Y-97925000D01*
X123164975Y-97925000D01*
X123001890Y-97813569D01*
X122750000Y-97762560D01*
X121250000Y-97762560D01*
X121014683Y-97806838D01*
X120798559Y-97945910D01*
X120653569Y-98158110D01*
X120650919Y-98171197D01*
X120514090Y-97958559D01*
X120301890Y-97813569D01*
X120050000Y-97762560D01*
X118550000Y-97762560D01*
X118314683Y-97806838D01*
X118098559Y-97945910D01*
X117953569Y-98158110D01*
X117902560Y-98410000D01*
X117902560Y-99710000D01*
X117946838Y-99945317D01*
X118085910Y-100161441D01*
X118298110Y-100306431D01*
X118439892Y-100335143D01*
X118450094Y-100386431D01*
X118482367Y-100548675D01*
X118650296Y-100800000D01*
X118674210Y-100835790D01*
X120400000Y-102561579D01*
X120400000Y-104466458D01*
X120199595Y-104265703D01*
X119668689Y-104045252D01*
X119093833Y-104044750D01*
X118562543Y-104264275D01*
X118155703Y-104670405D01*
X117935252Y-105201311D01*
X117934750Y-105776167D01*
X118154275Y-106307457D01*
X118560405Y-106714297D01*
X119091311Y-106934748D01*
X119666167Y-106935250D01*
X120197457Y-106715725D01*
X120400000Y-106513535D01*
X120400000Y-108218421D01*
X119573252Y-109045169D01*
X119093833Y-109044750D01*
X118562543Y-109264275D01*
X118155703Y-109670405D01*
X117935252Y-110201311D01*
X117934750Y-110776167D01*
X118154275Y-111307457D01*
X118560405Y-111714297D01*
X119091311Y-111934748D01*
X119666167Y-111935250D01*
X120197457Y-111715725D01*
X120604297Y-111309595D01*
X120824748Y-110778689D01*
X120825169Y-110296410D01*
X121910787Y-109210792D01*
X121910790Y-109210790D01*
X122102633Y-108923675D01*
X122120272Y-108835000D01*
X122170001Y-108585000D01*
X122170000Y-108584995D01*
X122170000Y-102195005D01*
X122170001Y-102195000D01*
X122102633Y-101856326D01*
X122102633Y-101856325D01*
X121910790Y-101569210D01*
X121910787Y-101569208D01*
X120507217Y-100165637D01*
X120646431Y-99961890D01*
X120649081Y-99948803D01*
X120785910Y-100161441D01*
X120998110Y-100306431D01*
X121250000Y-100357440D01*
X122750000Y-100357440D01*
X122985317Y-100313162D01*
X123168946Y-100195000D01*
X124704451Y-100195000D01*
X124694683Y-100196838D01*
X124478559Y-100335910D01*
X124333569Y-100548110D01*
X124282560Y-100800000D01*
X124282560Y-102400000D01*
X124326838Y-102635317D01*
X124465910Y-102851441D01*
X124637840Y-102968916D01*
X124508569Y-103158110D01*
X124457560Y-103410000D01*
X124457560Y-104910000D01*
X124501838Y-105145317D01*
X124640910Y-105361441D01*
X124710711Y-105409134D01*
X124653559Y-105445910D01*
X124508569Y-105658110D01*
X124457560Y-105910000D01*
X124457560Y-106545068D01*
X124093833Y-106544750D01*
X123562543Y-106764275D01*
X123155703Y-107170405D01*
X122935252Y-107701311D01*
X122934750Y-108276167D01*
X123154275Y-108807457D01*
X123560405Y-109214297D01*
X124091311Y-109434748D01*
X124352560Y-109434976D01*
X124352560Y-109845000D01*
X124396838Y-110080317D01*
X124535910Y-110296441D01*
X124748110Y-110441431D01*
X124865000Y-110465102D01*
X124865000Y-111144995D01*
X124864999Y-111145000D01*
X124919965Y-111421325D01*
X124932367Y-111483675D01*
X125062429Y-111678327D01*
X125124210Y-111770790D01*
X125522560Y-112169139D01*
X125522560Y-112410000D01*
X125566838Y-112645317D01*
X125705910Y-112861441D01*
X125918110Y-113006431D01*
X126059892Y-113035143D01*
X126068978Y-113080819D01*
X126102367Y-113248675D01*
X126294210Y-113535790D01*
X128655000Y-115896579D01*
X128655000Y-120649995D01*
X128654999Y-120650000D01*
X128691328Y-120832633D01*
X128722367Y-120988675D01*
X128914210Y-121275790D01*
X141734999Y-134096578D01*
X141734999Y-137539994D01*
X141734998Y-137539999D01*
X141750554Y-137618200D01*
X141802366Y-137878674D01*
X141925626Y-138063146D01*
X141994209Y-138165789D01*
X142075160Y-138246740D01*
X142074752Y-138714187D01*
X142198863Y-139014560D01*
X140678000Y-139014560D01*
X140442683Y-139058838D01*
X140226559Y-139197910D01*
X140081569Y-139410110D01*
X140030560Y-139662000D01*
X140030560Y-141262000D01*
X140074838Y-141497317D01*
X140213910Y-141713441D01*
X140426110Y-141858431D01*
X140678000Y-141909440D01*
X142278000Y-141909440D01*
X142513317Y-141865162D01*
X142729441Y-141726090D01*
X142874431Y-141513890D01*
X142908227Y-141347000D01*
X144652995Y-141347000D01*
X144653000Y-141347001D01*
X144935484Y-141290810D01*
X144991675Y-141279633D01*
X145278790Y-141087790D01*
X146040787Y-140325792D01*
X146040790Y-140325790D01*
X146232633Y-140038675D01*
X146267229Y-139864750D01*
X146300001Y-139700000D01*
X146300000Y-139699995D01*
X146300000Y-133985000D01*
X146232633Y-133646325D01*
X146040790Y-133359210D01*
X146040787Y-133359208D01*
X132330000Y-119648420D01*
X132330000Y-114735005D01*
X132330001Y-114735000D01*
X132262633Y-114396326D01*
X132262633Y-114396325D01*
X132198272Y-114300000D01*
X149615907Y-114300000D01*
X149728946Y-114868285D01*
X150050853Y-115350054D01*
X150092452Y-115377850D01*
X150044683Y-115386838D01*
X149828559Y-115525910D01*
X149683569Y-115738110D01*
X149632560Y-115990000D01*
X149632560Y-117690000D01*
X149676838Y-117925317D01*
X149815910Y-118141441D01*
X150028110Y-118286431D01*
X150280000Y-118337440D01*
X151980000Y-118337440D01*
X152215317Y-118293162D01*
X152431441Y-118154090D01*
X152576431Y-117941890D01*
X152627440Y-117690000D01*
X152627440Y-115990000D01*
X152583162Y-115754683D01*
X152444090Y-115538559D01*
X152231890Y-115393569D01*
X152164459Y-115379914D01*
X152209147Y-115350054D01*
X152531054Y-114868285D01*
X152644093Y-114300000D01*
X152531054Y-113731715D01*
X152209147Y-113249946D01*
X151868447Y-113022298D01*
X152011358Y-112955183D01*
X152401645Y-112526924D01*
X152571476Y-112116890D01*
X152450155Y-111887000D01*
X151257000Y-111887000D01*
X151257000Y-111907000D01*
X151003000Y-111907000D01*
X151003000Y-111887000D01*
X149809845Y-111887000D01*
X149688524Y-112116890D01*
X149858355Y-112526924D01*
X150248642Y-112955183D01*
X150391553Y-113022298D01*
X150050853Y-113249946D01*
X149728946Y-113731715D01*
X149615907Y-114300000D01*
X132198272Y-114300000D01*
X132070790Y-114109210D01*
X132070787Y-114109208D01*
X130827217Y-112865637D01*
X130966431Y-112661890D01*
X131017440Y-112410000D01*
X131017440Y-111110000D01*
X130973162Y-110874683D01*
X130834090Y-110658559D01*
X130621890Y-110513569D01*
X130370000Y-110462560D01*
X129158798Y-110462560D01*
X129235317Y-110448162D01*
X129451441Y-110309090D01*
X129596431Y-110096890D01*
X129647440Y-109845000D01*
X129647440Y-108595000D01*
X129603162Y-108359683D01*
X129464090Y-108143559D01*
X129291423Y-108025580D01*
X129371441Y-107974090D01*
X129516431Y-107761890D01*
X129567440Y-107510000D01*
X129567440Y-106010000D01*
X129523162Y-105774683D01*
X129384090Y-105558559D01*
X129171890Y-105413569D01*
X129158803Y-105410919D01*
X129371441Y-105274090D01*
X129516431Y-105061890D01*
X129567440Y-104810000D01*
X129567440Y-103310000D01*
X129523162Y-103074683D01*
X129384090Y-102858559D01*
X129175307Y-102715904D01*
X129284698Y-102642811D01*
X129540000Y-102260725D01*
X129795302Y-102642811D01*
X130260849Y-102953880D01*
X130810000Y-103063113D01*
X131359151Y-102953880D01*
X131824698Y-102642811D01*
X132080000Y-102260725D01*
X132335302Y-102642811D01*
X132800849Y-102953880D01*
X133350000Y-103063113D01*
X133899151Y-102953880D01*
X134364698Y-102642811D01*
X134620000Y-102260725D01*
X134755000Y-102462767D01*
X134755000Y-102895025D01*
X134643569Y-103058110D01*
X134592560Y-103310000D01*
X134592560Y-104810000D01*
X134636838Y-105045317D01*
X134765412Y-105245127D01*
X134335813Y-105244752D01*
X133808200Y-105462757D01*
X133505742Y-105764688D01*
X133483162Y-105644683D01*
X133344090Y-105428559D01*
X133131890Y-105283569D01*
X132880000Y-105232560D01*
X131280000Y-105232560D01*
X131044683Y-105276838D01*
X130828559Y-105415910D01*
X130683569Y-105628110D01*
X130632560Y-105880000D01*
X130632560Y-107480000D01*
X130676838Y-107715317D01*
X130815910Y-107931441D01*
X131028110Y-108076431D01*
X131221991Y-108115693D01*
X131242110Y-108216838D01*
X131262367Y-108318675D01*
X131318288Y-108402367D01*
X131454210Y-108605790D01*
X132694208Y-109845787D01*
X132694210Y-109845790D01*
X132981325Y-110037633D01*
X133037516Y-110048810D01*
X133320000Y-110105001D01*
X133320005Y-110105000D01*
X136565025Y-110105000D01*
X136728110Y-110216431D01*
X136980000Y-110267440D01*
X137880000Y-110267440D01*
X138115317Y-110223162D01*
X138331441Y-110084090D01*
X138332560Y-110082452D01*
X138332560Y-110570000D01*
X138376838Y-110805317D01*
X138515910Y-111021441D01*
X138728110Y-111166431D01*
X138980000Y-111217440D01*
X139880000Y-111217440D01*
X140115317Y-111173162D01*
X140298946Y-111055000D01*
X140762560Y-111055000D01*
X140762560Y-111140000D01*
X140806838Y-111375317D01*
X140945910Y-111591441D01*
X141158110Y-111736431D01*
X141410000Y-111787440D01*
X142910000Y-111787440D01*
X143145317Y-111743162D01*
X143361441Y-111604090D01*
X143506431Y-111391890D01*
X143513191Y-111358510D01*
X143571673Y-111499699D01*
X143750302Y-111678327D01*
X143983691Y-111775000D01*
X144574250Y-111775000D01*
X144733000Y-111616250D01*
X144733000Y-110617000D01*
X144987000Y-110617000D01*
X144987000Y-111616250D01*
X145145750Y-111775000D01*
X145736309Y-111775000D01*
X145969698Y-111678327D01*
X146148327Y-111499699D01*
X146188335Y-111403110D01*
X149688524Y-111403110D01*
X149809845Y-111633000D01*
X151003000Y-111633000D01*
X151003000Y-110439181D01*
X151257000Y-110439181D01*
X151257000Y-111633000D01*
X152450155Y-111633000D01*
X152571476Y-111403110D01*
X152401645Y-110993076D01*
X152011358Y-110564817D01*
X151486892Y-110318514D01*
X151257000Y-110439181D01*
X151003000Y-110439181D01*
X150773108Y-110318514D01*
X150248642Y-110564817D01*
X149858355Y-110993076D01*
X149688524Y-111403110D01*
X146188335Y-111403110D01*
X146245000Y-111266310D01*
X146245000Y-110775750D01*
X146086250Y-110617000D01*
X144987000Y-110617000D01*
X144733000Y-110617000D01*
X144713000Y-110617000D01*
X144713000Y-110363000D01*
X144733000Y-110363000D01*
X144733000Y-109363750D01*
X144574250Y-109205000D01*
X143983691Y-109205000D01*
X143750302Y-109301673D01*
X143571673Y-109480301D01*
X143515346Y-109616287D01*
X143513162Y-109604683D01*
X143374090Y-109388559D01*
X143161890Y-109243569D01*
X142910000Y-109192560D01*
X142741650Y-109192560D01*
X142851431Y-109031890D01*
X142875102Y-108915000D01*
X145647382Y-108915000D01*
X145764646Y-109198800D01*
X145795176Y-109229384D01*
X145736309Y-109205000D01*
X145145750Y-109205000D01*
X144987000Y-109363750D01*
X144987000Y-110363000D01*
X146086250Y-110363000D01*
X146245000Y-110204250D01*
X146245000Y-109713690D01*
X146176678Y-109548747D01*
X146468233Y-109669811D01*
X146899873Y-109670188D01*
X147298800Y-109505354D01*
X147604282Y-109200405D01*
X147769811Y-108801767D01*
X147770188Y-108370127D01*
X147658946Y-108100901D01*
X147790000Y-108127440D01*
X149390000Y-108127440D01*
X149625317Y-108083162D01*
X149841441Y-107944090D01*
X149986431Y-107731890D01*
X149995370Y-107687745D01*
X150261861Y-107687745D01*
X150335995Y-107933864D01*
X150873223Y-108126965D01*
X151443454Y-108099778D01*
X151844005Y-107933864D01*
X151918139Y-107687745D01*
X151090000Y-106859605D01*
X150261861Y-107687745D01*
X149995370Y-107687745D01*
X150034646Y-107493799D01*
X150082255Y-107508139D01*
X150910395Y-106680000D01*
X151269605Y-106680000D01*
X152097745Y-107508139D01*
X152343864Y-107434005D01*
X152536965Y-106896777D01*
X152509778Y-106326546D01*
X152343864Y-105925995D01*
X152097745Y-105851861D01*
X151269605Y-106680000D01*
X150910395Y-106680000D01*
X150082255Y-105851861D01*
X150034833Y-105866145D01*
X149998351Y-105672255D01*
X150261861Y-105672255D01*
X151090000Y-106500395D01*
X151918139Y-105672255D01*
X151844005Y-105426136D01*
X151306777Y-105233035D01*
X150736546Y-105260222D01*
X150335995Y-105426136D01*
X150261861Y-105672255D01*
X149998351Y-105672255D01*
X149993162Y-105644683D01*
X149854090Y-105428559D01*
X149641890Y-105283569D01*
X149390000Y-105232560D01*
X147790000Y-105232560D01*
X147554683Y-105276838D01*
X147338559Y-105415910D01*
X147193569Y-105628110D01*
X147142560Y-105880000D01*
X147142560Y-107480000D01*
X147167089Y-107610360D01*
X146901767Y-107500189D01*
X146851725Y-107500145D01*
X146755790Y-107404210D01*
X146680959Y-107354210D01*
X146468675Y-107212367D01*
X146378073Y-107194345D01*
X146130000Y-107144999D01*
X146129995Y-107145000D01*
X142877038Y-107145000D01*
X142858162Y-107044683D01*
X142719090Y-106828559D01*
X142506890Y-106683569D01*
X142493803Y-106680919D01*
X142706441Y-106544090D01*
X142851431Y-106331890D01*
X142902440Y-106080000D01*
X142902440Y-104580000D01*
X142858162Y-104344683D01*
X142719090Y-104128559D01*
X142506890Y-103983569D01*
X142255000Y-103932560D01*
X141855000Y-103932560D01*
X141855000Y-102729473D01*
X141984698Y-102642811D01*
X142240000Y-102260725D01*
X142495302Y-102642811D01*
X142960849Y-102953880D01*
X143510000Y-103063113D01*
X144059151Y-102953880D01*
X144524698Y-102642811D01*
X144835767Y-102177264D01*
X144945000Y-101628113D01*
X144945000Y-101571887D01*
X144835767Y-101022736D01*
X144524698Y-100557189D01*
X144059151Y-100246120D01*
X143802154Y-100195000D01*
X148918203Y-100195000D01*
X149008110Y-100256431D01*
X149260000Y-100307440D01*
X150460000Y-100307440D01*
X150695317Y-100263162D01*
X150911441Y-100124090D01*
X151006993Y-99984245D01*
X151061178Y-100038430D01*
X151176871Y-99922737D01*
X151226383Y-100148164D01*
X151691036Y-100307807D01*
X152181413Y-100277482D01*
X152493617Y-100148164D01*
X152543130Y-99922735D01*
X151860000Y-99239605D01*
X151845858Y-99253748D01*
X151666253Y-99074143D01*
X151680395Y-99060000D01*
X151666253Y-99045858D01*
X151845858Y-98866253D01*
X151860000Y-98880395D01*
X152543130Y-98197265D01*
X152493617Y-97971836D01*
X152028964Y-97812193D01*
X151538587Y-97842518D01*
X151226383Y-97971836D01*
X151176871Y-98197263D01*
X151061178Y-98081570D01*
X151006351Y-98136397D01*
X150924090Y-98008559D01*
X150745000Y-97886192D01*
X150745000Y-95265468D01*
X151160551Y-94850643D01*
X151394733Y-94286670D01*
X151395265Y-93676009D01*
X151162068Y-93111629D01*
X150730643Y-92679449D01*
X150166670Y-92445267D01*
X149556009Y-92444735D01*
X148991629Y-92677932D01*
X148823387Y-92845880D01*
X148823162Y-92844683D01*
X148684090Y-92628559D01*
X148471890Y-92483569D01*
X148285000Y-92445723D01*
X148285000Y-92077038D01*
X148385317Y-92058162D01*
X148601441Y-91919090D01*
X148746431Y-91706890D01*
X148797440Y-91455000D01*
X148797440Y-90297000D01*
X152908000Y-90297000D01*
X152908000Y-98417561D01*
X152722735Y-98376870D01*
X152039605Y-99060000D01*
X152722735Y-99743130D01*
X152908000Y-99702439D01*
X152908000Y-121158000D01*
X147320000Y-121158000D01*
X147270590Y-121168006D01*
X147228965Y-121196447D01*
X147201685Y-121238841D01*
X147193000Y-121285000D01*
X147193000Y-125438639D01*
X146246326Y-125045546D01*
X144999146Y-125044457D01*
X143846485Y-125520727D01*
X142963826Y-126401847D01*
X142485546Y-127553674D01*
X142484457Y-128800854D01*
X142960727Y-129953515D01*
X143841847Y-130836174D01*
X144993674Y-131314454D01*
X146240854Y-131315543D01*
X147193000Y-130922124D01*
X147193000Y-143580000D01*
X139949606Y-143580000D01*
X138746428Y-142376822D01*
X138746428Y-141040000D01*
X137409606Y-141040000D01*
X120580000Y-124210394D01*
X120580000Y-122056427D01*
X118426033Y-122056427D01*
X117602000Y-121232394D01*
X117602000Y-118300854D01*
X121484457Y-118300854D01*
X121960727Y-119453515D01*
X122841847Y-120336174D01*
X123993674Y-120814454D01*
X125240854Y-120815543D01*
X126393515Y-120339273D01*
X127276174Y-119458153D01*
X127754454Y-118306326D01*
X127755543Y-117059146D01*
X127279273Y-115906485D01*
X126398153Y-115023826D01*
X125246326Y-114545546D01*
X123999146Y-114544457D01*
X122846485Y-115020727D01*
X121963826Y-115901847D01*
X121485546Y-117053674D01*
X121484457Y-118300854D01*
X117602000Y-118300854D01*
X117602000Y-92545599D01*
X118406699Y-92545599D01*
X118670281Y-93183515D01*
X119157918Y-93672004D01*
X119795373Y-93936699D01*
X120485599Y-93937301D01*
X121123515Y-93673719D01*
X121612004Y-93186082D01*
X121876699Y-92548627D01*
X121877301Y-91858401D01*
X121613719Y-91220485D01*
X121126082Y-90731996D01*
X120488627Y-90467301D01*
X119798401Y-90466699D01*
X119160485Y-90730281D01*
X118671996Y-91217918D01*
X118407301Y-91855373D01*
X118406699Y-92545599D01*
X117602000Y-92545599D01*
X117602000Y-90297000D01*
X131872560Y-90297000D01*
X131872560Y-91455000D01*
M02*
