G04 #@! TF.FileFunction,Soldermask,Top*
%FSLAX46Y46*%
G04 Gerber Fmt 4.6, Leading zero omitted, Abs format (unit mm)*
G04 Created by KiCad (PCBNEW 4.0.5) date 03/22/17 00:40:04*
%MOMM*%
%LPD*%
G01*
G04 APERTURE LIST*
%ADD10C,0.100000*%
%ADD11R,2.000000X2.000000*%
%ADD12C,2.000000*%
%ADD13R,1.600000X1.600000*%
%ADD14C,1.600000*%
%ADD15R,2.200000X2.200000*%
%ADD16C,2.200000*%
%ADD17R,2.100000X2.100000*%
%ADD18O,2.100000X2.100000*%
%ADD19C,5.400000*%
%ADD20R,1.900000X1.700000*%
%ADD21C,2.020000*%
%ADD22O,2.000000X2.000000*%
%ADD23C,2.600000*%
G04 APERTURE END LIST*
D10*
D11*
X148590000Y-106680000D03*
D12*
X151090000Y-106680000D03*
D13*
X149860000Y-99060000D03*
D14*
X151860000Y-99060000D03*
D15*
X147320000Y-93980000D03*
D16*
X149860000Y-93980000D03*
D17*
X139700000Y-90805000D03*
D18*
X142240000Y-90805000D03*
D12*
X134620000Y-106680000D03*
D11*
X132080000Y-106680000D03*
D12*
X143510000Y-138430000D03*
D11*
X141478000Y-140462000D03*
D19*
X145620000Y-128180000D03*
X125476000Y-138684000D03*
X124620000Y-117680000D03*
D18*
X151130000Y-111760000D03*
D17*
X151130000Y-116840000D03*
D18*
X151130000Y-114300000D03*
D20*
X119300000Y-101600000D03*
X122000000Y-101600000D03*
X128190000Y-90805000D03*
X130890000Y-90805000D03*
D21*
X119380000Y-105490000D03*
X124380000Y-107990000D03*
X119380000Y-110490000D03*
D11*
X125730000Y-101600000D03*
D22*
X143510000Y-93980000D03*
X128270000Y-101600000D03*
X140970000Y-93980000D03*
X130810000Y-101600000D03*
X138430000Y-93980000D03*
X133350000Y-101600000D03*
X135890000Y-93980000D03*
X135890000Y-101600000D03*
X133350000Y-93980000D03*
X138430000Y-101600000D03*
X130810000Y-93980000D03*
X140970000Y-101600000D03*
X128270000Y-93980000D03*
X143510000Y-101600000D03*
X125730000Y-93980000D03*
D23*
X120142000Y-92202000D03*
X150368000Y-144018000D03*
M02*
