G04 #@! TF.FileFunction,Soldermask,Bot*
%FSLAX46Y46*%
G04 Gerber Fmt 4.6, Leading zero omitted, Abs format (unit mm)*
G04 Created by KiCad (PCBNEW 4.0.5) date 02/08/17 01:10:26*
%MOMM*%
%LPD*%
G01*
G04 APERTURE LIST*
%ADD10C,0.100000*%
%ADD11R,1.900000X1.650000*%
%ADD12R,2.000000X2.000000*%
%ADD13C,2.000000*%
%ADD14R,2.127200X2.127200*%
%ADD15O,2.127200X2.127200*%
%ADD16R,2.432000X2.432000*%
%ADD17O,2.432000X2.432000*%
%ADD18R,1.900000X1.700000*%
%ADD19R,1.700000X1.900000*%
%ADD20R,2.900000X1.500000*%
%ADD21O,2.900000X1.500000*%
G04 APERTURE END LIST*
D10*
D11*
X157500000Y-104140000D03*
X160000000Y-104140000D03*
D12*
X158750000Y-101600000D03*
D13*
X161250000Y-101600000D03*
D14*
X147320000Y-106680000D03*
D15*
X147320000Y-109220000D03*
X149860000Y-106680000D03*
X149860000Y-109220000D03*
X152400000Y-106680000D03*
X152400000Y-109220000D03*
X154940000Y-106680000D03*
X154940000Y-109220000D03*
X157480000Y-106680000D03*
X157480000Y-109220000D03*
D16*
X160020000Y-106680000D03*
D17*
X160020000Y-109220000D03*
D18*
X145495000Y-80010000D03*
X142795000Y-80010000D03*
X145495000Y-83820000D03*
X142795000Y-83820000D03*
D19*
X144780000Y-98980000D03*
X144780000Y-101680000D03*
X161925000Y-96440000D03*
X161925000Y-99140000D03*
D18*
X154860000Y-80010000D03*
X157560000Y-80010000D03*
X154860000Y-85090000D03*
X157560000Y-85090000D03*
D19*
X157480000Y-95330000D03*
X157480000Y-92630000D03*
D18*
X154860000Y-82550000D03*
X157560000Y-82550000D03*
X154860000Y-87630000D03*
X157560000Y-87630000D03*
D20*
X145350000Y-80010000D03*
D21*
X145350000Y-82010000D03*
X145350000Y-84010000D03*
X145350000Y-86010000D03*
X145350000Y-88010000D03*
X145350000Y-90010000D03*
X145350000Y-92010000D03*
X145350000Y-94010000D03*
X160750000Y-94010000D03*
X160650000Y-92010000D03*
X160750000Y-90010000D03*
X160750000Y-88010000D03*
X160750000Y-86010000D03*
X160750000Y-84010000D03*
X160750000Y-82010000D03*
X160750000Y-80010000D03*
M02*
