G04 #@! TF.FileFunction,Legend,Bot*
%FSLAX46Y46*%
G04 Gerber Fmt 4.6, Leading zero omitted, Abs format (unit mm)*
G04 Created by KiCad (PCBNEW 4.0.5) date 02/08/17 01:10:26*
%MOMM*%
%LPD*%
G01*
G04 APERTURE LIST*
%ADD10C,0.100000*%
%ADD11C,0.120000*%
%ADD12C,0.150000*%
G04 APERTURE END LIST*
D10*
D11*
X159250000Y-104990000D02*
X158250000Y-104990000D01*
X158250000Y-103290000D02*
X159250000Y-103290000D01*
D12*
X143545000Y-80885000D02*
X144745000Y-80885000D01*
X144745000Y-79135000D02*
X143545000Y-79135000D01*
X143545000Y-84695000D02*
X144745000Y-84695000D01*
X144745000Y-82945000D02*
X143545000Y-82945000D01*
X145655000Y-100930000D02*
X145655000Y-99730000D01*
X143905000Y-99730000D02*
X143905000Y-100930000D01*
X162800000Y-98390000D02*
X162800000Y-97190000D01*
X161050000Y-97190000D02*
X161050000Y-98390000D01*
X156810000Y-79135000D02*
X155610000Y-79135000D01*
X155610000Y-80885000D02*
X156810000Y-80885000D01*
X156810000Y-84215000D02*
X155610000Y-84215000D01*
X155610000Y-85965000D02*
X156810000Y-85965000D01*
X156605000Y-93380000D02*
X156605000Y-94580000D01*
X158355000Y-94580000D02*
X158355000Y-93380000D01*
X156810000Y-81675000D02*
X155610000Y-81675000D01*
X155610000Y-83425000D02*
X156810000Y-83425000D01*
X156810000Y-86755000D02*
X155610000Y-86755000D01*
X155610000Y-88505000D02*
X156810000Y-88505000D01*
X158916666Y-106597143D02*
X158964285Y-106644762D01*
X159107142Y-106692381D01*
X159202380Y-106692381D01*
X159345238Y-106644762D01*
X159440476Y-106549524D01*
X159488095Y-106454286D01*
X159535714Y-106263810D01*
X159535714Y-106120952D01*
X159488095Y-105930476D01*
X159440476Y-105835238D01*
X159345238Y-105740000D01*
X159202380Y-105692381D01*
X159107142Y-105692381D01*
X158964285Y-105740000D01*
X158916666Y-105787619D01*
X157964285Y-106692381D02*
X158535714Y-106692381D01*
X158250000Y-106692381D02*
X158250000Y-105692381D01*
X158345238Y-105835238D01*
X158440476Y-105930476D01*
X158535714Y-105978095D01*
X148121666Y-80462381D02*
X148455000Y-79986190D01*
X148693095Y-80462381D02*
X148693095Y-79462381D01*
X148312142Y-79462381D01*
X148216904Y-79510000D01*
X148169285Y-79557619D01*
X148121666Y-79652857D01*
X148121666Y-79795714D01*
X148169285Y-79890952D01*
X148216904Y-79938571D01*
X148312142Y-79986190D01*
X148693095Y-79986190D01*
X147169285Y-80462381D02*
X147740714Y-80462381D01*
X147455000Y-80462381D02*
X147455000Y-79462381D01*
X147550238Y-79605238D01*
X147645476Y-79700476D01*
X147740714Y-79748095D01*
X148121666Y-84272381D02*
X148455000Y-83796190D01*
X148693095Y-84272381D02*
X148693095Y-83272381D01*
X148312142Y-83272381D01*
X148216904Y-83320000D01*
X148169285Y-83367619D01*
X148121666Y-83462857D01*
X148121666Y-83605714D01*
X148169285Y-83700952D01*
X148216904Y-83748571D01*
X148312142Y-83796190D01*
X148693095Y-83796190D01*
X147740714Y-83367619D02*
X147693095Y-83320000D01*
X147597857Y-83272381D01*
X147359761Y-83272381D01*
X147264523Y-83320000D01*
X147216904Y-83367619D01*
X147169285Y-83462857D01*
X147169285Y-83558095D01*
X147216904Y-83700952D01*
X147788333Y-84272381D01*
X147169285Y-84272381D01*
X143132381Y-100163334D02*
X142656190Y-99830000D01*
X143132381Y-99591905D02*
X142132381Y-99591905D01*
X142132381Y-99972858D01*
X142180000Y-100068096D01*
X142227619Y-100115715D01*
X142322857Y-100163334D01*
X142465714Y-100163334D01*
X142560952Y-100115715D01*
X142608571Y-100068096D01*
X142656190Y-99972858D01*
X142656190Y-99591905D01*
X142132381Y-100496667D02*
X142132381Y-101115715D01*
X142513333Y-100782381D01*
X142513333Y-100925239D01*
X142560952Y-101020477D01*
X142608571Y-101068096D01*
X142703810Y-101115715D01*
X142941905Y-101115715D01*
X143037143Y-101068096D01*
X143084762Y-101020477D01*
X143132381Y-100925239D01*
X143132381Y-100639524D01*
X143084762Y-100544286D01*
X143037143Y-100496667D01*
X160277381Y-97623334D02*
X159801190Y-97290000D01*
X160277381Y-97051905D02*
X159277381Y-97051905D01*
X159277381Y-97432858D01*
X159325000Y-97528096D01*
X159372619Y-97575715D01*
X159467857Y-97623334D01*
X159610714Y-97623334D01*
X159705952Y-97575715D01*
X159753571Y-97528096D01*
X159801190Y-97432858D01*
X159801190Y-97051905D01*
X159610714Y-98480477D02*
X160277381Y-98480477D01*
X159229762Y-98242381D02*
X159944048Y-98004286D01*
X159944048Y-98623334D01*
X152566666Y-80462381D02*
X152900000Y-79986190D01*
X153138095Y-80462381D02*
X153138095Y-79462381D01*
X152757142Y-79462381D01*
X152661904Y-79510000D01*
X152614285Y-79557619D01*
X152566666Y-79652857D01*
X152566666Y-79795714D01*
X152614285Y-79890952D01*
X152661904Y-79938571D01*
X152757142Y-79986190D01*
X153138095Y-79986190D01*
X151661904Y-79462381D02*
X152138095Y-79462381D01*
X152185714Y-79938571D01*
X152138095Y-79890952D01*
X152042857Y-79843333D01*
X151804761Y-79843333D01*
X151709523Y-79890952D01*
X151661904Y-79938571D01*
X151614285Y-80033810D01*
X151614285Y-80271905D01*
X151661904Y-80367143D01*
X151709523Y-80414762D01*
X151804761Y-80462381D01*
X152042857Y-80462381D01*
X152138095Y-80414762D01*
X152185714Y-80367143D01*
X152566666Y-85542381D02*
X152900000Y-85066190D01*
X153138095Y-85542381D02*
X153138095Y-84542381D01*
X152757142Y-84542381D01*
X152661904Y-84590000D01*
X152614285Y-84637619D01*
X152566666Y-84732857D01*
X152566666Y-84875714D01*
X152614285Y-84970952D01*
X152661904Y-85018571D01*
X152757142Y-85066190D01*
X153138095Y-85066190D01*
X151709523Y-84542381D02*
X151900000Y-84542381D01*
X151995238Y-84590000D01*
X152042857Y-84637619D01*
X152138095Y-84780476D01*
X152185714Y-84970952D01*
X152185714Y-85351905D01*
X152138095Y-85447143D01*
X152090476Y-85494762D01*
X151995238Y-85542381D01*
X151804761Y-85542381D01*
X151709523Y-85494762D01*
X151661904Y-85447143D01*
X151614285Y-85351905D01*
X151614285Y-85113810D01*
X151661904Y-85018571D01*
X151709523Y-84970952D01*
X151804761Y-84923333D01*
X151995238Y-84923333D01*
X152090476Y-84970952D01*
X152138095Y-85018571D01*
X152185714Y-85113810D01*
X160032381Y-93813334D02*
X159556190Y-93480000D01*
X160032381Y-93241905D02*
X159032381Y-93241905D01*
X159032381Y-93622858D01*
X159080000Y-93718096D01*
X159127619Y-93765715D01*
X159222857Y-93813334D01*
X159365714Y-93813334D01*
X159460952Y-93765715D01*
X159508571Y-93718096D01*
X159556190Y-93622858D01*
X159556190Y-93241905D01*
X159032381Y-94146667D02*
X159032381Y-94813334D01*
X160032381Y-94384762D01*
X152566666Y-83002381D02*
X152900000Y-82526190D01*
X153138095Y-83002381D02*
X153138095Y-82002381D01*
X152757142Y-82002381D01*
X152661904Y-82050000D01*
X152614285Y-82097619D01*
X152566666Y-82192857D01*
X152566666Y-82335714D01*
X152614285Y-82430952D01*
X152661904Y-82478571D01*
X152757142Y-82526190D01*
X153138095Y-82526190D01*
X151995238Y-82430952D02*
X152090476Y-82383333D01*
X152138095Y-82335714D01*
X152185714Y-82240476D01*
X152185714Y-82192857D01*
X152138095Y-82097619D01*
X152090476Y-82050000D01*
X151995238Y-82002381D01*
X151804761Y-82002381D01*
X151709523Y-82050000D01*
X151661904Y-82097619D01*
X151614285Y-82192857D01*
X151614285Y-82240476D01*
X151661904Y-82335714D01*
X151709523Y-82383333D01*
X151804761Y-82430952D01*
X151995238Y-82430952D01*
X152090476Y-82478571D01*
X152138095Y-82526190D01*
X152185714Y-82621429D01*
X152185714Y-82811905D01*
X152138095Y-82907143D01*
X152090476Y-82954762D01*
X151995238Y-83002381D01*
X151804761Y-83002381D01*
X151709523Y-82954762D01*
X151661904Y-82907143D01*
X151614285Y-82811905D01*
X151614285Y-82621429D01*
X151661904Y-82526190D01*
X151709523Y-82478571D01*
X151804761Y-82430952D01*
X152566666Y-88082381D02*
X152900000Y-87606190D01*
X153138095Y-88082381D02*
X153138095Y-87082381D01*
X152757142Y-87082381D01*
X152661904Y-87130000D01*
X152614285Y-87177619D01*
X152566666Y-87272857D01*
X152566666Y-87415714D01*
X152614285Y-87510952D01*
X152661904Y-87558571D01*
X152757142Y-87606190D01*
X153138095Y-87606190D01*
X152090476Y-88082381D02*
X151900000Y-88082381D01*
X151804761Y-88034762D01*
X151757142Y-87987143D01*
X151661904Y-87844286D01*
X151614285Y-87653810D01*
X151614285Y-87272857D01*
X151661904Y-87177619D01*
X151709523Y-87130000D01*
X151804761Y-87082381D01*
X151995238Y-87082381D01*
X152090476Y-87130000D01*
X152138095Y-87177619D01*
X152185714Y-87272857D01*
X152185714Y-87510952D01*
X152138095Y-87606190D01*
X152090476Y-87653810D01*
X151995238Y-87701429D01*
X151804761Y-87701429D01*
X151709523Y-87653810D01*
X151661904Y-87606190D01*
X151614285Y-87510952D01*
M02*
