M48
;DRILL file {KiCad 4.0.5} date 02/08/17 01:12:09
;FORMAT={-:-/ absolute / metric / decimal}
FMAT,2
METRIC,TZ
T1C0.500
T2C0.650
T3C0.800
T4C1.016
%
G90
G05
M71
T1
X142.875Y-84.455
T2
X146.05Y-80.01
X146.05Y-82.01
X146.05Y-84.01
X146.05Y-86.01
X146.05Y-88.01
X146.05Y-90.01
X146.05Y-92.01
X146.05Y-94.01
X160.05Y-80.01
X160.05Y-82.01
X160.05Y-84.01
X160.05Y-86.01
X160.05Y-88.01
X160.05Y-90.01
X160.05Y-92.01
X160.05Y-94.01
T3
X158.75Y-101.6
X161.25Y-101.6
T4
X147.32Y-106.68
X147.32Y-109.22
X149.86Y-106.68
X149.86Y-109.22
X152.4Y-106.68
X152.4Y-109.22
X154.94Y-106.68
X154.94Y-109.22
X157.48Y-106.68
X157.48Y-109.22
X160.02Y-106.68
X160.02Y-109.22
T0
M30
