G04 #@! TF.FileFunction,Legend,Top*
%FSLAX46Y46*%
G04 Gerber Fmt 4.6, Leading zero omitted, Abs format (unit mm)*
G04 Created by KiCad (PCBNEW 4.0.5) date 02/08/17 01:10:26*
%MOMM*%
%LPD*%
G01*
G04 APERTURE LIST*
%ADD10C,0.100000*%
%ADD11C,0.120000*%
%ADD12C,0.150000*%
%ADD13C,0.152400*%
G04 APERTURE END LIST*
D10*
D11*
X163088440Y-100620643D02*
G75*
G03X156911764Y-100620000I-3088440J-979357D01*
G01*
X163088440Y-102579357D02*
G75*
G02X156911764Y-102580000I-3088440J979357D01*
G01*
X163088440Y-102579357D02*
G75*
G03X163088236Y-100620000I-3088440J979357D01*
G01*
X160000000Y-98400000D02*
X160000000Y-104800000D01*
X160040000Y-98400000D02*
X160040000Y-104800000D01*
X160080000Y-98400000D02*
X160080000Y-104800000D01*
X160120000Y-98402000D02*
X160120000Y-104798000D01*
X160160000Y-98403000D02*
X160160000Y-104797000D01*
X160200000Y-98406000D02*
X160200000Y-104794000D01*
X160240000Y-98408000D02*
X160240000Y-104792000D01*
X160280000Y-98412000D02*
X160280000Y-100620000D01*
X160280000Y-102580000D02*
X160280000Y-104788000D01*
X160320000Y-98415000D02*
X160320000Y-100620000D01*
X160320000Y-102580000D02*
X160320000Y-104785000D01*
X160360000Y-98420000D02*
X160360000Y-100620000D01*
X160360000Y-102580000D02*
X160360000Y-104780000D01*
X160400000Y-98424000D02*
X160400000Y-100620000D01*
X160400000Y-102580000D02*
X160400000Y-104776000D01*
X160440000Y-98430000D02*
X160440000Y-100620000D01*
X160440000Y-102580000D02*
X160440000Y-104770000D01*
X160480000Y-98435000D02*
X160480000Y-100620000D01*
X160480000Y-102580000D02*
X160480000Y-104765000D01*
X160520000Y-98442000D02*
X160520000Y-100620000D01*
X160520000Y-102580000D02*
X160520000Y-104758000D01*
X160560000Y-98448000D02*
X160560000Y-100620000D01*
X160560000Y-102580000D02*
X160560000Y-104752000D01*
X160600000Y-98456000D02*
X160600000Y-100620000D01*
X160600000Y-102580000D02*
X160600000Y-104744000D01*
X160640000Y-98463000D02*
X160640000Y-100620000D01*
X160640000Y-102580000D02*
X160640000Y-104737000D01*
X160680000Y-98472000D02*
X160680000Y-100620000D01*
X160680000Y-102580000D02*
X160680000Y-104728000D01*
X160721000Y-98481000D02*
X160721000Y-100620000D01*
X160721000Y-102580000D02*
X160721000Y-104719000D01*
X160761000Y-98490000D02*
X160761000Y-100620000D01*
X160761000Y-102580000D02*
X160761000Y-104710000D01*
X160801000Y-98500000D02*
X160801000Y-100620000D01*
X160801000Y-102580000D02*
X160801000Y-104700000D01*
X160841000Y-98510000D02*
X160841000Y-100620000D01*
X160841000Y-102580000D02*
X160841000Y-104690000D01*
X160881000Y-98521000D02*
X160881000Y-100620000D01*
X160881000Y-102580000D02*
X160881000Y-104679000D01*
X160921000Y-98533000D02*
X160921000Y-100620000D01*
X160921000Y-102580000D02*
X160921000Y-104667000D01*
X160961000Y-98545000D02*
X160961000Y-100620000D01*
X160961000Y-102580000D02*
X160961000Y-104655000D01*
X161001000Y-98558000D02*
X161001000Y-100620000D01*
X161001000Y-102580000D02*
X161001000Y-104642000D01*
X161041000Y-98571000D02*
X161041000Y-100620000D01*
X161041000Y-102580000D02*
X161041000Y-104629000D01*
X161081000Y-98585000D02*
X161081000Y-100620000D01*
X161081000Y-102580000D02*
X161081000Y-104615000D01*
X161121000Y-98599000D02*
X161121000Y-100620000D01*
X161121000Y-102580000D02*
X161121000Y-104601000D01*
X161161000Y-98614000D02*
X161161000Y-100620000D01*
X161161000Y-102580000D02*
X161161000Y-104586000D01*
X161201000Y-98630000D02*
X161201000Y-100620000D01*
X161201000Y-102580000D02*
X161201000Y-104570000D01*
X161241000Y-98646000D02*
X161241000Y-100620000D01*
X161241000Y-102580000D02*
X161241000Y-104554000D01*
X161281000Y-98663000D02*
X161281000Y-100620000D01*
X161281000Y-102580000D02*
X161281000Y-104537000D01*
X161321000Y-98681000D02*
X161321000Y-100620000D01*
X161321000Y-102580000D02*
X161321000Y-104519000D01*
X161361000Y-98699000D02*
X161361000Y-100620000D01*
X161361000Y-102580000D02*
X161361000Y-104501000D01*
X161401000Y-98718000D02*
X161401000Y-100620000D01*
X161401000Y-102580000D02*
X161401000Y-104482000D01*
X161441000Y-98737000D02*
X161441000Y-100620000D01*
X161441000Y-102580000D02*
X161441000Y-104463000D01*
X161481000Y-98757000D02*
X161481000Y-100620000D01*
X161481000Y-102580000D02*
X161481000Y-104443000D01*
X161521000Y-98778000D02*
X161521000Y-100620000D01*
X161521000Y-102580000D02*
X161521000Y-104422000D01*
X161561000Y-98800000D02*
X161561000Y-100620000D01*
X161561000Y-102580000D02*
X161561000Y-104400000D01*
X161601000Y-98822000D02*
X161601000Y-100620000D01*
X161601000Y-102580000D02*
X161601000Y-104378000D01*
X161641000Y-98845000D02*
X161641000Y-100620000D01*
X161641000Y-102580000D02*
X161641000Y-104355000D01*
X161681000Y-98869000D02*
X161681000Y-100620000D01*
X161681000Y-102580000D02*
X161681000Y-104331000D01*
X161721000Y-98894000D02*
X161721000Y-100620000D01*
X161721000Y-102580000D02*
X161721000Y-104306000D01*
X161761000Y-98919000D02*
X161761000Y-100620000D01*
X161761000Y-102580000D02*
X161761000Y-104281000D01*
X161801000Y-98946000D02*
X161801000Y-100620000D01*
X161801000Y-102580000D02*
X161801000Y-104254000D01*
X161841000Y-98973000D02*
X161841000Y-100620000D01*
X161841000Y-102580000D02*
X161841000Y-104227000D01*
X161881000Y-99001000D02*
X161881000Y-100620000D01*
X161881000Y-102580000D02*
X161881000Y-104199000D01*
X161921000Y-99030000D02*
X161921000Y-100620000D01*
X161921000Y-102580000D02*
X161921000Y-104170000D01*
X161961000Y-99060000D02*
X161961000Y-100620000D01*
X161961000Y-102580000D02*
X161961000Y-104140000D01*
X162001000Y-99090000D02*
X162001000Y-100620000D01*
X162001000Y-102580000D02*
X162001000Y-104110000D01*
X162041000Y-99122000D02*
X162041000Y-100620000D01*
X162041000Y-102580000D02*
X162041000Y-104078000D01*
X162081000Y-99155000D02*
X162081000Y-100620000D01*
X162081000Y-102580000D02*
X162081000Y-104045000D01*
X162121000Y-99189000D02*
X162121000Y-100620000D01*
X162121000Y-102580000D02*
X162121000Y-104011000D01*
X162161000Y-99225000D02*
X162161000Y-100620000D01*
X162161000Y-102580000D02*
X162161000Y-103975000D01*
X162201000Y-99261000D02*
X162201000Y-100620000D01*
X162201000Y-102580000D02*
X162201000Y-103939000D01*
X162241000Y-99299000D02*
X162241000Y-103901000D01*
X162281000Y-99338000D02*
X162281000Y-103862000D01*
X162321000Y-99378000D02*
X162321000Y-103822000D01*
X162361000Y-99420000D02*
X162361000Y-103780000D01*
X162401000Y-99463000D02*
X162401000Y-103737000D01*
X162441000Y-99508000D02*
X162441000Y-103692000D01*
X162481000Y-99555000D02*
X162481000Y-103645000D01*
X162521000Y-99603000D02*
X162521000Y-103597000D01*
X162561000Y-99654000D02*
X162561000Y-103546000D01*
X162601000Y-99706000D02*
X162601000Y-103494000D01*
X162641000Y-99761000D02*
X162641000Y-103439000D01*
X162681000Y-99819000D02*
X162681000Y-103381000D01*
X162721000Y-99879000D02*
X162721000Y-103321000D01*
X162761000Y-99942000D02*
X162761000Y-103258000D01*
X162801000Y-100009000D02*
X162801000Y-103191000D01*
X162841000Y-100080000D02*
X162841000Y-103120000D01*
X162881000Y-100155000D02*
X162881000Y-103045000D01*
X162921000Y-100236000D02*
X162921000Y-102964000D01*
X162961000Y-100322000D02*
X162961000Y-102878000D01*
X163001000Y-100416000D02*
X163001000Y-102784000D01*
X163041000Y-100519000D02*
X163041000Y-102681000D01*
X163081000Y-100634000D02*
X163081000Y-102566000D01*
X163121000Y-100766000D02*
X163121000Y-102434000D01*
X163161000Y-100924000D02*
X163161000Y-102276000D01*
X163201000Y-101132000D02*
X163201000Y-102068000D01*
X156550000Y-101600000D02*
X157750000Y-101600000D01*
X157150000Y-100950000D02*
X157150000Y-102250000D01*
D12*
X158750000Y-110490000D02*
X158750000Y-119320000D01*
X156210000Y-110490000D02*
X158750000Y-110490000D01*
X156210000Y-119320000D02*
X158750000Y-119320000D01*
X158750000Y-119320000D02*
X158750000Y-110490000D01*
X156210000Y-119320000D02*
X156210000Y-110490000D01*
X153670000Y-119320000D02*
X156210000Y-119320000D01*
X153670000Y-110490000D02*
X156210000Y-110490000D01*
X156210000Y-110490000D02*
X156210000Y-119320000D01*
X153670000Y-110490000D02*
X153670000Y-119320000D01*
X151130000Y-110490000D02*
X153670000Y-110490000D01*
X151130000Y-119320000D02*
X153670000Y-119320000D01*
X153670000Y-119320000D02*
X153670000Y-110490000D01*
X151130000Y-119320000D02*
X151130000Y-110490000D01*
X148590000Y-119320000D02*
X151130000Y-119320000D01*
X148590000Y-110490000D02*
X151130000Y-110490000D01*
X151130000Y-110490000D02*
X151130000Y-119320000D01*
X148590000Y-110490000D02*
X148590000Y-119320000D01*
X146050000Y-110490000D02*
X148590000Y-110490000D01*
X147320000Y-105530000D02*
X145770000Y-105530000D01*
X145770000Y-105530000D02*
X145770000Y-106680000D01*
X146050000Y-110490000D02*
X146050000Y-119320000D01*
X146050000Y-119320000D02*
X148590000Y-119320000D01*
X148590000Y-119320000D02*
X148590000Y-110490000D01*
X158470000Y-105130000D02*
X158470000Y-106680000D01*
X158750000Y-110490000D02*
X158750000Y-107950000D01*
X158750000Y-107950000D02*
X161290000Y-107950000D01*
X161570000Y-106680000D02*
X161570000Y-105130000D01*
X161570000Y-105130000D02*
X158470000Y-105130000D01*
X161290000Y-107950000D02*
X161290000Y-110490000D01*
X161290000Y-110490000D02*
X158750000Y-110490000D01*
D13*
X145034000Y-94869000D02*
X145034000Y-95631000D01*
X145034000Y-95631000D02*
X161036000Y-95631000D01*
X161036000Y-95631000D02*
X161036000Y-94869000D01*
D12*
X157313334Y-98782143D02*
X157265715Y-98829762D01*
X157122858Y-98877381D01*
X157027620Y-98877381D01*
X156884762Y-98829762D01*
X156789524Y-98734524D01*
X156741905Y-98639286D01*
X156694286Y-98448810D01*
X156694286Y-98305952D01*
X156741905Y-98115476D01*
X156789524Y-98020238D01*
X156884762Y-97925000D01*
X157027620Y-97877381D01*
X157122858Y-97877381D01*
X157265715Y-97925000D01*
X157313334Y-97972619D01*
X157694286Y-97972619D02*
X157741905Y-97925000D01*
X157837143Y-97877381D01*
X158075239Y-97877381D01*
X158170477Y-97925000D01*
X158218096Y-97972619D01*
X158265715Y-98067857D01*
X158265715Y-98163095D01*
X158218096Y-98305952D01*
X157646667Y-98877381D01*
X158265715Y-98877381D01*
X146581905Y-102532381D02*
X146581905Y-101532381D01*
X146962858Y-101532381D01*
X147058096Y-101580000D01*
X147105715Y-101627619D01*
X147153334Y-101722857D01*
X147153334Y-101865714D01*
X147105715Y-101960952D01*
X147058096Y-102008571D01*
X146962858Y-102056190D01*
X146581905Y-102056190D01*
X148105715Y-102532381D02*
X147534286Y-102532381D01*
X147820000Y-102532381D02*
X147820000Y-101532381D01*
X147724762Y-101675238D01*
X147629524Y-101770476D01*
X147534286Y-101818095D01*
X163012381Y-108053095D02*
X162012381Y-108053095D01*
X162012381Y-107672142D01*
X162060000Y-107576904D01*
X162107619Y-107529285D01*
X162202857Y-107481666D01*
X162345714Y-107481666D01*
X162440952Y-107529285D01*
X162488571Y-107576904D01*
X162536190Y-107672142D01*
X162536190Y-108053095D01*
X162107619Y-107100714D02*
X162060000Y-107053095D01*
X162012381Y-106957857D01*
X162012381Y-106719761D01*
X162060000Y-106624523D01*
X162107619Y-106576904D01*
X162202857Y-106529285D01*
X162298095Y-106529285D01*
X162440952Y-106576904D01*
X163012381Y-107148333D01*
X163012381Y-106529285D01*
X149733095Y-78827381D02*
X149733095Y-79636905D01*
X149780714Y-79732143D01*
X149828333Y-79779762D01*
X149923571Y-79827381D01*
X150114048Y-79827381D01*
X150209286Y-79779762D01*
X150256905Y-79732143D01*
X150304524Y-79636905D01*
X150304524Y-78827381D01*
X151304524Y-79827381D02*
X150733095Y-79827381D01*
X151018809Y-79827381D02*
X151018809Y-78827381D01*
X150923571Y-78970238D01*
X150828333Y-79065476D01*
X150733095Y-79113095D01*
M02*
