G04 #@! TF.FileFunction,Soldermask,Top*
%FSLAX46Y46*%
G04 Gerber Fmt 4.6, Leading zero omitted, Abs format (unit mm)*
G04 Created by KiCad (PCBNEW 4.0.5) date 04/19/18 13:19:11*
%MOMM*%
%LPD*%
G01*
G04 APERTURE LIST*
%ADD10C,0.100000*%
%ADD11R,2.000000X2.000000*%
%ADD12C,2.000000*%
%ADD13R,2.200000X2.200000*%
%ADD14C,2.200000*%
%ADD15R,2.100000X2.100000*%
%ADD16O,2.100000X2.100000*%
%ADD17C,2.400000*%
%ADD18R,2.300000X1.200000*%
%ADD19R,1.050000X1.960000*%
%ADD20C,2.600000*%
G04 APERTURE END LIST*
D10*
D11*
X147574000Y-119126000D03*
D12*
X145074000Y-119126000D03*
D11*
X142494000Y-110490000D03*
D12*
X139994000Y-110490000D03*
D13*
X150368000Y-114681000D03*
D14*
X152908000Y-114681000D03*
D15*
X135128000Y-124206000D03*
D16*
X135128000Y-126746000D03*
D15*
X154940000Y-111760000D03*
D16*
X154940000Y-109220000D03*
X157480000Y-111760000D03*
X157480000Y-109220000D03*
X160020000Y-111760000D03*
X160020000Y-109220000D03*
X162560000Y-111760000D03*
X162560000Y-109220000D03*
X165100000Y-111760000D03*
X165100000Y-109220000D03*
D15*
X172720000Y-99060000D03*
D16*
X172720000Y-96520000D03*
X172720000Y-93980000D03*
X135128000Y-111760000D03*
D15*
X135128000Y-106680000D03*
D16*
X135128000Y-109220000D03*
D15*
X118872000Y-100330000D03*
D16*
X121412000Y-100330000D03*
D17*
X117348000Y-119816000D03*
X117348000Y-115316000D03*
X123848000Y-119816000D03*
X123848000Y-115316000D03*
X128016000Y-119816000D03*
X128016000Y-115316000D03*
X134516000Y-119816000D03*
X134516000Y-115316000D03*
D18*
X142470000Y-128204000D03*
X142470000Y-126304000D03*
X139470000Y-127254000D03*
D19*
X139004000Y-124286000D03*
X139954000Y-124286000D03*
X140904000Y-124286000D03*
X140904000Y-121586000D03*
X139004000Y-121586000D03*
D20*
X147320000Y-74168000D03*
X147320000Y-126492000D03*
D15*
X169418000Y-116078000D03*
D16*
X169418000Y-118618000D03*
X166878000Y-116078000D03*
X166878000Y-118618000D03*
X164338000Y-116078000D03*
X164338000Y-118618000D03*
X161798000Y-116078000D03*
X161798000Y-118618000D03*
X159258000Y-116078000D03*
X159258000Y-118618000D03*
M02*
