G04 #@! TF.FileFunction,Legend,Top*
%FSLAX46Y46*%
G04 Gerber Fmt 4.6, Leading zero omitted, Abs format (unit mm)*
G04 Created by KiCad (PCBNEW 4.0.5) date 04/19/18 13:19:11*
%MOMM*%
%LPD*%
G01*
G04 APERTURE LIST*
%ADD10C,0.100000*%
%ADD11C,0.120000*%
%ADD12C,0.150000*%
G04 APERTURE END LIST*
D10*
D11*
X150414000Y-119126000D02*
G75*
G03X150414000Y-119126000I-4090000J0D01*
G01*
X146324000Y-123176000D02*
X146324000Y-115076000D01*
X146284000Y-123176000D02*
X146284000Y-115076000D01*
X146244000Y-123176000D02*
X146244000Y-115076000D01*
X146204000Y-123175000D02*
X146204000Y-115077000D01*
X146164000Y-123173000D02*
X146164000Y-115079000D01*
X146124000Y-123172000D02*
X146124000Y-115080000D01*
X146084000Y-123169000D02*
X146084000Y-115083000D01*
X146044000Y-123167000D02*
X146044000Y-120106000D01*
X146044000Y-118146000D02*
X146044000Y-115085000D01*
X146004000Y-123164000D02*
X146004000Y-120106000D01*
X146004000Y-118146000D02*
X146004000Y-115088000D01*
X145964000Y-123161000D02*
X145964000Y-120106000D01*
X145964000Y-118146000D02*
X145964000Y-115091000D01*
X145924000Y-123157000D02*
X145924000Y-120106000D01*
X145924000Y-118146000D02*
X145924000Y-115095000D01*
X145884000Y-123153000D02*
X145884000Y-120106000D01*
X145884000Y-118146000D02*
X145884000Y-115099000D01*
X145844000Y-123148000D02*
X145844000Y-120106000D01*
X145844000Y-118146000D02*
X145844000Y-115104000D01*
X145804000Y-123143000D02*
X145804000Y-120106000D01*
X145804000Y-118146000D02*
X145804000Y-115109000D01*
X145764000Y-123138000D02*
X145764000Y-120106000D01*
X145764000Y-118146000D02*
X145764000Y-115114000D01*
X145724000Y-123132000D02*
X145724000Y-120106000D01*
X145724000Y-118146000D02*
X145724000Y-115120000D01*
X145684000Y-123126000D02*
X145684000Y-120106000D01*
X145684000Y-118146000D02*
X145684000Y-115126000D01*
X145644000Y-123120000D02*
X145644000Y-120106000D01*
X145644000Y-118146000D02*
X145644000Y-115132000D01*
X145603000Y-123113000D02*
X145603000Y-120106000D01*
X145603000Y-118146000D02*
X145603000Y-115139000D01*
X145563000Y-123105000D02*
X145563000Y-120106000D01*
X145563000Y-118146000D02*
X145563000Y-115147000D01*
X145523000Y-123097000D02*
X145523000Y-120106000D01*
X145523000Y-118146000D02*
X145523000Y-115155000D01*
X145483000Y-123089000D02*
X145483000Y-120106000D01*
X145483000Y-118146000D02*
X145483000Y-115163000D01*
X145443000Y-123081000D02*
X145443000Y-120106000D01*
X145443000Y-118146000D02*
X145443000Y-115171000D01*
X145403000Y-123072000D02*
X145403000Y-120106000D01*
X145403000Y-118146000D02*
X145403000Y-115180000D01*
X145363000Y-123062000D02*
X145363000Y-120106000D01*
X145363000Y-118146000D02*
X145363000Y-115190000D01*
X145323000Y-123052000D02*
X145323000Y-120106000D01*
X145323000Y-118146000D02*
X145323000Y-115200000D01*
X145283000Y-123042000D02*
X145283000Y-120106000D01*
X145283000Y-118146000D02*
X145283000Y-115210000D01*
X145243000Y-123031000D02*
X145243000Y-120106000D01*
X145243000Y-118146000D02*
X145243000Y-115221000D01*
X145203000Y-123020000D02*
X145203000Y-120106000D01*
X145203000Y-118146000D02*
X145203000Y-115232000D01*
X145163000Y-123009000D02*
X145163000Y-120106000D01*
X145163000Y-118146000D02*
X145163000Y-115243000D01*
X145123000Y-122996000D02*
X145123000Y-120106000D01*
X145123000Y-118146000D02*
X145123000Y-115256000D01*
X145083000Y-122984000D02*
X145083000Y-120106000D01*
X145083000Y-118146000D02*
X145083000Y-115268000D01*
X145043000Y-122971000D02*
X145043000Y-120106000D01*
X145043000Y-118146000D02*
X145043000Y-115281000D01*
X145003000Y-122958000D02*
X145003000Y-120106000D01*
X145003000Y-118146000D02*
X145003000Y-115294000D01*
X144963000Y-122944000D02*
X144963000Y-120106000D01*
X144963000Y-118146000D02*
X144963000Y-115308000D01*
X144923000Y-122929000D02*
X144923000Y-120106000D01*
X144923000Y-118146000D02*
X144923000Y-115323000D01*
X144883000Y-122915000D02*
X144883000Y-120106000D01*
X144883000Y-118146000D02*
X144883000Y-115337000D01*
X144843000Y-122899000D02*
X144843000Y-120106000D01*
X144843000Y-118146000D02*
X144843000Y-115353000D01*
X144803000Y-122884000D02*
X144803000Y-120106000D01*
X144803000Y-118146000D02*
X144803000Y-115368000D01*
X144763000Y-122867000D02*
X144763000Y-120106000D01*
X144763000Y-118146000D02*
X144763000Y-115385000D01*
X144723000Y-122851000D02*
X144723000Y-120106000D01*
X144723000Y-118146000D02*
X144723000Y-115401000D01*
X144683000Y-122833000D02*
X144683000Y-120106000D01*
X144683000Y-118146000D02*
X144683000Y-115419000D01*
X144643000Y-122816000D02*
X144643000Y-120106000D01*
X144643000Y-118146000D02*
X144643000Y-115436000D01*
X144603000Y-122797000D02*
X144603000Y-120106000D01*
X144603000Y-118146000D02*
X144603000Y-115455000D01*
X144563000Y-122778000D02*
X144563000Y-120106000D01*
X144563000Y-118146000D02*
X144563000Y-115474000D01*
X144523000Y-122759000D02*
X144523000Y-120106000D01*
X144523000Y-118146000D02*
X144523000Y-115493000D01*
X144483000Y-122739000D02*
X144483000Y-120106000D01*
X144483000Y-118146000D02*
X144483000Y-115513000D01*
X144443000Y-122719000D02*
X144443000Y-120106000D01*
X144443000Y-118146000D02*
X144443000Y-115533000D01*
X144403000Y-122698000D02*
X144403000Y-120106000D01*
X144403000Y-118146000D02*
X144403000Y-115554000D01*
X144363000Y-122676000D02*
X144363000Y-120106000D01*
X144363000Y-118146000D02*
X144363000Y-115576000D01*
X144323000Y-122654000D02*
X144323000Y-120106000D01*
X144323000Y-118146000D02*
X144323000Y-115598000D01*
X144283000Y-122631000D02*
X144283000Y-120106000D01*
X144283000Y-118146000D02*
X144283000Y-115621000D01*
X144243000Y-122608000D02*
X144243000Y-120106000D01*
X144243000Y-118146000D02*
X144243000Y-115644000D01*
X144203000Y-122584000D02*
X144203000Y-120106000D01*
X144203000Y-118146000D02*
X144203000Y-115668000D01*
X144163000Y-122560000D02*
X144163000Y-120106000D01*
X144163000Y-118146000D02*
X144163000Y-115692000D01*
X144123000Y-122534000D02*
X144123000Y-120106000D01*
X144123000Y-118146000D02*
X144123000Y-115718000D01*
X144083000Y-122509000D02*
X144083000Y-115743000D01*
X144043000Y-122482000D02*
X144043000Y-115770000D01*
X144003000Y-122455000D02*
X144003000Y-115797000D01*
X143963000Y-122427000D02*
X143963000Y-115825000D01*
X143923000Y-122398000D02*
X143923000Y-115854000D01*
X143883000Y-122369000D02*
X143883000Y-115883000D01*
X143843000Y-122339000D02*
X143843000Y-115913000D01*
X143803000Y-122308000D02*
X143803000Y-115944000D01*
X143763000Y-122276000D02*
X143763000Y-115976000D01*
X143723000Y-122244000D02*
X143723000Y-116008000D01*
X143683000Y-122210000D02*
X143683000Y-116042000D01*
X143643000Y-122176000D02*
X143643000Y-116076000D01*
X143603000Y-122141000D02*
X143603000Y-116111000D01*
X143563000Y-122105000D02*
X143563000Y-116147000D01*
X143523000Y-122068000D02*
X143523000Y-116184000D01*
X143483000Y-122030000D02*
X143483000Y-116222000D01*
X143443000Y-121991000D02*
X143443000Y-116261000D01*
X143403000Y-121950000D02*
X143403000Y-116302000D01*
X143363000Y-121909000D02*
X143363000Y-116343000D01*
X143323000Y-121866000D02*
X143323000Y-116386000D01*
X143283000Y-121823000D02*
X143283000Y-116429000D01*
X143243000Y-121778000D02*
X143243000Y-116474000D01*
X143203000Y-121731000D02*
X143203000Y-116521000D01*
X143163000Y-121683000D02*
X143163000Y-116569000D01*
X143123000Y-121634000D02*
X143123000Y-116618000D01*
X143083000Y-121583000D02*
X143083000Y-116669000D01*
X143043000Y-121530000D02*
X143043000Y-116722000D01*
X143003000Y-121475000D02*
X143003000Y-116777000D01*
X142963000Y-121419000D02*
X142963000Y-116833000D01*
X142923000Y-121360000D02*
X142923000Y-116892000D01*
X142883000Y-121299000D02*
X142883000Y-116953000D01*
X142843000Y-121235000D02*
X142843000Y-117017000D01*
X142803000Y-121169000D02*
X142803000Y-117083000D01*
X142763000Y-121100000D02*
X142763000Y-117152000D01*
X142723000Y-121028000D02*
X142723000Y-117224000D01*
X142683000Y-120952000D02*
X142683000Y-117300000D01*
X142643000Y-120871000D02*
X142643000Y-117381000D01*
X142603000Y-120786000D02*
X142603000Y-117466000D01*
X142563000Y-120696000D02*
X142563000Y-117556000D01*
X142523000Y-120599000D02*
X142523000Y-117653000D01*
X142483000Y-120495000D02*
X142483000Y-117757000D01*
X142443000Y-120380000D02*
X142443000Y-117872000D01*
X142403000Y-120253000D02*
X142403000Y-117999000D01*
X142363000Y-120109000D02*
X142363000Y-118143000D01*
X142323000Y-119940000D02*
X142323000Y-118312000D01*
X142283000Y-119724000D02*
X142283000Y-118528000D01*
X142243000Y-119372000D02*
X142243000Y-118880000D01*
X149774000Y-119126000D02*
X148574000Y-119126000D01*
X149174000Y-119776000D02*
X149174000Y-118476000D01*
X145334000Y-110490000D02*
G75*
G03X145334000Y-110490000I-4090000J0D01*
G01*
X141244000Y-114540000D02*
X141244000Y-106440000D01*
X141204000Y-114540000D02*
X141204000Y-106440000D01*
X141164000Y-114540000D02*
X141164000Y-106440000D01*
X141124000Y-114539000D02*
X141124000Y-106441000D01*
X141084000Y-114537000D02*
X141084000Y-106443000D01*
X141044000Y-114536000D02*
X141044000Y-106444000D01*
X141004000Y-114533000D02*
X141004000Y-106447000D01*
X140964000Y-114531000D02*
X140964000Y-111470000D01*
X140964000Y-109510000D02*
X140964000Y-106449000D01*
X140924000Y-114528000D02*
X140924000Y-111470000D01*
X140924000Y-109510000D02*
X140924000Y-106452000D01*
X140884000Y-114525000D02*
X140884000Y-111470000D01*
X140884000Y-109510000D02*
X140884000Y-106455000D01*
X140844000Y-114521000D02*
X140844000Y-111470000D01*
X140844000Y-109510000D02*
X140844000Y-106459000D01*
X140804000Y-114517000D02*
X140804000Y-111470000D01*
X140804000Y-109510000D02*
X140804000Y-106463000D01*
X140764000Y-114512000D02*
X140764000Y-111470000D01*
X140764000Y-109510000D02*
X140764000Y-106468000D01*
X140724000Y-114507000D02*
X140724000Y-111470000D01*
X140724000Y-109510000D02*
X140724000Y-106473000D01*
X140684000Y-114502000D02*
X140684000Y-111470000D01*
X140684000Y-109510000D02*
X140684000Y-106478000D01*
X140644000Y-114496000D02*
X140644000Y-111470000D01*
X140644000Y-109510000D02*
X140644000Y-106484000D01*
X140604000Y-114490000D02*
X140604000Y-111470000D01*
X140604000Y-109510000D02*
X140604000Y-106490000D01*
X140564000Y-114484000D02*
X140564000Y-111470000D01*
X140564000Y-109510000D02*
X140564000Y-106496000D01*
X140523000Y-114477000D02*
X140523000Y-111470000D01*
X140523000Y-109510000D02*
X140523000Y-106503000D01*
X140483000Y-114469000D02*
X140483000Y-111470000D01*
X140483000Y-109510000D02*
X140483000Y-106511000D01*
X140443000Y-114461000D02*
X140443000Y-111470000D01*
X140443000Y-109510000D02*
X140443000Y-106519000D01*
X140403000Y-114453000D02*
X140403000Y-111470000D01*
X140403000Y-109510000D02*
X140403000Y-106527000D01*
X140363000Y-114445000D02*
X140363000Y-111470000D01*
X140363000Y-109510000D02*
X140363000Y-106535000D01*
X140323000Y-114436000D02*
X140323000Y-111470000D01*
X140323000Y-109510000D02*
X140323000Y-106544000D01*
X140283000Y-114426000D02*
X140283000Y-111470000D01*
X140283000Y-109510000D02*
X140283000Y-106554000D01*
X140243000Y-114416000D02*
X140243000Y-111470000D01*
X140243000Y-109510000D02*
X140243000Y-106564000D01*
X140203000Y-114406000D02*
X140203000Y-111470000D01*
X140203000Y-109510000D02*
X140203000Y-106574000D01*
X140163000Y-114395000D02*
X140163000Y-111470000D01*
X140163000Y-109510000D02*
X140163000Y-106585000D01*
X140123000Y-114384000D02*
X140123000Y-111470000D01*
X140123000Y-109510000D02*
X140123000Y-106596000D01*
X140083000Y-114373000D02*
X140083000Y-111470000D01*
X140083000Y-109510000D02*
X140083000Y-106607000D01*
X140043000Y-114360000D02*
X140043000Y-111470000D01*
X140043000Y-109510000D02*
X140043000Y-106620000D01*
X140003000Y-114348000D02*
X140003000Y-111470000D01*
X140003000Y-109510000D02*
X140003000Y-106632000D01*
X139963000Y-114335000D02*
X139963000Y-111470000D01*
X139963000Y-109510000D02*
X139963000Y-106645000D01*
X139923000Y-114322000D02*
X139923000Y-111470000D01*
X139923000Y-109510000D02*
X139923000Y-106658000D01*
X139883000Y-114308000D02*
X139883000Y-111470000D01*
X139883000Y-109510000D02*
X139883000Y-106672000D01*
X139843000Y-114293000D02*
X139843000Y-111470000D01*
X139843000Y-109510000D02*
X139843000Y-106687000D01*
X139803000Y-114279000D02*
X139803000Y-111470000D01*
X139803000Y-109510000D02*
X139803000Y-106701000D01*
X139763000Y-114263000D02*
X139763000Y-111470000D01*
X139763000Y-109510000D02*
X139763000Y-106717000D01*
X139723000Y-114248000D02*
X139723000Y-111470000D01*
X139723000Y-109510000D02*
X139723000Y-106732000D01*
X139683000Y-114231000D02*
X139683000Y-111470000D01*
X139683000Y-109510000D02*
X139683000Y-106749000D01*
X139643000Y-114215000D02*
X139643000Y-111470000D01*
X139643000Y-109510000D02*
X139643000Y-106765000D01*
X139603000Y-114197000D02*
X139603000Y-111470000D01*
X139603000Y-109510000D02*
X139603000Y-106783000D01*
X139563000Y-114180000D02*
X139563000Y-111470000D01*
X139563000Y-109510000D02*
X139563000Y-106800000D01*
X139523000Y-114161000D02*
X139523000Y-111470000D01*
X139523000Y-109510000D02*
X139523000Y-106819000D01*
X139483000Y-114142000D02*
X139483000Y-111470000D01*
X139483000Y-109510000D02*
X139483000Y-106838000D01*
X139443000Y-114123000D02*
X139443000Y-111470000D01*
X139443000Y-109510000D02*
X139443000Y-106857000D01*
X139403000Y-114103000D02*
X139403000Y-111470000D01*
X139403000Y-109510000D02*
X139403000Y-106877000D01*
X139363000Y-114083000D02*
X139363000Y-111470000D01*
X139363000Y-109510000D02*
X139363000Y-106897000D01*
X139323000Y-114062000D02*
X139323000Y-111470000D01*
X139323000Y-109510000D02*
X139323000Y-106918000D01*
X139283000Y-114040000D02*
X139283000Y-111470000D01*
X139283000Y-109510000D02*
X139283000Y-106940000D01*
X139243000Y-114018000D02*
X139243000Y-111470000D01*
X139243000Y-109510000D02*
X139243000Y-106962000D01*
X139203000Y-113995000D02*
X139203000Y-111470000D01*
X139203000Y-109510000D02*
X139203000Y-106985000D01*
X139163000Y-113972000D02*
X139163000Y-111470000D01*
X139163000Y-109510000D02*
X139163000Y-107008000D01*
X139123000Y-113948000D02*
X139123000Y-111470000D01*
X139123000Y-109510000D02*
X139123000Y-107032000D01*
X139083000Y-113924000D02*
X139083000Y-111470000D01*
X139083000Y-109510000D02*
X139083000Y-107056000D01*
X139043000Y-113898000D02*
X139043000Y-111470000D01*
X139043000Y-109510000D02*
X139043000Y-107082000D01*
X139003000Y-113873000D02*
X139003000Y-107107000D01*
X138963000Y-113846000D02*
X138963000Y-107134000D01*
X138923000Y-113819000D02*
X138923000Y-107161000D01*
X138883000Y-113791000D02*
X138883000Y-107189000D01*
X138843000Y-113762000D02*
X138843000Y-107218000D01*
X138803000Y-113733000D02*
X138803000Y-107247000D01*
X138763000Y-113703000D02*
X138763000Y-107277000D01*
X138723000Y-113672000D02*
X138723000Y-107308000D01*
X138683000Y-113640000D02*
X138683000Y-107340000D01*
X138643000Y-113608000D02*
X138643000Y-107372000D01*
X138603000Y-113574000D02*
X138603000Y-107406000D01*
X138563000Y-113540000D02*
X138563000Y-107440000D01*
X138523000Y-113505000D02*
X138523000Y-107475000D01*
X138483000Y-113469000D02*
X138483000Y-107511000D01*
X138443000Y-113432000D02*
X138443000Y-107548000D01*
X138403000Y-113394000D02*
X138403000Y-107586000D01*
X138363000Y-113355000D02*
X138363000Y-107625000D01*
X138323000Y-113314000D02*
X138323000Y-107666000D01*
X138283000Y-113273000D02*
X138283000Y-107707000D01*
X138243000Y-113230000D02*
X138243000Y-107750000D01*
X138203000Y-113187000D02*
X138203000Y-107793000D01*
X138163000Y-113142000D02*
X138163000Y-107838000D01*
X138123000Y-113095000D02*
X138123000Y-107885000D01*
X138083000Y-113047000D02*
X138083000Y-107933000D01*
X138043000Y-112998000D02*
X138043000Y-107982000D01*
X138003000Y-112947000D02*
X138003000Y-108033000D01*
X137963000Y-112894000D02*
X137963000Y-108086000D01*
X137923000Y-112839000D02*
X137923000Y-108141000D01*
X137883000Y-112783000D02*
X137883000Y-108197000D01*
X137843000Y-112724000D02*
X137843000Y-108256000D01*
X137803000Y-112663000D02*
X137803000Y-108317000D01*
X137763000Y-112599000D02*
X137763000Y-108381000D01*
X137723000Y-112533000D02*
X137723000Y-108447000D01*
X137683000Y-112464000D02*
X137683000Y-108516000D01*
X137643000Y-112392000D02*
X137643000Y-108588000D01*
X137603000Y-112316000D02*
X137603000Y-108664000D01*
X137563000Y-112235000D02*
X137563000Y-108745000D01*
X137523000Y-112150000D02*
X137523000Y-108830000D01*
X137483000Y-112060000D02*
X137483000Y-108920000D01*
X137443000Y-111963000D02*
X137443000Y-109017000D01*
X137403000Y-111859000D02*
X137403000Y-109121000D01*
X137363000Y-111744000D02*
X137363000Y-109236000D01*
X137323000Y-111617000D02*
X137323000Y-109363000D01*
X137283000Y-111473000D02*
X137283000Y-109507000D01*
X137243000Y-111304000D02*
X137243000Y-109676000D01*
X137203000Y-111088000D02*
X137203000Y-109892000D01*
X137163000Y-110736000D02*
X137163000Y-110244000D01*
X144694000Y-110490000D02*
X143494000Y-110490000D01*
X144094000Y-111140000D02*
X144094000Y-109840000D01*
X153310335Y-113602392D02*
G75*
G03X150078000Y-113445484I-1672335J-1078608D01*
G01*
X153310335Y-115759608D02*
G75*
G02X150078000Y-115916516I-1672335J1078608D01*
G01*
X152679130Y-113601163D02*
G75*
G03X150597039Y-113601000I-1041130J-1079837D01*
G01*
X152679130Y-115760837D02*
G75*
G02X150597039Y-115761000I-1041130J1079837D01*
G01*
X150078000Y-113445000D02*
X150078000Y-113601000D01*
X150078000Y-115761000D02*
X150078000Y-115917000D01*
X133668000Y-122876000D02*
X133668000Y-125476000D01*
X122244000Y-125476000D02*
X122244000Y-122876000D01*
X122228000Y-122876000D02*
X133668000Y-122876000D01*
X134098000Y-123826000D02*
X133668000Y-123826000D01*
X134098000Y-124586000D02*
X133668000Y-124586000D01*
X133668000Y-125476000D02*
X133668000Y-128076000D01*
X133668000Y-128076000D02*
X122228000Y-128076000D01*
X122244000Y-128076000D02*
X122244000Y-125476000D01*
X134098000Y-126366000D02*
X133668000Y-126366000D01*
X134098000Y-127126000D02*
X133668000Y-127126000D01*
X135128000Y-122936000D02*
X136398000Y-122936000D01*
X136398000Y-122936000D02*
X136398000Y-124206000D01*
D12*
X158115000Y-98425000D02*
X158115000Y-104775000D01*
X158115000Y-104775000D02*
X161925000Y-104775000D01*
X161925000Y-104775000D02*
X161925000Y-98425000D01*
X153670000Y-107950000D02*
X149860000Y-107950000D01*
X149860000Y-107950000D02*
X149860000Y-98425000D01*
X149860000Y-98425000D02*
X170180000Y-98425000D01*
X170180000Y-98425000D02*
X170180000Y-107950000D01*
X170180000Y-107950000D02*
X166370000Y-107950000D01*
D11*
X153550000Y-107940000D02*
X156210000Y-107940000D01*
X154500000Y-108250000D02*
X154500000Y-107940000D01*
X155380000Y-108250000D02*
X155380000Y-107940000D01*
X154500000Y-110790000D02*
X154500000Y-110190000D01*
X155380000Y-110790000D02*
X155380000Y-110190000D01*
X156210000Y-107940000D02*
X158750000Y-107940000D01*
X157040000Y-108250000D02*
X157040000Y-107940000D01*
X157920000Y-108250000D02*
X157920000Y-107940000D01*
X157040000Y-110790000D02*
X157040000Y-110190000D01*
X157920000Y-110790000D02*
X157920000Y-110190000D01*
X158750000Y-107940000D02*
X161290000Y-107940000D01*
X159580000Y-108250000D02*
X159580000Y-107940000D01*
X160460000Y-108250000D02*
X160460000Y-107940000D01*
X159580000Y-110790000D02*
X159580000Y-110190000D01*
X160460000Y-110790000D02*
X160460000Y-110190000D01*
X161290000Y-107940000D02*
X163830000Y-107940000D01*
X162120000Y-108250000D02*
X162120000Y-107940000D01*
X163000000Y-108250000D02*
X163000000Y-107940000D01*
X162120000Y-110790000D02*
X162120000Y-110190000D01*
X163000000Y-110790000D02*
X163000000Y-110190000D01*
X163830000Y-107940000D02*
X166490000Y-107940000D01*
X164660000Y-108250000D02*
X164660000Y-107940000D01*
X165540000Y-108250000D02*
X165540000Y-107940000D01*
X164660000Y-110790000D02*
X164660000Y-110190000D01*
X165540000Y-110790000D02*
X165540000Y-110190000D01*
X154940000Y-113030000D02*
X153670000Y-113030000D01*
X153670000Y-113030000D02*
X153670000Y-111760000D01*
X174110000Y-97790000D02*
X174110000Y-92590000D01*
X174110000Y-92590000D02*
X171330000Y-92590000D01*
X171330000Y-92590000D02*
X171330000Y-97790000D01*
X171330000Y-97790000D02*
X174110000Y-97790000D01*
X174110000Y-99060000D02*
X174110000Y-100450000D01*
X174110000Y-100450000D02*
X172720000Y-100450000D01*
X134098000Y-112140000D02*
X133668000Y-112140000D01*
X134098000Y-111380000D02*
X133668000Y-111380000D01*
X133668000Y-105350000D02*
X133668000Y-107950000D01*
X122244000Y-107950000D02*
X122244000Y-105350000D01*
X122228000Y-105350000D02*
X133668000Y-105350000D01*
X134098000Y-106300000D02*
X133668000Y-106300000D01*
X134098000Y-107060000D02*
X133668000Y-107060000D01*
X133668000Y-107950000D02*
X133668000Y-113090000D01*
X133668000Y-113090000D02*
X122228000Y-113090000D01*
X122244000Y-113090000D02*
X122244000Y-107950000D01*
X134098000Y-108840000D02*
X133668000Y-108840000D01*
X134098000Y-109600000D02*
X133668000Y-109600000D01*
X135128000Y-105410000D02*
X136398000Y-105410000D01*
X136398000Y-105410000D02*
X136398000Y-106680000D01*
D12*
X118348000Y-120816000D02*
X122848000Y-120816000D01*
X117098000Y-116816000D02*
X117098000Y-118316000D01*
X122848000Y-114316000D02*
X118348000Y-114316000D01*
X124098000Y-118316000D02*
X124098000Y-116816000D01*
X129016000Y-120816000D02*
X133516000Y-120816000D01*
X127766000Y-116816000D02*
X127766000Y-118316000D01*
X133516000Y-114316000D02*
X129016000Y-114316000D01*
X134766000Y-118316000D02*
X134766000Y-116816000D01*
D11*
X140210000Y-125674000D02*
X140210000Y-126604000D01*
X140210000Y-128834000D02*
X140210000Y-127904000D01*
X140210000Y-128834000D02*
X143370000Y-128834000D01*
X140210000Y-125674000D02*
X141670000Y-125674000D01*
X141564000Y-123836000D02*
X141564000Y-122036000D01*
X138344000Y-122036000D02*
X138344000Y-124486000D01*
D12*
X166243000Y-129413000D02*
X166243000Y-123063000D01*
X166243000Y-123063000D02*
X162433000Y-123063000D01*
X162433000Y-123063000D02*
X162433000Y-129413000D01*
X170688000Y-119888000D02*
X174498000Y-119888000D01*
X174498000Y-119888000D02*
X174498000Y-129413000D01*
X174498000Y-129413000D02*
X154178000Y-129413000D01*
X154178000Y-129413000D02*
X154178000Y-119888000D01*
X154178000Y-119888000D02*
X157988000Y-119888000D01*
D11*
X170808000Y-119898000D02*
X168148000Y-119898000D01*
X169858000Y-119588000D02*
X169858000Y-119898000D01*
X168978000Y-119588000D02*
X168978000Y-119898000D01*
X169858000Y-117048000D02*
X169858000Y-117648000D01*
X168978000Y-117048000D02*
X168978000Y-117648000D01*
X168148000Y-119898000D02*
X165608000Y-119898000D01*
X167318000Y-119588000D02*
X167318000Y-119898000D01*
X166438000Y-119588000D02*
X166438000Y-119898000D01*
X167318000Y-117048000D02*
X167318000Y-117648000D01*
X166438000Y-117048000D02*
X166438000Y-117648000D01*
X165608000Y-119898000D02*
X163068000Y-119898000D01*
X164778000Y-119588000D02*
X164778000Y-119898000D01*
X163898000Y-119588000D02*
X163898000Y-119898000D01*
X164778000Y-117048000D02*
X164778000Y-117648000D01*
X163898000Y-117048000D02*
X163898000Y-117648000D01*
X163068000Y-119898000D02*
X160528000Y-119898000D01*
X162238000Y-119588000D02*
X162238000Y-119898000D01*
X161358000Y-119588000D02*
X161358000Y-119898000D01*
X162238000Y-117048000D02*
X162238000Y-117648000D01*
X161358000Y-117048000D02*
X161358000Y-117648000D01*
X160528000Y-119898000D02*
X157868000Y-119898000D01*
X159698000Y-119588000D02*
X159698000Y-119898000D01*
X158818000Y-119588000D02*
X158818000Y-119898000D01*
X159698000Y-117048000D02*
X159698000Y-117648000D01*
X158818000Y-117048000D02*
X158818000Y-117648000D01*
X169418000Y-114808000D02*
X170688000Y-114808000D01*
X170688000Y-114808000D02*
X170688000Y-116078000D01*
D12*
X146157334Y-124543143D02*
X146109715Y-124590762D01*
X145966858Y-124638381D01*
X145871620Y-124638381D01*
X145728762Y-124590762D01*
X145633524Y-124495524D01*
X145585905Y-124400286D01*
X145538286Y-124209810D01*
X145538286Y-124066952D01*
X145585905Y-123876476D01*
X145633524Y-123781238D01*
X145728762Y-123686000D01*
X145871620Y-123638381D01*
X145966858Y-123638381D01*
X146109715Y-123686000D01*
X146157334Y-123733619D01*
X146728762Y-124066952D02*
X146633524Y-124019333D01*
X146585905Y-123971714D01*
X146538286Y-123876476D01*
X146538286Y-123828857D01*
X146585905Y-123733619D01*
X146633524Y-123686000D01*
X146728762Y-123638381D01*
X146919239Y-123638381D01*
X147014477Y-123686000D01*
X147062096Y-123733619D01*
X147109715Y-123828857D01*
X147109715Y-123876476D01*
X147062096Y-123971714D01*
X147014477Y-124019333D01*
X146919239Y-124066952D01*
X146728762Y-124066952D01*
X146633524Y-124114571D01*
X146585905Y-124162190D01*
X146538286Y-124257429D01*
X146538286Y-124447905D01*
X146585905Y-124543143D01*
X146633524Y-124590762D01*
X146728762Y-124638381D01*
X146919239Y-124638381D01*
X147014477Y-124590762D01*
X147062096Y-124543143D01*
X147109715Y-124447905D01*
X147109715Y-124257429D01*
X147062096Y-124162190D01*
X147014477Y-124114571D01*
X146919239Y-124066952D01*
X141077334Y-115907143D02*
X141029715Y-115954762D01*
X140886858Y-116002381D01*
X140791620Y-116002381D01*
X140648762Y-115954762D01*
X140553524Y-115859524D01*
X140505905Y-115764286D01*
X140458286Y-115573810D01*
X140458286Y-115430952D01*
X140505905Y-115240476D01*
X140553524Y-115145238D01*
X140648762Y-115050000D01*
X140791620Y-115002381D01*
X140886858Y-115002381D01*
X141029715Y-115050000D01*
X141077334Y-115097619D01*
X141553524Y-116002381D02*
X141744000Y-116002381D01*
X141839239Y-115954762D01*
X141886858Y-115907143D01*
X141982096Y-115764286D01*
X142029715Y-115573810D01*
X142029715Y-115192857D01*
X141982096Y-115097619D01*
X141934477Y-115050000D01*
X141839239Y-115002381D01*
X141648762Y-115002381D01*
X141553524Y-115050000D01*
X141505905Y-115097619D01*
X141458286Y-115192857D01*
X141458286Y-115430952D01*
X141505905Y-115526190D01*
X141553524Y-115573810D01*
X141648762Y-115621429D01*
X141839239Y-115621429D01*
X141934477Y-115573810D01*
X141982096Y-115526190D01*
X142029715Y-115430952D01*
X150899905Y-112173381D02*
X150899905Y-111173381D01*
X151138000Y-111173381D01*
X151280858Y-111221000D01*
X151376096Y-111316238D01*
X151423715Y-111411476D01*
X151471334Y-111601952D01*
X151471334Y-111744810D01*
X151423715Y-111935286D01*
X151376096Y-112030524D01*
X151280858Y-112125762D01*
X151138000Y-112173381D01*
X150899905Y-112173381D01*
X151852286Y-111268619D02*
X151899905Y-111221000D01*
X151995143Y-111173381D01*
X152233239Y-111173381D01*
X152328477Y-111221000D01*
X152376096Y-111268619D01*
X152423715Y-111363857D01*
X152423715Y-111459095D01*
X152376096Y-111601952D01*
X151804667Y-112173381D01*
X152423715Y-112173381D01*
X130009905Y-122388381D02*
X130009905Y-121388381D01*
X130390858Y-121388381D01*
X130486096Y-121436000D01*
X130533715Y-121483619D01*
X130581334Y-121578857D01*
X130581334Y-121721714D01*
X130533715Y-121816952D01*
X130486096Y-121864571D01*
X130390858Y-121912190D01*
X130009905Y-121912190D01*
X131533715Y-122388381D02*
X130962286Y-122388381D01*
X131248000Y-122388381D02*
X131248000Y-121388381D01*
X131152762Y-121531238D01*
X131057524Y-121626476D01*
X130962286Y-121674095D01*
X148661381Y-107164095D02*
X147661381Y-107164095D01*
X147661381Y-106783142D01*
X147709000Y-106687904D01*
X147756619Y-106640285D01*
X147851857Y-106592666D01*
X147994714Y-106592666D01*
X148089952Y-106640285D01*
X148137571Y-106687904D01*
X148185190Y-106783142D01*
X148185190Y-107164095D01*
X147661381Y-106259333D02*
X147661381Y-105640285D01*
X148042333Y-105973619D01*
X148042333Y-105830761D01*
X148089952Y-105735523D01*
X148137571Y-105687904D01*
X148232810Y-105640285D01*
X148470905Y-105640285D01*
X148566143Y-105687904D01*
X148613762Y-105735523D01*
X148661381Y-105830761D01*
X148661381Y-106116476D01*
X148613762Y-106211714D01*
X148566143Y-106259333D01*
X171981905Y-101902381D02*
X171981905Y-100902381D01*
X172362858Y-100902381D01*
X172458096Y-100950000D01*
X172505715Y-100997619D01*
X172553334Y-101092857D01*
X172553334Y-101235714D01*
X172505715Y-101330952D01*
X172458096Y-101378571D01*
X172362858Y-101426190D01*
X171981905Y-101426190D01*
X173410477Y-101235714D02*
X173410477Y-101902381D01*
X173172381Y-100854762D02*
X172934286Y-101569048D01*
X173553334Y-101569048D01*
X130009905Y-104862381D02*
X130009905Y-103862381D01*
X130390858Y-103862381D01*
X130486096Y-103910000D01*
X130533715Y-103957619D01*
X130581334Y-104052857D01*
X130581334Y-104195714D01*
X130533715Y-104290952D01*
X130486096Y-104338571D01*
X130390858Y-104386190D01*
X130009905Y-104386190D01*
X131486096Y-103862381D02*
X131009905Y-103862381D01*
X130962286Y-104338571D01*
X131009905Y-104290952D01*
X131105143Y-104243333D01*
X131343239Y-104243333D01*
X131438477Y-104290952D01*
X131486096Y-104338571D01*
X131533715Y-104433810D01*
X131533715Y-104671905D01*
X131486096Y-104767143D01*
X131438477Y-104814762D01*
X131343239Y-104862381D01*
X131105143Y-104862381D01*
X131009905Y-104814762D01*
X130962286Y-104767143D01*
X119264667Y-113720762D02*
X119407524Y-113768381D01*
X119645620Y-113768381D01*
X119740858Y-113720762D01*
X119788477Y-113673143D01*
X119836096Y-113577905D01*
X119836096Y-113482667D01*
X119788477Y-113387429D01*
X119740858Y-113339810D01*
X119645620Y-113292190D01*
X119455143Y-113244571D01*
X119359905Y-113196952D01*
X119312286Y-113149333D01*
X119264667Y-113054095D01*
X119264667Y-112958857D01*
X119312286Y-112863619D01*
X119359905Y-112816000D01*
X119455143Y-112768381D01*
X119693239Y-112768381D01*
X119836096Y-112816000D01*
X120169429Y-112768381D02*
X120407524Y-113768381D01*
X120598001Y-113054095D01*
X120788477Y-113768381D01*
X121026572Y-112768381D01*
X121931334Y-113768381D02*
X121359905Y-113768381D01*
X121645619Y-113768381D02*
X121645619Y-112768381D01*
X121550381Y-112911238D01*
X121455143Y-113006476D01*
X121359905Y-113054095D01*
X129932667Y-113720762D02*
X130075524Y-113768381D01*
X130313620Y-113768381D01*
X130408858Y-113720762D01*
X130456477Y-113673143D01*
X130504096Y-113577905D01*
X130504096Y-113482667D01*
X130456477Y-113387429D01*
X130408858Y-113339810D01*
X130313620Y-113292190D01*
X130123143Y-113244571D01*
X130027905Y-113196952D01*
X129980286Y-113149333D01*
X129932667Y-113054095D01*
X129932667Y-112958857D01*
X129980286Y-112863619D01*
X130027905Y-112816000D01*
X130123143Y-112768381D01*
X130361239Y-112768381D01*
X130504096Y-112816000D01*
X130837429Y-112768381D02*
X131075524Y-113768381D01*
X131266001Y-113054095D01*
X131456477Y-113768381D01*
X131694572Y-112768381D01*
X132027905Y-112863619D02*
X132075524Y-112816000D01*
X132170762Y-112768381D01*
X132408858Y-112768381D01*
X132504096Y-112816000D01*
X132551715Y-112863619D01*
X132599334Y-112958857D01*
X132599334Y-113054095D01*
X132551715Y-113196952D01*
X131980286Y-113768381D01*
X132599334Y-113768381D01*
X140208095Y-129206381D02*
X140208095Y-130015905D01*
X140255714Y-130111143D01*
X140303333Y-130158762D01*
X140398571Y-130206381D01*
X140589048Y-130206381D01*
X140684286Y-130158762D01*
X140731905Y-130111143D01*
X140779524Y-130015905D01*
X140779524Y-129206381D01*
X141779524Y-130206381D02*
X141208095Y-130206381D01*
X141493809Y-130206381D02*
X141493809Y-129206381D01*
X141398571Y-129349238D01*
X141303333Y-129444476D01*
X141208095Y-129492095D01*
X136506381Y-123697905D02*
X137315905Y-123697905D01*
X137411143Y-123650286D01*
X137458762Y-123602667D01*
X137506381Y-123507429D01*
X137506381Y-123316952D01*
X137458762Y-123221714D01*
X137411143Y-123174095D01*
X137315905Y-123126476D01*
X136506381Y-123126476D01*
X136601619Y-122697905D02*
X136554000Y-122650286D01*
X136506381Y-122555048D01*
X136506381Y-122316952D01*
X136554000Y-122221714D01*
X136601619Y-122174095D01*
X136696857Y-122126476D01*
X136792095Y-122126476D01*
X136934952Y-122174095D01*
X137506381Y-122745524D01*
X137506381Y-122126476D01*
X145986667Y-71420381D02*
X145653333Y-70944190D01*
X145415238Y-71420381D02*
X145415238Y-70420381D01*
X145796191Y-70420381D01*
X145891429Y-70468000D01*
X145939048Y-70515619D01*
X145986667Y-70610857D01*
X145986667Y-70753714D01*
X145939048Y-70848952D01*
X145891429Y-70896571D01*
X145796191Y-70944190D01*
X145415238Y-70944190D01*
X146415238Y-70896571D02*
X146748572Y-70896571D01*
X146891429Y-71420381D02*
X146415238Y-71420381D01*
X146415238Y-70420381D01*
X146891429Y-70420381D01*
X147653334Y-70896571D02*
X147320000Y-70896571D01*
X147320000Y-71420381D02*
X147320000Y-70420381D01*
X147796191Y-70420381D01*
X148320000Y-70420381D02*
X148320000Y-70658476D01*
X148081905Y-70563238D02*
X148320000Y-70658476D01*
X148558096Y-70563238D01*
X148177143Y-70848952D02*
X148320000Y-70658476D01*
X148462858Y-70848952D01*
X149081905Y-70420381D02*
X149081905Y-70658476D01*
X148843810Y-70563238D02*
X149081905Y-70658476D01*
X149320001Y-70563238D01*
X148939048Y-70848952D02*
X149081905Y-70658476D01*
X149224763Y-70848952D01*
X145986667Y-123744381D02*
X145653333Y-123268190D01*
X145415238Y-123744381D02*
X145415238Y-122744381D01*
X145796191Y-122744381D01*
X145891429Y-122792000D01*
X145939048Y-122839619D01*
X145986667Y-122934857D01*
X145986667Y-123077714D01*
X145939048Y-123172952D01*
X145891429Y-123220571D01*
X145796191Y-123268190D01*
X145415238Y-123268190D01*
X146415238Y-123220571D02*
X146748572Y-123220571D01*
X146891429Y-123744381D02*
X146415238Y-123744381D01*
X146415238Y-122744381D01*
X146891429Y-122744381D01*
X147653334Y-123220571D02*
X147320000Y-123220571D01*
X147320000Y-123744381D02*
X147320000Y-122744381D01*
X147796191Y-122744381D01*
X148320000Y-122744381D02*
X148320000Y-122982476D01*
X148081905Y-122887238D02*
X148320000Y-122982476D01*
X148558096Y-122887238D01*
X148177143Y-123172952D02*
X148320000Y-122982476D01*
X148462858Y-123172952D01*
X149081905Y-122744381D02*
X149081905Y-122982476D01*
X148843810Y-122887238D02*
X149081905Y-122982476D01*
X149320001Y-122887238D01*
X148939048Y-123172952D02*
X149081905Y-122982476D01*
X149224763Y-123172952D01*
X176601381Y-122150095D02*
X175601381Y-122150095D01*
X175601381Y-121769142D01*
X175649000Y-121673904D01*
X175696619Y-121626285D01*
X175791857Y-121578666D01*
X175934714Y-121578666D01*
X176029952Y-121626285D01*
X176077571Y-121673904D01*
X176125190Y-121769142D01*
X176125190Y-122150095D01*
X175696619Y-121197714D02*
X175649000Y-121150095D01*
X175601381Y-121054857D01*
X175601381Y-120816761D01*
X175649000Y-120721523D01*
X175696619Y-120673904D01*
X175791857Y-120626285D01*
X175887095Y-120626285D01*
X176029952Y-120673904D01*
X176601381Y-121245333D01*
X176601381Y-120626285D01*
M02*
