G04 #@! TF.FileFunction,Copper,L1,Top,Signal*
%FSLAX46Y46*%
G04 Gerber Fmt 4.6, Leading zero omitted, Abs format (unit mm)*
G04 Created by KiCad (PCBNEW 4.0.5) date 09/27/18 14:31:26*
%MOMM*%
%LPD*%
G01*
G04 APERTURE LIST*
%ADD10C,0.100000*%
%ADD11C,0.300000*%
%ADD12R,1.600000X1.600000*%
%ADD13C,1.600000*%
%ADD14R,1.800000X1.800000*%
%ADD15C,1.800000*%
%ADD16R,1.700000X1.700000*%
%ADD17O,1.700000X1.700000*%
%ADD18C,2.000000*%
%ADD19R,1.900000X0.800000*%
%ADD20R,0.650000X1.560000*%
%ADD21R,1.727200X1.727200*%
%ADD22O,1.727200X1.727200*%
%ADD23C,1.300000*%
%ADD24C,1.200000*%
%ADD25C,1.500000*%
%ADD26C,0.800000*%
%ADD27C,1.200000*%
%ADD28C,0.500000*%
%ADD29C,0.400000*%
%ADD30C,0.250000*%
G04 APERTURE END LIST*
D10*
D11*
X165366430Y-81339571D02*
X165723573Y-82339571D01*
X166080715Y-81339571D01*
X167223572Y-82268143D02*
X167080715Y-82339571D01*
X166795001Y-82339571D01*
X166652144Y-82268143D01*
X166580715Y-82125286D01*
X166580715Y-81553857D01*
X166652144Y-81411000D01*
X166795001Y-81339571D01*
X167080715Y-81339571D01*
X167223572Y-81411000D01*
X167295001Y-81553857D01*
X167295001Y-81696714D01*
X166580715Y-81839571D01*
X167937858Y-82339571D02*
X167937858Y-81339571D01*
X167937858Y-81625286D02*
X168009286Y-81482429D01*
X168080715Y-81411000D01*
X168223572Y-81339571D01*
X168366429Y-81339571D01*
X168866429Y-82196714D02*
X168937857Y-82268143D01*
X168866429Y-82339571D01*
X168795000Y-82268143D01*
X168866429Y-82196714D01*
X168866429Y-82339571D01*
X171509286Y-82339571D02*
X170652143Y-82339571D01*
X171080715Y-82339571D02*
X171080715Y-80839571D01*
X170937858Y-81053857D01*
X170795000Y-81196714D01*
X170652143Y-81268143D01*
X172152143Y-82196714D02*
X172223571Y-82268143D01*
X172152143Y-82339571D01*
X172080714Y-82268143D01*
X172152143Y-82196714D01*
X172152143Y-82339571D01*
X172795000Y-80982429D02*
X172866429Y-80911000D01*
X173009286Y-80839571D01*
X173366429Y-80839571D01*
X173509286Y-80911000D01*
X173580715Y-80982429D01*
X173652143Y-81125286D01*
X173652143Y-81268143D01*
X173580715Y-81482429D01*
X172723572Y-82339571D01*
X173652143Y-82339571D01*
X162604287Y-79275714D02*
X162532858Y-79347143D01*
X162318572Y-79418571D01*
X162175715Y-79418571D01*
X161961430Y-79347143D01*
X161818572Y-79204286D01*
X161747144Y-79061429D01*
X161675715Y-78775714D01*
X161675715Y-78561429D01*
X161747144Y-78275714D01*
X161818572Y-78132857D01*
X161961430Y-77990000D01*
X162175715Y-77918571D01*
X162318572Y-77918571D01*
X162532858Y-77990000D01*
X162604287Y-78061429D01*
X164104287Y-79275714D02*
X164032858Y-79347143D01*
X163818572Y-79418571D01*
X163675715Y-79418571D01*
X163461430Y-79347143D01*
X163318572Y-79204286D01*
X163247144Y-79061429D01*
X163175715Y-78775714D01*
X163175715Y-78561429D01*
X163247144Y-78275714D01*
X163318572Y-78132857D01*
X163461430Y-77990000D01*
X163675715Y-77918571D01*
X163818572Y-77918571D01*
X164032858Y-77990000D01*
X164104287Y-78061429D01*
X164390001Y-79561429D02*
X165532858Y-79561429D01*
X165818572Y-79347143D02*
X166032858Y-79418571D01*
X166390001Y-79418571D01*
X166532858Y-79347143D01*
X166604287Y-79275714D01*
X166675715Y-79132857D01*
X166675715Y-78990000D01*
X166604287Y-78847143D01*
X166532858Y-78775714D01*
X166390001Y-78704286D01*
X166104287Y-78632857D01*
X165961429Y-78561429D01*
X165890001Y-78490000D01*
X165818572Y-78347143D01*
X165818572Y-78204286D01*
X165890001Y-78061429D01*
X165961429Y-77990000D01*
X166104287Y-77918571D01*
X166461429Y-77918571D01*
X166675715Y-77990000D01*
X167247143Y-79347143D02*
X167461429Y-79418571D01*
X167818572Y-79418571D01*
X167961429Y-79347143D01*
X168032858Y-79275714D01*
X168104286Y-79132857D01*
X168104286Y-78990000D01*
X168032858Y-78847143D01*
X167961429Y-78775714D01*
X167818572Y-78704286D01*
X167532858Y-78632857D01*
X167390000Y-78561429D01*
X167318572Y-78490000D01*
X167247143Y-78347143D01*
X167247143Y-78204286D01*
X167318572Y-78061429D01*
X167390000Y-77990000D01*
X167532858Y-77918571D01*
X167890000Y-77918571D01*
X168104286Y-77990000D01*
X168747143Y-79418571D02*
X168747143Y-77918571D01*
X169104286Y-77918571D01*
X169318571Y-77990000D01*
X169461429Y-78132857D01*
X169532857Y-78275714D01*
X169604286Y-78561429D01*
X169604286Y-78775714D01*
X169532857Y-79061429D01*
X169461429Y-79204286D01*
X169318571Y-79347143D01*
X169104286Y-79418571D01*
X168747143Y-79418571D01*
X169890000Y-79561429D02*
X171032857Y-79561429D01*
X171675714Y-77918571D02*
X171818571Y-77918571D01*
X171961428Y-77990000D01*
X172032857Y-78061429D01*
X172104286Y-78204286D01*
X172175714Y-78490000D01*
X172175714Y-78847143D01*
X172104286Y-79132857D01*
X172032857Y-79275714D01*
X171961428Y-79347143D01*
X171818571Y-79418571D01*
X171675714Y-79418571D01*
X171532857Y-79347143D01*
X171461428Y-79275714D01*
X171390000Y-79132857D01*
X171318571Y-78847143D01*
X171318571Y-78490000D01*
X171390000Y-78204286D01*
X171461428Y-78061429D01*
X171532857Y-77990000D01*
X171675714Y-77918571D01*
X172747142Y-78061429D02*
X172818571Y-77990000D01*
X172961428Y-77918571D01*
X173318571Y-77918571D01*
X173461428Y-77990000D01*
X173532857Y-78061429D01*
X173604285Y-78204286D01*
X173604285Y-78347143D01*
X173532857Y-78561429D01*
X172675714Y-79418571D01*
X173604285Y-79418571D01*
X156076429Y-76100714D02*
X156005000Y-76172143D01*
X155790714Y-76243571D01*
X155647857Y-76243571D01*
X155433572Y-76172143D01*
X155290714Y-76029286D01*
X155219286Y-75886429D01*
X155147857Y-75600714D01*
X155147857Y-75386429D01*
X155219286Y-75100714D01*
X155290714Y-74957857D01*
X155433572Y-74815000D01*
X155647857Y-74743571D01*
X155790714Y-74743571D01*
X156005000Y-74815000D01*
X156076429Y-74886429D01*
X156933572Y-76243571D02*
X156790714Y-76172143D01*
X156719286Y-76100714D01*
X156647857Y-75957857D01*
X156647857Y-75529286D01*
X156719286Y-75386429D01*
X156790714Y-75315000D01*
X156933572Y-75243571D01*
X157147857Y-75243571D01*
X157290714Y-75315000D01*
X157362143Y-75386429D01*
X157433572Y-75529286D01*
X157433572Y-75957857D01*
X157362143Y-76100714D01*
X157290714Y-76172143D01*
X157147857Y-76243571D01*
X156933572Y-76243571D01*
X158076429Y-76243571D02*
X158076429Y-75243571D01*
X158076429Y-75386429D02*
X158147857Y-75315000D01*
X158290715Y-75243571D01*
X158505000Y-75243571D01*
X158647857Y-75315000D01*
X158719286Y-75457857D01*
X158719286Y-76243571D01*
X158719286Y-75457857D02*
X158790715Y-75315000D01*
X158933572Y-75243571D01*
X159147857Y-75243571D01*
X159290715Y-75315000D01*
X159362143Y-75457857D01*
X159362143Y-76243571D01*
X160076429Y-75243571D02*
X160076429Y-76743571D01*
X160076429Y-75315000D02*
X160219286Y-75243571D01*
X160505000Y-75243571D01*
X160647857Y-75315000D01*
X160719286Y-75386429D01*
X160790715Y-75529286D01*
X160790715Y-75957857D01*
X160719286Y-76100714D01*
X160647857Y-76172143D01*
X160505000Y-76243571D01*
X160219286Y-76243571D01*
X160076429Y-76172143D01*
X162076429Y-75243571D02*
X162076429Y-76243571D01*
X161433572Y-75243571D02*
X161433572Y-76029286D01*
X161505000Y-76172143D01*
X161647858Y-76243571D01*
X161862143Y-76243571D01*
X162005000Y-76172143D01*
X162076429Y-76100714D01*
X162576429Y-75243571D02*
X163147858Y-75243571D01*
X162790715Y-74743571D02*
X162790715Y-76029286D01*
X162862143Y-76172143D01*
X163005001Y-76243571D01*
X163147858Y-76243571D01*
X164219286Y-76172143D02*
X164076429Y-76243571D01*
X163790715Y-76243571D01*
X163647858Y-76172143D01*
X163576429Y-76029286D01*
X163576429Y-75457857D01*
X163647858Y-75315000D01*
X163790715Y-75243571D01*
X164076429Y-75243571D01*
X164219286Y-75315000D01*
X164290715Y-75457857D01*
X164290715Y-75600714D01*
X163576429Y-75743571D01*
X164933572Y-76243571D02*
X164933572Y-75243571D01*
X164933572Y-75529286D02*
X165005000Y-75386429D01*
X165076429Y-75315000D01*
X165219286Y-75243571D01*
X165362143Y-75243571D01*
X167862143Y-76100714D02*
X167790714Y-76172143D01*
X167576428Y-76243571D01*
X167433571Y-76243571D01*
X167219286Y-76172143D01*
X167076428Y-76029286D01*
X167005000Y-75886429D01*
X166933571Y-75600714D01*
X166933571Y-75386429D01*
X167005000Y-75100714D01*
X167076428Y-74957857D01*
X167219286Y-74815000D01*
X167433571Y-74743571D01*
X167576428Y-74743571D01*
X167790714Y-74815000D01*
X167862143Y-74886429D01*
X169076428Y-76172143D02*
X168933571Y-76243571D01*
X168647857Y-76243571D01*
X168505000Y-76172143D01*
X168433571Y-76029286D01*
X168433571Y-75457857D01*
X168505000Y-75315000D01*
X168647857Y-75243571D01*
X168933571Y-75243571D01*
X169076428Y-75315000D01*
X169147857Y-75457857D01*
X169147857Y-75600714D01*
X168433571Y-75743571D01*
X169790714Y-75243571D02*
X169790714Y-76243571D01*
X169790714Y-75386429D02*
X169862142Y-75315000D01*
X170005000Y-75243571D01*
X170219285Y-75243571D01*
X170362142Y-75315000D01*
X170433571Y-75457857D01*
X170433571Y-76243571D01*
X170933571Y-75243571D02*
X171505000Y-75243571D01*
X171147857Y-74743571D02*
X171147857Y-76029286D01*
X171219285Y-76172143D01*
X171362143Y-76243571D01*
X171505000Y-76243571D01*
X172576428Y-76172143D02*
X172433571Y-76243571D01*
X172147857Y-76243571D01*
X172005000Y-76172143D01*
X171933571Y-76029286D01*
X171933571Y-75457857D01*
X172005000Y-75315000D01*
X172147857Y-75243571D01*
X172433571Y-75243571D01*
X172576428Y-75315000D01*
X172647857Y-75457857D01*
X172647857Y-75600714D01*
X171933571Y-75743571D01*
X173290714Y-76243571D02*
X173290714Y-75243571D01*
X173290714Y-75529286D02*
X173362142Y-75386429D01*
X173433571Y-75315000D01*
X173576428Y-75243571D01*
X173719285Y-75243571D01*
X176076428Y-76243571D02*
X175362142Y-76243571D01*
X175362142Y-74743571D01*
X176362142Y-75243571D02*
X176933571Y-75243571D01*
X176576428Y-74743571D02*
X176576428Y-76029286D01*
X176647856Y-76172143D01*
X176790714Y-76243571D01*
X176933571Y-76243571D01*
X178076428Y-76243571D02*
X178076428Y-74743571D01*
X178076428Y-76172143D02*
X177933571Y-76243571D01*
X177647857Y-76243571D01*
X177504999Y-76172143D01*
X177433571Y-76100714D01*
X177362142Y-75957857D01*
X177362142Y-75529286D01*
X177433571Y-75386429D01*
X177504999Y-75315000D01*
X177647857Y-75243571D01*
X177933571Y-75243571D01*
X178076428Y-75315000D01*
X178790714Y-76100714D02*
X178862142Y-76172143D01*
X178790714Y-76243571D01*
X178719285Y-76172143D01*
X178790714Y-76100714D01*
X178790714Y-76243571D01*
X153528570Y-73703571D02*
X153528570Y-72203571D01*
X154171427Y-73703571D02*
X154171427Y-72917857D01*
X154099998Y-72775000D01*
X153957141Y-72703571D01*
X153742856Y-72703571D01*
X153599998Y-72775000D01*
X153528570Y-72846429D01*
X154671427Y-72703571D02*
X155242856Y-72703571D01*
X154885713Y-72203571D02*
X154885713Y-73489286D01*
X154957141Y-73632143D01*
X155099999Y-73703571D01*
X155242856Y-73703571D01*
X155528570Y-72703571D02*
X156099999Y-72703571D01*
X155742856Y-72203571D02*
X155742856Y-73489286D01*
X155814284Y-73632143D01*
X155957142Y-73703571D01*
X156099999Y-73703571D01*
X156599999Y-72703571D02*
X156599999Y-74203571D01*
X156599999Y-72775000D02*
X156742856Y-72703571D01*
X157028570Y-72703571D01*
X157171427Y-72775000D01*
X157242856Y-72846429D01*
X157314285Y-72989286D01*
X157314285Y-73417857D01*
X157242856Y-73560714D01*
X157171427Y-73632143D01*
X157028570Y-73703571D01*
X156742856Y-73703571D01*
X156599999Y-73632143D01*
X157885713Y-73632143D02*
X158028570Y-73703571D01*
X158314285Y-73703571D01*
X158457142Y-73632143D01*
X158528570Y-73489286D01*
X158528570Y-73417857D01*
X158457142Y-73275000D01*
X158314285Y-73203571D01*
X158099999Y-73203571D01*
X157957142Y-73132143D01*
X157885713Y-72989286D01*
X157885713Y-72917857D01*
X157957142Y-72775000D01*
X158099999Y-72703571D01*
X158314285Y-72703571D01*
X158457142Y-72775000D01*
X159171428Y-73560714D02*
X159242856Y-73632143D01*
X159171428Y-73703571D01*
X159099999Y-73632143D01*
X159171428Y-73560714D01*
X159171428Y-73703571D01*
X159171428Y-72775000D02*
X159242856Y-72846429D01*
X159171428Y-72917857D01*
X159099999Y-72846429D01*
X159171428Y-72775000D01*
X159171428Y-72917857D01*
X160957142Y-72132143D02*
X159671428Y-74060714D01*
X162528571Y-72132143D02*
X161242857Y-74060714D01*
X163671429Y-73703571D02*
X163671429Y-72917857D01*
X163600000Y-72775000D01*
X163457143Y-72703571D01*
X163171429Y-72703571D01*
X163028572Y-72775000D01*
X163671429Y-73632143D02*
X163528572Y-73703571D01*
X163171429Y-73703571D01*
X163028572Y-73632143D01*
X162957143Y-73489286D01*
X162957143Y-73346429D01*
X163028572Y-73203571D01*
X163171429Y-73132143D01*
X163528572Y-73132143D01*
X163671429Y-73060714D01*
X164171429Y-72703571D02*
X164742858Y-72703571D01*
X164385715Y-72203571D02*
X164385715Y-73489286D01*
X164457143Y-73632143D01*
X164600001Y-73703571D01*
X164742858Y-73703571D01*
X165028572Y-72703571D02*
X165600001Y-72703571D01*
X165242858Y-72203571D02*
X165242858Y-73489286D01*
X165314286Y-73632143D01*
X165457144Y-73703571D01*
X165600001Y-73703571D01*
X166742858Y-73703571D02*
X166742858Y-72917857D01*
X166671429Y-72775000D01*
X166528572Y-72703571D01*
X166242858Y-72703571D01*
X166100001Y-72775000D01*
X166742858Y-73632143D02*
X166600001Y-73703571D01*
X166242858Y-73703571D01*
X166100001Y-73632143D01*
X166028572Y-73489286D01*
X166028572Y-73346429D01*
X166100001Y-73203571D01*
X166242858Y-73132143D01*
X166600001Y-73132143D01*
X166742858Y-73060714D01*
X168100001Y-73632143D02*
X167957144Y-73703571D01*
X167671430Y-73703571D01*
X167528572Y-73632143D01*
X167457144Y-73560714D01*
X167385715Y-73417857D01*
X167385715Y-72989286D01*
X167457144Y-72846429D01*
X167528572Y-72775000D01*
X167671430Y-72703571D01*
X167957144Y-72703571D01*
X168100001Y-72775000D01*
X168742858Y-73703571D02*
X168742858Y-72203571D01*
X169385715Y-73703571D02*
X169385715Y-72917857D01*
X169314286Y-72775000D01*
X169171429Y-72703571D01*
X168957144Y-72703571D01*
X168814286Y-72775000D01*
X168742858Y-72846429D01*
X170100001Y-73703571D02*
X170100001Y-72703571D01*
X170100001Y-72203571D02*
X170028572Y-72275000D01*
X170100001Y-72346429D01*
X170171429Y-72275000D01*
X170100001Y-72203571D01*
X170100001Y-72346429D01*
X170671430Y-73703571D02*
X171457144Y-72703571D01*
X170671430Y-72703571D02*
X171457144Y-73703571D01*
X172028573Y-73560714D02*
X172100001Y-73632143D01*
X172028573Y-73703571D01*
X171957144Y-73632143D01*
X172028573Y-73560714D01*
X172028573Y-73703571D01*
X173385716Y-73632143D02*
X173242859Y-73703571D01*
X172957145Y-73703571D01*
X172814287Y-73632143D01*
X172742859Y-73560714D01*
X172671430Y-73417857D01*
X172671430Y-72989286D01*
X172742859Y-72846429D01*
X172814287Y-72775000D01*
X172957145Y-72703571D01*
X173242859Y-72703571D01*
X173385716Y-72775000D01*
X174242859Y-73703571D02*
X174100001Y-73632143D01*
X174028573Y-73560714D01*
X173957144Y-73417857D01*
X173957144Y-72989286D01*
X174028573Y-72846429D01*
X174100001Y-72775000D01*
X174242859Y-72703571D01*
X174457144Y-72703571D01*
X174600001Y-72775000D01*
X174671430Y-72846429D01*
X174742859Y-72989286D01*
X174742859Y-73417857D01*
X174671430Y-73560714D01*
X174600001Y-73632143D01*
X174457144Y-73703571D01*
X174242859Y-73703571D01*
X175385716Y-73703571D02*
X175385716Y-72703571D01*
X175385716Y-72846429D02*
X175457144Y-72775000D01*
X175600002Y-72703571D01*
X175814287Y-72703571D01*
X175957144Y-72775000D01*
X176028573Y-72917857D01*
X176028573Y-73703571D01*
X176028573Y-72917857D02*
X176100002Y-72775000D01*
X176242859Y-72703571D01*
X176457144Y-72703571D01*
X176600002Y-72775000D01*
X176671430Y-72917857D01*
X176671430Y-73703571D01*
X119880714Y-73632143D02*
X119737857Y-73703571D01*
X119452143Y-73703571D01*
X119309285Y-73632143D01*
X119237857Y-73560714D01*
X119166428Y-73417857D01*
X119166428Y-72989286D01*
X119237857Y-72846429D01*
X119309285Y-72775000D01*
X119452143Y-72703571D01*
X119737857Y-72703571D01*
X119880714Y-72775000D01*
X120737857Y-73703571D02*
X120594999Y-73632143D01*
X120523571Y-73560714D01*
X120452142Y-73417857D01*
X120452142Y-72989286D01*
X120523571Y-72846429D01*
X120594999Y-72775000D01*
X120737857Y-72703571D01*
X120952142Y-72703571D01*
X121094999Y-72775000D01*
X121166428Y-72846429D01*
X121237857Y-72989286D01*
X121237857Y-73417857D01*
X121166428Y-73560714D01*
X121094999Y-73632143D01*
X120952142Y-73703571D01*
X120737857Y-73703571D01*
X121880714Y-73703571D02*
X121880714Y-72703571D01*
X121880714Y-72846429D02*
X121952142Y-72775000D01*
X122095000Y-72703571D01*
X122309285Y-72703571D01*
X122452142Y-72775000D01*
X122523571Y-72917857D01*
X122523571Y-73703571D01*
X122523571Y-72917857D02*
X122595000Y-72775000D01*
X122737857Y-72703571D01*
X122952142Y-72703571D01*
X123095000Y-72775000D01*
X123166428Y-72917857D01*
X123166428Y-73703571D01*
X123880714Y-72703571D02*
X123880714Y-74203571D01*
X123880714Y-72775000D02*
X124023571Y-72703571D01*
X124309285Y-72703571D01*
X124452142Y-72775000D01*
X124523571Y-72846429D01*
X124595000Y-72989286D01*
X124595000Y-73417857D01*
X124523571Y-73560714D01*
X124452142Y-73632143D01*
X124309285Y-73703571D01*
X124023571Y-73703571D01*
X123880714Y-73632143D01*
X125237857Y-73560714D02*
X125309285Y-73632143D01*
X125237857Y-73703571D01*
X125166428Y-73632143D01*
X125237857Y-73560714D01*
X125237857Y-73703571D01*
X127023571Y-73632143D02*
X127166428Y-73703571D01*
X127452143Y-73703571D01*
X127595000Y-73632143D01*
X127666428Y-73489286D01*
X127666428Y-73417857D01*
X127595000Y-73275000D01*
X127452143Y-73203571D01*
X127237857Y-73203571D01*
X127095000Y-73132143D01*
X127023571Y-72989286D01*
X127023571Y-72917857D01*
X127095000Y-72775000D01*
X127237857Y-72703571D01*
X127452143Y-72703571D01*
X127595000Y-72775000D01*
X128309286Y-73703571D02*
X128309286Y-72703571D01*
X128309286Y-72203571D02*
X128237857Y-72275000D01*
X128309286Y-72346429D01*
X128380714Y-72275000D01*
X128309286Y-72203571D01*
X128309286Y-72346429D01*
X129666429Y-73703571D02*
X129666429Y-72203571D01*
X129666429Y-73632143D02*
X129523572Y-73703571D01*
X129237858Y-73703571D01*
X129095000Y-73632143D01*
X129023572Y-73560714D01*
X128952143Y-73417857D01*
X128952143Y-72989286D01*
X129023572Y-72846429D01*
X129095000Y-72775000D01*
X129237858Y-72703571D01*
X129523572Y-72703571D01*
X129666429Y-72775000D01*
X130952143Y-73632143D02*
X130809286Y-73703571D01*
X130523572Y-73703571D01*
X130380715Y-73632143D01*
X130309286Y-73489286D01*
X130309286Y-72917857D01*
X130380715Y-72775000D01*
X130523572Y-72703571D01*
X130809286Y-72703571D01*
X130952143Y-72775000D01*
X131023572Y-72917857D01*
X131023572Y-73060714D01*
X130309286Y-73203571D01*
D12*
X147574000Y-119126000D03*
D13*
X145074000Y-119126000D03*
D12*
X142494000Y-110490000D03*
D13*
X139994000Y-110490000D03*
D14*
X150368000Y-114681000D03*
D15*
X152908000Y-114681000D03*
D16*
X135128000Y-124206000D03*
D17*
X135128000Y-126746000D03*
D16*
X154940000Y-111760000D03*
D17*
X154940000Y-109220000D03*
X157480000Y-111760000D03*
X157480000Y-109220000D03*
X160020000Y-111760000D03*
X160020000Y-109220000D03*
X162560000Y-111760000D03*
X162560000Y-109220000D03*
X165100000Y-111760000D03*
X165100000Y-109220000D03*
D16*
X172720000Y-100832000D03*
D17*
X172720000Y-98292000D03*
X172720000Y-95752000D03*
X135128000Y-111760000D03*
D16*
X135128000Y-106680000D03*
D17*
X135128000Y-109220000D03*
D16*
X118872000Y-100330000D03*
D17*
X121412000Y-100330000D03*
D18*
X117348000Y-119816000D03*
X117348000Y-115316000D03*
X123848000Y-119816000D03*
X123848000Y-115316000D03*
X128016000Y-119816000D03*
X128016000Y-115316000D03*
X134516000Y-119816000D03*
X134516000Y-115316000D03*
D19*
X142470000Y-128204000D03*
X142470000Y-126304000D03*
X139470000Y-127254000D03*
D20*
X139004000Y-124286000D03*
X139954000Y-124286000D03*
X140904000Y-124286000D03*
X140904000Y-121586000D03*
X139004000Y-121586000D03*
D21*
X170180000Y-116840000D03*
D22*
X170180000Y-119380000D03*
X167640000Y-116840000D03*
X167640000Y-119380000D03*
X165100000Y-116840000D03*
X165100000Y-119380000D03*
X162560000Y-116840000D03*
X162560000Y-119380000D03*
X160020000Y-116840000D03*
X160020000Y-119380000D03*
D13*
X126238000Y-106680000D03*
X137668000Y-124206000D03*
X120904000Y-113284000D03*
X121158000Y-121666000D03*
X177292000Y-95631000D03*
D23*
X140128999Y-125851680D03*
D13*
X144018000Y-127996000D03*
D23*
X146812000Y-80391000D03*
X146558000Y-96393000D03*
X143002000Y-125496000D03*
X138684000Y-120396000D03*
X162814000Y-96266000D03*
X160147000Y-83439000D03*
X136906000Y-88900000D03*
X138430000Y-94234000D03*
X123952000Y-84074000D03*
X137922000Y-108458000D03*
X139446000Y-80772000D03*
X157607000Y-96139000D03*
D24*
X117268000Y-106426000D03*
X130810000Y-81534000D03*
D23*
X137414000Y-78994000D03*
X172466000Y-89662000D03*
X169799000Y-107569000D03*
X141478000Y-86614000D03*
X127000000Y-88138000D03*
X167513000Y-106172000D03*
X165227000Y-101854000D03*
X143002000Y-103632000D03*
X151130002Y-103886000D03*
X143025727Y-101877727D03*
D13*
X119380000Y-109474000D03*
D25*
X167957000Y-99187000D02*
X167957000Y-99250000D01*
X143274452Y-99187000D02*
X167957000Y-99187000D01*
X135781452Y-106680000D02*
X143274452Y-99187000D01*
X169418000Y-100711000D02*
X172599000Y-100711000D01*
X167957000Y-99250000D02*
X169418000Y-100711000D01*
X172599000Y-100711000D02*
X172720000Y-100832000D01*
X135128000Y-106680000D02*
X135781452Y-106680000D01*
D26*
X138684000Y-124206000D02*
X138684000Y-126468000D01*
X138684000Y-126468000D02*
X139470000Y-127254000D01*
D25*
X120904000Y-113284000D02*
X120904000Y-112014000D01*
X120904000Y-112014000D02*
X126238000Y-106680000D01*
X137668000Y-124206000D02*
X137748000Y-124286000D01*
D27*
X137748000Y-124286000D02*
X138628999Y-124286000D01*
D25*
X121158000Y-114554000D02*
X121158000Y-113538000D01*
X121158000Y-113538000D02*
X120904000Y-113284000D01*
X121158000Y-121666000D02*
X121158000Y-114554000D01*
X172709840Y-95773240D02*
X177165000Y-95758000D01*
X177165000Y-95758000D02*
X177292000Y-95631000D01*
D28*
X139954000Y-124286000D02*
X139954000Y-125676681D01*
X139954000Y-125676681D02*
X140128999Y-125851680D01*
D25*
X144018000Y-127996000D02*
X142678000Y-127996000D01*
X142678000Y-127996000D02*
X142470000Y-128204000D01*
D26*
X146812000Y-96139000D02*
X146812000Y-80391000D01*
X146558000Y-96393000D02*
X146812000Y-96139000D01*
D25*
X147574000Y-119126000D02*
X147574000Y-121031000D01*
X147574000Y-121031000D02*
X150241000Y-123698000D01*
X147320000Y-119380000D02*
X147574000Y-119126000D01*
D26*
X143002000Y-125496000D02*
X143002000Y-125772000D01*
X143002000Y-125772000D02*
X142470000Y-126304000D01*
D25*
X143002000Y-125730000D02*
X147574000Y-121158000D01*
D26*
X143002000Y-125730000D02*
X143002000Y-125772000D01*
D25*
X147574000Y-121158000D02*
X147574000Y-119126000D01*
X166878000Y-123698000D02*
X169418000Y-121158000D01*
X150241000Y-123698000D02*
X166878000Y-123698000D01*
X169418000Y-121158000D02*
X170180000Y-119380000D01*
X138684000Y-120396000D02*
X139446000Y-119634000D01*
X139446000Y-119634000D02*
X141224000Y-119634000D01*
X141224000Y-119634000D02*
X143764000Y-117094000D01*
X143764000Y-117094000D02*
X143764000Y-111760000D01*
X138684000Y-120396000D02*
X138684000Y-121266000D01*
X138684000Y-121266000D02*
X139004000Y-121586000D01*
X154940000Y-111760000D02*
X143764000Y-111760000D01*
X143764000Y-111760000D02*
X142494000Y-110490000D01*
D26*
X162814000Y-86106000D02*
X162814000Y-96266000D01*
X160147000Y-83439000D02*
X162814000Y-86106000D01*
X136906000Y-88900000D02*
X136906000Y-97536000D01*
X136906000Y-97536000D02*
X129286000Y-105156000D01*
X129286000Y-105156000D02*
X129286000Y-109878000D01*
X129286000Y-109878000D02*
X123848000Y-115316000D01*
X138430000Y-94234000D02*
X138430000Y-100507998D01*
X138430000Y-100507998D02*
X133516001Y-105421997D01*
X133516001Y-105421997D02*
X133516001Y-114316001D01*
X133516001Y-114316001D02*
X134516000Y-115316000D01*
X123952000Y-84074000D02*
X123032762Y-84074000D01*
X123032762Y-84074000D02*
X115316000Y-91790762D01*
X115316000Y-91790762D02*
X115316000Y-121666000D01*
X115316000Y-121666000D02*
X117856000Y-124206000D01*
X117856000Y-124206000D02*
X135128000Y-124206000D01*
D28*
X136906000Y-119763998D02*
X136906000Y-121493002D01*
X136906000Y-121493002D02*
X138418987Y-123005989D01*
X138418987Y-123005989D02*
X140904000Y-123006000D01*
X140904000Y-123006000D02*
X140904000Y-124286000D01*
D26*
X137922000Y-108458000D02*
X137922000Y-114377998D01*
X137922000Y-114377998D02*
X135890000Y-116409998D01*
X135890000Y-116409998D02*
X135890000Y-118747998D01*
X135890000Y-118747998D02*
X136906000Y-119763998D01*
X146164008Y-78232000D02*
X150114000Y-78232000D01*
X139446000Y-80772000D02*
X141986000Y-78232000D01*
X141986000Y-78232000D02*
X146164008Y-78232000D01*
X157607000Y-82169000D02*
X157607000Y-96139000D01*
X156083000Y-80645000D02*
X157607000Y-82169000D01*
X152527000Y-80645000D02*
X156083000Y-80645000D01*
X150114000Y-78232000D02*
X152527000Y-80645000D01*
X157353000Y-95885000D02*
X157607000Y-96139000D01*
X130810000Y-81534000D02*
X116840000Y-95504000D01*
X116840000Y-95504000D02*
X116840000Y-105918000D01*
X116840000Y-105918000D02*
X117268000Y-106346000D01*
D28*
X117268000Y-106426000D02*
X117268000Y-106346000D01*
D26*
X152400000Y-76454000D02*
X152400000Y-76581000D01*
X138333238Y-78994000D02*
X140873238Y-76454000D01*
X140873238Y-76454000D02*
X152400000Y-76454000D01*
X137414000Y-78994000D02*
X138333238Y-78994000D01*
X168910000Y-86106000D02*
X172466000Y-89662000D01*
X166116000Y-86106000D02*
X168910000Y-86106000D01*
X162052000Y-82042000D02*
X166116000Y-86106000D01*
X158745299Y-78744040D02*
X162052000Y-82042000D01*
X152400000Y-76581000D02*
X158745299Y-78744040D01*
D29*
X169799000Y-107569000D02*
X169545000Y-107823000D01*
X169545000Y-107823000D02*
X169545000Y-111760000D01*
X169545000Y-111760000D02*
X166751000Y-114427000D01*
X166751000Y-114427000D02*
X163449000Y-114427000D01*
X163449000Y-114427000D02*
X162560000Y-116840000D01*
D26*
X127000000Y-88138000D02*
X128524000Y-86614000D01*
X128524000Y-86614000D02*
X141478000Y-86614000D01*
D30*
X160020000Y-116840000D02*
X160020000Y-116713000D01*
D29*
X160020000Y-116713000D02*
X161798000Y-113411000D01*
X167513000Y-111760000D02*
X167513000Y-106172000D01*
X165862000Y-113411000D02*
X167513000Y-111760000D01*
X161798000Y-113411000D02*
X165862000Y-113411000D01*
X172593000Y-112903000D02*
X170180000Y-116840000D01*
X172593000Y-104775000D02*
X172593000Y-112903000D01*
X171323000Y-103505000D02*
X172593000Y-104775000D01*
X166878000Y-103505000D02*
X171323000Y-103505000D01*
X165227000Y-101854000D02*
X166878000Y-103505000D01*
D26*
X143002000Y-103632000D02*
X150876002Y-103632000D01*
X150876002Y-103632000D02*
X151130002Y-103886000D01*
X143025727Y-101877727D02*
X157757727Y-101877727D01*
X157757727Y-101877727D02*
X160020000Y-104140000D01*
X160020000Y-104140000D02*
X160020000Y-109220000D01*
X121412000Y-100330000D02*
X121412000Y-107442000D01*
X121412000Y-107442000D02*
X119380000Y-109474000D01*
M02*
