M48
;DRILL file {KiCad 4.0.5} date 09/27/18 14:33:32
;FORMAT={-:-/ absolute / metric / decimal}
FMAT,2
METRIC,TZ
T1C0.600
T2C0.800
T3C0.900
T4C1.000
T5C1.016
T6C1.100
%
G90
G05
M71
T1
X117.268Y-106.426
X123.952Y-84.074
X127.Y-88.138
X130.81Y-81.534
X136.906Y-88.9
X137.414Y-78.994
X137.922Y-108.458
X138.43Y-94.234
X138.684Y-120.396
X139.446Y-80.772
X140.129Y-125.852
X141.478Y-86.614
X143.002Y-103.632
X143.002Y-125.496
X143.026Y-101.878
X146.558Y-96.393
X146.812Y-80.391
X151.13Y-103.886
X157.607Y-96.139
X160.147Y-83.439
X162.814Y-96.266
X165.227Y-101.854
X167.513Y-106.172
X169.799Y-107.569
X172.466Y-89.662
T2
X119.38Y-109.474
X120.904Y-113.284
X121.158Y-121.666
X126.238Y-106.68
X137.668Y-124.206
X139.994Y-110.49
X142.494Y-110.49
X144.018Y-127.996
X145.074Y-119.126
X147.574Y-119.126
X177.292Y-95.631
T3
X150.368Y-114.681
X152.908Y-114.681
T4
X118.872Y-100.33
X121.412Y-100.33
X135.128Y-106.68
X135.128Y-109.22
X135.128Y-111.76
X135.128Y-124.206
X135.128Y-126.746
X154.94Y-109.22
X154.94Y-111.76
X157.48Y-109.22
X157.48Y-111.76
X160.02Y-109.22
X160.02Y-111.76
X162.56Y-109.22
X162.56Y-111.76
X165.1Y-109.22
X165.1Y-111.76
X172.72Y-95.752
X172.72Y-98.292
X172.72Y-100.832
T5
X160.02Y-116.84
X160.02Y-119.38
X162.56Y-116.84
X162.56Y-119.38
X165.1Y-116.84
X165.1Y-119.38
X167.64Y-116.84
X167.64Y-119.38
X170.18Y-116.84
X170.18Y-119.38
T6
X117.348Y-115.316
X117.348Y-119.816
X123.848Y-115.316
X123.848Y-119.816
X128.016Y-115.316
X128.016Y-119.816
X134.516Y-115.316
X134.516Y-119.816
T0
M30
